{
.appVersion = "983";
DisplayStrings = (
"1/two.osf 234/five.osf 567890",
"aHnaa/_part.bow/_part.bow nHGOlkl/_part.stem_ascender klso",
"a/_part.stem/_part.bow/_part.bow m/_part.bow/_part.stem n /_part.bowl/_part.bowl bcde c/_part.stem_ascender defgp/_part.stem_ascender/_part.bow h/jdotless/idotless/idotless ij/_part.stem_ascender bdhklql/_part.stem_ascender qpg /_part.stem r/_part.stem/_part.bow n/_part.bow n/_part.stem_ascender d/_part.stem_ascender q/_part.stem_ascender bnd/_part.stem_ascender bqk/_part.stem_ascender l/_part.stem/_part.bow m/_part.stem n/_part.stem_ascender qu/_part.bow/_part.stem nuprest/_part.bow nuvwxyz"
);
classes = (
{
automatic = 1;
code = "A Aacute Abreve Acircumflex Adieresis Agrave Amacron Aogonek Aring Atilde AE B C Cacute Ccaron Ccedilla Ccircumflex D Eth Dcaron Dcroat E Eacute Ecaron Ecircumflex Edieresis Edotaccent Egrave Emacron Eogonek F G Gcircumflex Gcommaaccent H Hbar Hcircumflex I Iacute Icircumflex Idieresis Igrave Imacron Iogonek J Jcircumflex K Kcommaaccent L Lacute Lcaron Lcommaaccent Lslash M N Nacute Ncaron Ncommaaccent Eng Ntilde O Oacute Ocircumflex Odieresis Ograve Ohungarumlaut Omacron Oslash Otilde OE P Thorn Q R Racute Rcaron Rcommaaccent S Sacute Scaron Scedilla Scircumflex Germandbls T Tbar Tcaron Tcedilla U Uacute Ubreve Ucircumflex Udieresis Ugrave Uhungarumlaut Umacron Uogonek Uring V W Wacute Wcircumflex Wdieresis Wgrave X Y Yacute Ycircumflex Ydieresis Ygrave Z Z.ss01 Zacute Zcaron Zdotaccent";
name = Uppercase;
},
{
code = "b h k l kcommaaccent lacute lcaron lcommaaccent lslash thorn hcircumflex";
name = acender_left;
},
{
code = "abreve acircumflex adieresis amacron atilde ccaron eth iacute icircumflex idieresis igrave imacron iogonek jcircumflex racute rcaron scaron yacute ycircumflex ydieresis ygrave zcaron rcaron";
name = f_vs_diacritics;
}
);
customParameters = (
{
name = note;

glyphs = (
{
color = 1;
glyphname = A;
lastChange = "2017-05-20 10:40:11 +0000";
layers = (
{
anchors = (
{
name = bottom;
position = "{360, 0}";
},
{
name = ogonek;
position = "{641, 10}";
},
{
name = top;
position = "{339, 680}";
}
);
background = {
components = (
{
name = V;
transform = "{-1, 0, 0, -1, 732, 700}";
}
);
};
guideLines = (
{
angle = 86;
position = "{319, 98}";
}
);
layerId = "11343128-4963-4E5D-BE9C-B74F53B36FA5";
paths = (
{
closed = 1;
nodes = (
"174 220 LINE",
"489 219 LINE",
"485 292 LINE",
"204 294 LINE"
);
},
{
closed = 1;
nodes = (
"244 240 OFFCURVE",
"304 390 OFFCURVE",
"356 539 CURVE SMOOTH",
"389 632 OFFCURVE",
"383 645 OFFCURVE",
"378 682 CURVE",
"302 681 LINE",
"246 511 OFFCURVE",
"119 158 OFFCURVE",
"78 78 CURVE",
"10 65 LINE",
"5 0 LINE",
"273 1 LINE",
"278 66 LINE",
"205 78 LINE"
);
},
{
closed = 1;
nodes = (
"613 140 OFFCURVE",
"453 600 OFFCURVE",
"428 686 CURVE",
"197 681 LINE",
"188 615 LINE",
"313 585 LINE",
"360 419 OFFCURVE",
"465 116 OFFCURVE",
"470 107 CURVE SMOOTH",
"478 92 OFFCURVE",
"499 78 OFFCURVE",
"518 77 CURVE",
"409 66 LINE",
"404 0 LINE",
"697 0 LINE",
"702 66 LINE",
"648 78 LINE"
);
}
);
width = 707;
},
{
anchors = (
{
name = bottom;
position = "{340, 0}";
},
{
name = ogonek;
position = "{621, 10}";
},
{
name = top;
position = "{324, 680}";
}
);
background = {
paths = (
{
closed = 1;
nodes = (
"683 30 LINE",
"617 40 LINE",
"364 680 LINE",
"312 674 OFFCURVE",
"252 670 OFFCURVE",
"190 670 CURVE",
"185 640 LINE",
"210 631 OFFCURVE",
"241 622 OFFCURVE",
"272 616 CURVE",
"52 55 LINE",
"26 49 OFFCURVE",
"1 40 OFFCURVE",
"-22 30 CURVE",
"-22 0 LINE",
"193 0 LINE",
"198 30 LINE",
"117 44 LINE",
"187 230 LINE",
"454 230 LINE",
"518 55 LINE",
"491 49 OFFCURVE",
"466 40 OFFCURVE",
"443 30 CURVE",
"443 0 LINE",
"678 0 LINE"
);
},
{
closed = 1;
nodes = (
"433 285 LINE",
"208 285 LINE",
"317 575 LINE",
"321 625 LINE",
"323 625 LINE",
"327 575 LINE"
);
}
);
};
guideLines = (
{
angle = 86;
position = "{72, 240}";
}
);
layerId = "0B1F8F77-7348-4C28-A663-EA76351238C4";
paths = (
{
closed = 1;
nodes = (
"200 237 LINE",
"465 236 LINE",
"461 279 LINE",
"206 281 LINE"
);
},
{
closed = 1;
nodes = (
"206 220 OFFCURVE",
"269 390 OFFCURVE",
"322 539 CURVE SMOOTH",
"355 632 OFFCURVE",
"348 650 OFFCURVE",
"350 680 CURVE",
"290 617 LINE",
"236 451 OFFCURVE",
"114 139 OFFCURVE",
"82 59 CURVE",
"4 46 LINE",
"0 0 LINE",
"221 1 LINE",
"225 46 LINE",
"154 58 LINE"
);
},
{
closed = 1;
nodes = (
"570 119 OFFCURVE",
"394 596 OFFCURVE",
"369 682 CURVE",
"224 680 LINE",
"218 635 LINE",
"320 617 LINE",
"321 611 OFFCURVE",
"323 606 OFFCURVE",
"324 601 CURVE",
"368 439 OFFCURVE",
"487 123 OFFCURVE",
"501 87 CURVE SMOOTH",
"507 72 OFFCURVE",
"530 58 OFFCURVE",
"549 57 CURVE",
"440 47 LINE",
"437 0 LINE",
"659 0 LINE",
"663 46 LINE",
"605 57 LINE"
);
}
);
width = 663;
}
);
leftKerningGroup = A;
rightKerningGroup = A;
unicode = 0041;
},
{
glyphname = AE;
lastChange = "2017-05-20 10:40:11 +0000";
layers = (
{
anchors = (
{
name = bottom;
position = "{476, 0}";
},
{
name = ogonek;
position = "{757, 10}";
},
{
name = top;
position = "{476, 700}";
},
{
name = topleft;
position = "{663, 700}";
}
);
components = (
{
name = _part.stem.cap;
transform = "{1, 0, -0.1047, 1, 148, 0}";
}
);
layerId = "11343128-4963-4E5D-BE9C-B74F53B36FA5";
paths = (
{
closed = 1;
nodes = (
"232 211 LINE",
"541 276 LINE",
"522 346 LINE",
"246 290 LINE"
);
},
{
closed = 1;
nodes = (
"254 240 OFFCURVE",
"319 390 OFFCURVE",
"372 539 CURVE SMOOTH",
"405 632 OFFCURVE",
"399 641 OFFCURVE",
"394 678 CURVE",
"318 678 LINE",
"262 508 OFFCURVE",
"138 206 OFFCURVE",
"97 126 CURVE SMOOTH",
"71 75 OFFCURVE",
"47 67 OFFCURVE",
"12 66 CURVE",
"5 0 LINE",
"270 1 LINE",
"278 66 LINE",
"205 78 LINE"
);
},
{
closed = 1;
nodes = (
"215 681 LINE",
"200 615 LINE",
"323 587 LINE",
"358 680 LINE"
);
},
{
closed = 1;
nodes = (
"509 0 LINE",
"735 0 OFFCURVE",
"674 1 OFFCURVE",
"854 -4 CURVE",
"876 189 LINE",
"811 197 LINE",
"780 115 LINE",
"737 101 OFFCURVE",
"635 96 OFFCURVE",
"556 99 CURVE"
);
},
{
closed = 1;
nodes = (
"530 267 LINE",
"719 286 LINE",
"712 393 LINE",
"694 399 LINE",
"637 386 OFFCURVE",
"573 369 OFFCURVE",
"516 354 CURVE"
);
},
{
closed = 1;
nodes = (
"583 585 OFFCURVE",
"672 582 OFFCURVE",
"722 574 CURVE",
"740 482 LINE",
"811 492 LINE",
"812 674 LINE",
"797 688 LINE",
"648 678 OFFCURVE",
"598 683 OFFCURVE",
"448 680 CURVE",
"463 586 LINE"
);
}
);
width = 881;
},
{
background = {
anchors = (
{
name = bottom;
position = "{658, 0}";
},
{
name = ogonek;
position = "{890, 10}";
},
{
name = top;
position = "{669, 708}";
},
{
name = topleft;
position = "{388, 700}";
}
);
paths = (
{
closed = 1;
nodes = (
"580 623 OFFCURVE",
"646 619 OFFCURVE",
"696 609 CURVE",
"711 527 LINE",
"757 537 LINE",
"759 689 LINE",
"654 683 OFFCURVE",
"561 680 OFFCURVE",
"445 680 CURVE",
"460 624 LINE"
);
},
{
closed = 1;
nodes = (
"483 1 LINE",
"583 1 OFFCURVE",
"680 0 OFFCURVE",
"784 -3 CURVE",
"806 152 LINE",
"765 159 LINE",
"730 70 LINE",
"687 56 OFFCURVE",
"561 51 OFFCURVE",
"484 55 CURVE"
);
},
{
closed = 1;
nodes = (
"467 341 LINE",
"671 323 LINE",
"684 390 LINE",
"672 398 LINE",
"620 395 OFFCURVE",
"440 389 OFFCURVE",
"471 390 CURVE"
);
},
{
closed = 1;
nodes = (
"195 237 LINE",
"480 236 LINE",
"476 279 LINE",
"201 281 LINE"
);
},
{
closed = 1;
nodes = (
"206 220 OFFCURVE",
"289 390 OFFCURVE",
"339 539 CURVE SMOOTH",
"370 632 OFFCURVE",
"370 611 OFFCURVE",
"388 671 CURVE",
"325 679 LINE",
"274 513 OFFCURVE",
"139 198 OFFCURVE",
"105 118 CURVE SMOOTH",
"78 55 OFFCURVE",
"56 47 OFFCURVE",
"3 47 CURVE",
"0 0 LINE",
"221 1 LINE",
"228 46 LINE",
"154 58 LINE"
);
},
{
closed = 1;
nodes = (
"222 680 LINE",
"216 635 LINE",
"321 616 LINE",
"345 680 LINE"
);
},
{
closed = 1;
nodes = (
"301 680 LINE",
"300 636 LINE",
"371 619 LINE",
"374 584 OFFCURVE",
"384 515 OFFCURVE",
"395 388 CURVE SMOOTH",
"413 178 OFFCURVE",
"412 145 OFFCURVE",
"416 93 CURVE SMOOTH",
"417 80 OFFCURVE",
"436 61 OFFCURVE",
"463 55 CURVE",
"352 46 LINE",
"352 0 LINE",
"600 0 LINE",
"601 46 LINE",
"531 55 LINE",
"497 111 OFFCURVE",
"486 288 OFFCURVE",
"482 334 CURVE SMOOTH",
"468 491 OFFCURVE",
"463 535 OFFCURVE",
"461 572 CURVE SMOOTH",
"458 621 OFFCURVE",
"471 634 OFFCURVE",
"533 636 CURVE",
"533 680 LINE"
);
}
);
};
layerId = "0B1F8F77-7348-4C28-A663-EA76351238C4";
paths = (
{
closed = 1;
nodes = (
"580 623 OFFCURVE",
"646 619 OFFCURVE",
"696 609 CURVE",
"711 527 LINE",
"757 537 LINE",
"759 689 LINE",
"654 683 OFFCURVE",
"561 680 OFFCURVE",
"445 680 CURVE",
"460 624 LINE"
);
},
{
closed = 1;
nodes = (
"483 1 LINE",
"583 1 OFFCURVE",
"680 0 OFFCURVE",
"784 -3 CURVE",
"806 152 LINE",
"765 159 LINE",
"730 70 LINE",
"687 56 OFFCURVE",
"561 51 OFFCURVE",
"484 55 CURVE"
);
},
{
closed = 1;
nodes = (
"478 294 LINE",
"681 321 LINE",
"678 390 LINE",
"664 395 LINE",
"615 381 OFFCURVE",
"441 334 OFFCURVE",
"471 342 CURVE"
);
},
{
closed = 1;
nodes = (
"213 235 LINE",
"490 298 LINE",
"477 339 LINE",
"208 279 LINE"
);
},
{
closed = 1;
nodes = (
"206 220 OFFCURVE",
"289 390 OFFCURVE",
"339 539 CURVE SMOOTH",
"370 632 OFFCURVE",
"370 611 OFFCURVE",
"388 671 CURVE",
"325 679 LINE",
"274 513 OFFCURVE",
"139 198 OFFCURVE",
"105 118 CURVE SMOOTH",
"78 55 OFFCURVE",
"56 47 OFFCURVE",
"3 47 CURVE",
"0 0 LINE",
"221 1 LINE",
"228 46 LINE",
"154 58 LINE"
);
},
{
closed = 1;
nodes = (
"222 680 LINE",
"216 635 LINE",
"321 616 LINE",
"345 680 LINE"
);
},
{
closed = 1;
nodes = (
"301 680 LINE",
"300 636 LINE",
"371 619 LINE",
"374 584 OFFCURVE",
"384 515 OFFCURVE",
"395 388 CURVE SMOOTH",
"413 178 OFFCURVE",
"412 145 OFFCURVE",
"416 93 CURVE SMOOTH",
"417 80 OFFCURVE",
"436 61 OFFCURVE",
"463 55 CURVE",
"352 46 LINE",
"352 0 LINE",
"600 0 LINE",
"601 46 LINE",
"531 55 LINE",
"497 111 OFFCURVE",
"486 288 OFFCURVE",
"482 334 CURVE SMOOTH",
"468 491 OFFCURVE",
"463 535 OFFCURVE",
"461 572 CURVE SMOOTH",
"458 621 OFFCURVE",
"471 634 OFFCURVE",
"533 636 CURVE",
"533 680 LINE"
);
}
);
width = 831;
}
);
leftKerningGroup = A;
leftMetricsKey = A;
rightKerningGroup = E;
rightMetricsKey = "=E-30";
unicode = 00C6;
},
{
color = 1;
glyphname = B;
lastChange = "2017-05-20 10:40:11 +0000";
layers = (
{
anchors = (
{
name = bottom;
position = "{332, 0}";
},
{
name = top;
position = "{332, 680}";
}
);
background = {
components = (
{
name = R;
transform = "{1, 0, 0, 1, 25, 0}";
}
);
};
components = (
{
name = _part.stem.cap;
transform = "{1, 0, 0, 1, -182, 0}";
piece = {
"BPR?" = 1;
};
}
);
layerId = "11343128-4963-4E5D-BE9C-B74F53B36FA5";
paths = (
{
closed = 1;
nodes = (
"605 319 OFFCURVE",
"543 355 OFFCURVE",
"483 363 CURVE",
"558 389 OFFCURVE",
"613 479 OFFCURVE",
"588 564 CURVE SMOOTH",
"552 685 OFFCURVE",
"421 688 OFFCURVE",
"257 685 CURVE SMOOTH",
"205 684 OFFCURVE",
"116 680 OFFCURVE",
"108 677 CURVE",
"271 596 LINE",
"443 640 OFFCURVE",
"479 455 OFFCURVE",
"398 394 CURVE",
"359 388 OFFCURVE",
"292 388 OFFCURVE",
"255 399 CURVE",
"232 304 LINE",
"317 311 LINE",
"512 315 OFFCURVE",
"524 119 OFFCURVE",
"417 77 CURVE",
"276 85 LINE",
"225 0 LINE",
"405 -3 LINE SMOOTH",
"532 -5 OFFCURVE",
"680 73 OFFCURVE",
"624 257 CURVE SMOOTH"
);
}
);
width = 671;
},
{
anchors = (
{
name = bottom;
position = "{322, 0}";
},
{
name = top;
position = "{322, 680}";
}
);
background = {
paths = (
{
closed = 1;
nodes = (
"446 349 LINE",
"479 356 OFFCURVE",
"550 410 OFFCURVE",
"550 500 CURVE SMOOTH",
"550 612 OFFCURVE",
"465 680 OFFCURVE",
"347 680 CURVE SMOOTH",
"276 680 OFFCURVE",
"196 670 OFFCURVE",
"135 670 CURVE SMOOTH",
"65 670 LINE",
"60 640 LINE",
"83 630 OFFCURVE",
"108 621 OFFCURVE",
"135 615 CURVE",
"135 55 LINE",
"108 49 OFFCURVE",
"83 40 OFFCURVE",
"60 30 CURVE",
"60 0 LINE",
"135 0 LINE SMOOTH",
"196 0 OFFCURVE",
"246 -10 OFFCURVE",
"317 -10 CURVE SMOOTH",
"465 -10 OFFCURVE",
"580 49 OFFCURVE",
"580 186 CURVE SMOOTH",
"580 301 OFFCURVE",
"479 340 OFFCURVE",
"446 347 CURVE"
);
},
{
closed = 1;
nodes = (
"220 368 LINE",
"220 622 LINE",
"250 624 OFFCURVE",
"281 625 OFFCURVE",
"317 625 CURVE SMOOTH",
"400 625 OFFCURVE",
"465 587 OFFCURVE",
"465 490 CURVE SMOOTH",
"465 427 OFFCURVE",
"448 398 OFFCURVE",
"448 398 CURVE",
"421 376 OFFCURVE",
"383 368 OFFCURVE",
"330 368 CURVE SMOOTH"
);
},
{
closed = 1;
nodes = (
"460 60 OFFCURVE",
"413 45 OFFCURVE",
"347 45 CURVE SMOOTH",
"304 45 OFFCURVE",
"258 47 OFFCURVE",
"215 49 CURVE",
"218 74 OFFCURVE",
"220 100 OFFCURVE",
"220 130 CURVE SMOOTH",
"220 317 LINE",
"330 317 LINE SMOOTH",
"417 317 OFFCURVE",
"495 286 OFFCURVE",
"495 176 CURVE SMOOTH",
"495 118 OFFCURVE",
"482 81 OFFCURVE",
"482 81 CURVE"
);
}
);
};
components = (
{
name = _part.stem.cap;
transform = "{1, 0, 0, 1, -112, 0}";
piece = {
"BPR?" = 1;
};
}
);
layerId = "0B1F8F77-7348-4C28-A663-EA76351238C4";
paths = (
{
closed = 1;
nodes = (
"500 368 OFFCURVE",
"566 464 OFFCURVE",
"539 555 CURVE SMOOTH",
"503 676 OFFCURVE",
"384 689 OFFCURVE",
"220 685 CURVE SMOOTH",
"178 684 OFFCURVE",
"83 681 OFFCURVE",
"75 678 CURVE",
"224 628 LINE",
"468 690 OFFCURVE",
"530 438 OFFCURVE",
"375 376 CURVE",
"316 373 OFFCURVE",
"271 375 OFFCURVE",
"224 381 CURVE",
"224 320 LINE",
"284 325 LINE",
"524 344 OFFCURVE",
"558 119 OFFCURVE",
"423 50 CURVE",
"236 61 LINE",
"185 0 LINE",
"358 -3 LINE SMOOTH",
"647 -8 OFFCURVE",
"650 344 OFFCURVE",
"417 352 CURVE"
);
}
);
width = 619;
}
);
leftKerningGroup = I;
leftMetricsKey = H;
rightKerningGroup = B;
unicode = 0042;
},
{
color = 1;
glyphname = C;
lastChange = "2017-05-20 10:40:11 +0000";
layers = (
{
anchors = (
{
name = bottom;
position = "{326, 0}";
},
{
name = top;
position = "{350, 680}";
}
);
background = {
components = (
{
name = O;
transform = "{1, 0, 0, 1, -5, 0}";
}
);
};
layerId = "11343128-4963-4E5D-BE9C-B74F53B36FA5";
paths = (
{
closed = 1;
nodes = (
"547 106 OFFCURVE",
"461 79 OFFCURVE",
"398 86 CURVE SMOOTH",
"287 98 OFFCURVE",
"218 159 OFFCURVE",
"191 269 CURVE SMOOTH",
"146 452 OFFCURVE",
"251 578 OFFCURVE",
"324 604 CURVE",
"371 605 OFFCURVE",
"466 589 OFFCURVE",
"490 569 CURVE",
"510 484 LINE",
"582 494 LINE",
"589 656 LINE",
"552 680 OFFCURVE",
"472 699 OFFCURVE",
"356 696 CURVE SMOOTH",
"106 690 OFFCURVE",
"-24 431 OFFCURVE",
"42 202 CURVE SMOOTH",
"88 42 OFFCURVE",
"234 -20 OFFCURVE",
"376 -16 CURVE SMOOTH",
"504 -12 OFFCURVE",
"581 37 OFFCURVE",
"602 55 CURVE",
"582 126 LINE"
);
},
{
closed = 1;
nodes = (
"605 204 LINE",
"534 204 LINE",
"497 59 LINE",
"602 55 LINE"
);
}
);
width = 645;
},
{
anchors = (
{
name = bottom;
position = "{319, 0}";
},
{
name = top;
position = "{344, 680}";
}
);
background = {
components = (
{
name = G;
transform = "{1, 0, 0, 1, 10, 0}";
}
);
};
guideLines = (
{
angle = 85;
position = "{550, 285}";
}
);
layerId = "0B1F8F77-7348-4C28-A663-EA76351238C4";
paths = (
{
closed = 1;
nodes = (
"554 74 OFFCURVE",
"479 44 OFFCURVE",
"385 48 CURVE SMOOTH",
"295 52 OFFCURVE",
"195 87 OFFCURVE",
"148 273 CURVE SMOOTH",
"102 454 OFFCURVE",
"209 613 OFFCURVE",
"322 642 CURVE",
"412 642 OFFCURVE",
"496 622 OFFCURVE",
"520 599 CURVE",
"531 516 LINE",
"580 526 LINE",
"587 649 LINE",
"551 676 OFFCURVE",
"476 692 OFFCURVE",
"383 693 CURVE SMOOTH",
"124 695 OFFCURVE",
"1 447 OFFCURVE",
"68 209 CURVE SMOOTH",
"113 49 OFFCURVE",
"236 -19 OFFCURVE",
"378 -13 CURVE SMOOTH",
"503 -8 OFFCURVE",
"585 40 OFFCURVE",
"606 58 CURVE",
"589 102 LINE"
);
},
{
closed = 1;
nodes = (
"606 58 LINE",
"606 181 LINE",
"558 177 LINE",
"535 63 LINE"
);
}
);
width = 636;
}
);
leftKerningGroup = O;
leftMetricsKey = O;
rightKerningGroup = C;
unicode = 0043;
},
{
glyphname = D;
lastChange = "2017-05-20 10:40:11 +0000";
layers = (
{
anchors = (
{
name = bottom;
position = "{345, 0}";
},
{
name = center;
position = "{185, 350}";
},
{
name = top;
position = "{345, 680}";
}
);
background = {
paths = (
{
closed = 1;
nodes = (
"47 0 LINE",
"325 -3 LINE SMOOTH",
"538 -5 OFFCURVE",
"704 198 OFFCURVE",
"636 482 CURVE SMOOTH",
"592 666 OFFCURVE",
"438 703 OFFCURVE",
"257 705 CURVE SMOOTH",
"183 706 OFFCURVE",
"90 701 OFFCURVE",
"57 700 CURVE",
"250 622 LINE",
"319 632 OFFCURVE",
"453 582 OFFCURVE",
"486 441 CURVE SMOOTH",
"534 234 OFFCURVE",
"439 107 OFFCURVE",
"366 71 CURVE",
"250 85 LINE"
);
}
);
};
components = (
{
name = _part.stem.cap;
transform = "{1, 0, 0, 1, -182, 0}";
}
);
layerId = "11343128-4963-4E5D-BE9C-B74F53B36FA5";
paths = (
{
closed = 1;
nodes = (
"59 0 LINE",
"357 -2 LINE SMOOTH",
"586 -4 OFFCURVE",
"727 225 OFFCURVE",
"658 480 CURVE SMOOTH",
"612 650 OFFCURVE",
"460 688 OFFCURVE",
"279 688 CURVE SMOOTH",
"197 688 OFFCURVE",
"84 682 OFFCURVE",
"51 680 CURVE",
"268 606 LINE",
"386 620 OFFCURVE",
"478 552 OFFCURVE",
"506 427 CURVE SMOOTH",
"547 245 OFFCURVE",
"473 112 OFFCURVE",
"389 75 CURVE",
"259 90 LINE"
);
}
);
width = 701;
},
{
anchors = (
{
name = bottom;
position = "{335, 0}";
},
{
name = center;
position = "{175, 350}";
},
{
name = top;
position = "{335, 680}";
}
);
background = {
components = (
{
name = C;
transform = "{-1, 0, 0, -1, 716, 684}";
}
);
};
components = (
{
name = _part.stem.cap;
transform = "{1, 0, 0, 1, -112, 0}";
piece = {
"BPR?" = 1;
};
}
);
guideLines = (
{
position = "{441, 746}";
},
{
position = "{428, 865}";
}
);
layerId = "0B1F8F77-7348-4C28-A663-EA76351238C4";
paths = (
{
closed = 1;
nodes = (
"70 0 LINE",
"357 -4 LINE SMOOTH",
"581 -7 OFFCURVE",
"732 233 OFFCURVE",
"655 479 CURVE SMOOTH",
"603 646 OFFCURVE",
"465 685 OFFCURVE",
"298 689 CURVE SMOOTH",
"234 691 OFFCURVE",
"107 682 OFFCURVE",
"74 680 CURVE",
"229 638 LINE",
"398 644 OFFCURVE",
"523 594 OFFCURVE",
"569 447 CURVE SMOOTH",
"636 233 OFFCURVE",
"499 79 OFFCURVE",
"414 45 CURVE",
"228 55 LINE"
);
}
);
width = 725;
}
);
leftKerningGroup = I;
leftMetricsKey = H;
rightKerningGroup = O;
rightMetricsKey = O;
unicode = 0044;
},
{
color = 1;
glyphname = E;
lastChange = "2017-05-20 10:40:11 +0000";
layers = (
{
anchors = (
{
name = bottom;
position = "{328, 0}";
},
{
name = ogonek;
position = "{560, 10}";
},
{
name = top;
position = "{312, 680}";
},
{
name = topleft;
position = "{58, 700}";
}
);
background = {
components = (
{
name = P;
transform = "{1, 0, 0, 1, 38, 0}";
}
);
};
components = (
{
name = _part.stem.cap;
transform = "{1, 0, 0, 1, -182, 0}";
}
);
guideLines = (
{
position = "{430, 295}";
}
);
layerId = "11343128-4963-4E5D-BE9C-B74F53B36FA5";
paths = (
{
closed = 1;
nodes = (
"215 0 LINE",
"441 0 OFFCURVE",
"380 1 OFFCURVE",
"560 -4 CURVE",
"582 189 LINE",
"517 197 LINE",
"486 115 LINE",
"443 101 OFFCURVE",
"341 96 OFFCURVE",
"262 99 CURVE"
);
},
{
closed = 1;
nodes = (
"245 322 LINE",
"433 301 LINE",
"449 407 LINE",
"433 417 LINE",
"374 416 OFFCURVE",
"308 413 OFFCURVE",
"249 410 CURVE"
);
},
{
closed = 1;
nodes = (
"320 585 OFFCURVE",
"409 582 OFFCURVE",
"459 574 CURVE",
"477 482 LINE",
"548 492 LINE",
"549 677 LINE",
"537 687 LINE",
"391 679 OFFCURVE",
"335 683 OFFCURVE",
"185 680 CURVE",
"200 586 LINE"
);
}
);
width = 617;
},
{
anchors = (
{
name = bottom;
position = "{304, 0}";
},
{
name = ogonek;
position = "{536, 10}";
},
{
name = top;
position = "{315, 680}";
},
{
name = topleft;
position = "{34, 700}";
}
);
background = {
paths = (
{
closed = 1;
nodes = (
"545 151 LINE",
"495 156 LINE",
"478 123 OFFCURVE",
"463 90 OFFCURVE",
"448 53 CURVE",
"216 47 LINE",
"220 68 OFFCURVE",
"221 89 OFFCURVE",
"221 110 CURVE SMOOTH",
"221 317 LINE",
"476 305 LINE",
"478 330 OFFCURVE",
"478 355 OFFCURVE",
"476 380 CURVE",
"221 368 LINE",
"221 623 LINE",
"429 617 LINE",
"452 513 LINE",
"502 508 LINE",
"510 543 OFFCURVE",
"519 616 OFFCURVE",
"521 660 CURVE",
"511 670 LINE",
"66 670 LINE",
"61 640 LINE",
"84 630 OFFCURVE",
"109 621 OFFCURVE",
"136 615 CURVE",
"136 55 LINE",
"109 49 OFFCURVE",
"84 40 OFFCURVE",
"61 30 CURVE",
"61 0 LINE",
"521 0 LINE",
"531 10 LINE"
);
}
);
};
components = (
{
name = _part.stem.cap;
transform = "{1, 0, 0, 1, -112, 0}";
}
);
guideLines = (
{
position = "{430, 322}";
}
);
layerId = "0B1F8F77-7348-4C28-A663-EA76351238C4";
paths = (
{
closed = 1;
nodes = (
"226 1 LINE",
"326 1 OFFCURVE",
"436 0 OFFCURVE",
"540 -3 CURVE",
"562 152 LINE",
"521 159 LINE",
"486 70 LINE",
"443 56 OFFCURVE",
"304 51 OFFCURVE",
"227 55 CURVE"
);
},
{
closed = 1;
nodes = (
"210 348 LINE",
"427 330 LINE",
"440 397 LINE",
"428 405 LINE",
"376 402 OFFCURVE",
"183 396 OFFCURVE",
"214 397 CURVE"
);
},
{
closed = 1;
nodes = (
"323 623 OFFCURVE",
"416 619 OFFCURVE",
"466 609 CURVE",
"481 527 LINE",
"527 537 LINE",
"529 680 LINE",
"520 689 LINE",
"417 683 OFFCURVE",
"301 680 OFFCURVE",
"188 680 CURVE",
"203 624 LINE"
);
}
);
width = 592;
}
);
leftKerningGroup = I;
leftMetricsKey = H;
rightKerningGroup = E;
unicode = 0045;
},
{
color = 1;
glyphname = F;
lastChange = "2017-05-20 10:40:11 +0000";
layers = (
{
anchors = (
{
name = bottom;
position = "{308, 0}";
},
{
name = top;
position = "{308, 680}";
}
);
background = {
components = (
{
name = I;
transform = "{1, 0, 0, 1, 20, 0}";
}
);
paths = (
{
closed = 1;
nodes = (
"237 327 LINE",
"358 320 LINE",
"371 274 LINE",
"429 277 LINE",
"432 320 OFFCURVE",
"434 405 OFFCURVE",
"419 405 CURVE SMOOTH",
"410 405 OFFCURVE",
"195 398 OFFCURVE",
"241 399 CURVE"
);
},
{
closed = 1;
nodes = (
"167 0 LINE",
"359 0 LINE",
"364 53 LINE",
"231 75 LINE"
);
}
);
};
components = (
{
name = _part.stem.cap;
transform = "{1, 0, 0, 1, -182, 0}";
}
);
guideLines = (
{
angle = 86;
position = "{426, 235}";
}
);
layerId = "11343128-4963-4E5D-BE9C-B74F53B36FA5";
paths = (
{
closed = 1;
nodes = (
"321 595 OFFCURVE",
"408 592 OFFCURVE",
"458 584 CURVE",
"480 492 LINE",
"549 502 LINE",
"543 678 LINE",
"529 687 LINE",
"417 681 OFFCURVE",
"297 682 OFFCURVE",
"186 680 CURVE",
"201 596 LINE"
);
},
{
closed = 1;
nodes = (
"221 0 LINE",
"403 0 LINE",
"408 66 LINE",
"287 78 LINE",
"207 61 LINE"
);
},
{
closed = 1;
nodes = (
"255 313 LINE",
"443 292 LINE",
"459 398 LINE",
"443 408 LINE",
"384 407 OFFCURVE",
"318 404 OFFCURVE",
"259 401 CURVE"
);
}
);
width = 564;
},
{
anchors = (
{
name = bottom;
position = "{295, 0}";
},
{
name = top;
position = "{295, 680}";
}
);
background = {
components = (
{
name = E;
transform = "{1, 0, 0, 1, 11, 0}";
}
);
};
components = (
{
name = _part.stem.cap;
transform = "{1, 0, 0, 1, -112, 0}";
}
);
layerId = "0B1F8F77-7348-4C28-A663-EA76351238C4";
paths = (
{
closed = 1;
nodes = (
"202 338 LINE",
"421 320 LINE",
"434 387 LINE",
"422 395 LINE",
"370 392 OFFCURVE",
"175 386 OFFCURVE",
"206 387 CURVE"
);
},
{
closed = 1;
nodes = (
"317 623 OFFCURVE",
"411 618 OFFCURVE",
"461 610 CURVE",
"476 527 LINE",
"523 537 LINE",
"523 680 LINE",
"514 688 LINE",
"401 682 OFFCURVE",
"295 683 OFFCURVE",
"182 680 CURVE",
"197 624 LINE"
);
},
{
closed = 1;
nodes = (
"212 36 LINE",
"217 0 LINE",
"345 0 LINE",
"354 48 LINE",
"232 58 LINE"
);
}
);
width = 553;
}
);
leftKerningGroup = I;
leftMetricsKey = H;
rightKerningGroup = F;
unicode = 0046;
},
{
color = 1;
glyphname = G;
lastChange = "2017-05-20 10:40:11 +0000";
layers = (
{
anchors = (
{
name = bottom;
position = "{340, 0}";
},
{
name = top;
position = "{354, 680}";
}
);
background = {
components = (
{
name = C;
transform = "{1, 0, 0, 1, -6, 0}";
}
);
};
guideLines = (
{
angle = 86;
position = "{656, 414}";
},
{
angle = 90;
position = "{612, 214}";
}
);
layerId = "11343128-4963-4E5D-BE9C-B74F53B36FA5";
paths = (
{
closed = 1;
nodes = (
"124 692 OFFCURVE",
"-18 463 OFFCURVE",
"36 223 CURVE SMOOTH",
"73 59 OFFCURVE",
"206 -5 OFFCURVE",
"324 -14 CURVE SMOOTH",
"458 -24 OFFCURVE",
"556 12 OFFCURVE",
"610 51 CURVE",
"608 129 OFFCURVE",
"608 236 OFFCURVE",
"609 258 CURVE",
"644 274 LINE",
"649 344 LINE",
"562 343 OFFCURVE",
"478 343 OFFCURVE",
"395 345 CURVE",
"390 277 LINE",
"475 257 LINE",
"478 201 OFFCURVE",
"477 123 OFFCURVE",
"461 82 CURVE",
"374 64 OFFCURVE",
"232 103 OFFCURVE",
"191 267 CURVE SMOOTH",
"145 450 OFFCURVE",
"255 577 OFFCURVE",
"318 604 CURVE",
"381 607 OFFCURVE",
"470 591 OFFCURVE",
"511 555 CURVE",
"526 472 LINE",
"603 483 LINE",
"613 656 LINE",
"568 677 OFFCURVE",
"480 701 OFFCURVE",
"366 698 CURVE SMOOTH"
);
}
);
width = 699;
},
{
anchors = (
{
name = bottom;
position = "{346, 0}";
},
{
name = top;
position = "{360, 680}";
}
);
background = {
components = (
{
name = O;
transform = "{1, 0, 0, 1, 12, 1}";
}
);
};
guideLines = (
{
angle = 90;
position = "{598, 405}";
}
);
layerId = "0B1F8F77-7348-4C28-A663-EA76351238C4";
paths = (
{
closed = 1;
nodes = (
"145 686 OFFCURVE",
"10 482 OFFCURVE",
"61 235 CURVE SMOOTH",
"95 71 OFFCURVE",
"209 -4 OFFCURVE",
"327 -12 CURVE SMOOTH",
"473 -22 OFFCURVE",
"546 12 OFFCURVE",
"600 51 CURVE",
"595 129 OFFCURVE",
"598 249 OFFCURVE",
"599 271 CURVE",
"631 288 LINE",
"634 331 LINE",
"547 330 OFFCURVE",
"509 330 OFFCURVE",
"424 331 CURVE",
"419 288 LINE",
"525 267 LINE",
"528 211 OFFCURVE",
"534 101 OFFCURVE",
"508 60 CURVE",
"350 18 OFFCURVE",
"196 47 OFFCURVE",
"147 271 CURVE SMOOTH",
"105 462 OFFCURVE",
"206 604 OFFCURVE",
"319 642 CURVE",
"414 644 OFFCURVE",
"506 613 OFFCURVE",
"537 586 CURVE",
"547 503 LINE",
"597 513 LINE",
"605 638 LINE",
"564 666 OFFCURVE",
"479 699 OFFCURVE",
"373 695 CURVE SMOOTH"
);
}
);
width = 674;
}
);
leftKerningGroup = O;
leftMetricsKey = O;
rightKerningGroup = I;
unicode = 0047;
},
{
color = 1;
glyphname = H;
lastChange = "2017-05-20 10:40:11 +0000";
layers = (
{
anchors = (
{
name = bottom;
position = "{383, 0}";
},
{
name = center;
position = "{383, 350}";
},
{
name = top;
position = "{383, 680}";
},
{
name = topleft;
position = "{42, 700}";
}
);
components = (
{
name = _part.stem.cap;
transform = "{1, 0, 0, 1, -182, 0}";
},
{
name = _part.stem.cap;
transform = "{1, 0, 0, 1, 219, 0}";
}
);
layerId = "11343128-4963-4E5D-BE9C-B74F53B36FA5";
paths = (
{
closed = 1;
nodes = (
"234 305 LINE",
"559 308 LINE",
"550 391 LINE",
"238 391 LINE"
);
}
);
width = 802;
},
{
anchors = (
{
name = bottom;
position = "{376, 0}";
},
{
name = center;
position = "{376, 350}";
},
{
name = top;
position = "{376, 680}";
},
{
name = topleft;
position = "{35, 700}";
}
);
background = {
paths = (
{
closed = 1;
nodes = (
"685 629 LINE",
"755 640 LINE",
"750 670 LINE",
"530 670 LINE",
"525 640 LINE",
"548 630 OFFCURVE",
"573 621 OFFCURVE",
"600 615 CURVE",
"600 370 LINE",
"220 370 LINE",
"220 629 LINE",
"290 640 LINE",
"285 670 LINE",
"65 670 LINE",
"60 640 LINE",
"83 630 OFFCURVE",
"108 621 OFFCURVE",
"135 615 CURVE",
"135 55 LINE",
"108 49 OFFCURVE",
"83 40 OFFCURVE",
"60 30 CURVE",
"60 0 LINE",
"285 0 LINE",
"290 30 LINE",
"214 42 LINE",
"218 69 OFFCURVE",
"220 97 OFFCURVE",
"220 130 CURVE SMOOTH",
"220 315 LINE",
"600 315 LINE",
"600 55 LINE",
"573 49 OFFCURVE",
"548 40 OFFCURVE",
"525 30 CURVE",
"525 0 LINE",
"750 0 LINE",
"755 30 LINE",
"679 42 LINE",
"683 69 OFFCURVE",
"685 97 OFFCURVE",
"685 130 CURVE SMOOTH"
);
}
);
};
components = (
{
name = _part.stem.cap;
transform = "{1, 0, 0, 1, -112, 0}";
},
{
name = _part.stem.cap;
transform = "{1, 0, 0, 1, 290, 0}";
}
);
layerId = "0B1F8F77-7348-4C28-A663-EA76351238C4";
paths = (
{
closed = 1;
nodes = (
"200 322 LINE",
"586 324 LINE",
"577 372 LINE",
"204 372 LINE"
);
}
);
width = 765;
}
);
leftKerningGroup = I;
rightKerningGroup = I;
unicode = 0048;
},
{
glyphname = Hbar;
lastChange = "2017-05-20 10:40:11 +0000";
layers = (
{
components = (
{
name = H;
}
);
layerId = "11343128-4963-4E5D-BE9C-B74F53B36FA5";
paths = (
{
closed = 1;
nodes = (
"799.89 528.73 LINE",
"782.445 537.089 LINE",
"549.849 537.089 OFFCURVE",
"301.47 533.289 OFFCURVE",
"29.831 534.809 CURVE",
"19.032 461.859 LINE",
"40.63 455.779 LINE",
"291.501 458.059 OFFCURVE",
"535.727 458.059 OFFCURVE",
"790.752 457.299 CURVE"
);
}
);
width = 818;
},
{
components = (
{
name = H;
transform = "{1, 0, 0, 1, 32, 0}";
}
);
layerId = "0B1F8F77-7348-4C28-A663-EA76351238C4";
paths = (
{
closed = 1;
nodes = (
"755 513 LINE",
"744 523 LINE",
"535 523 OFFCURVE",
"307 519 OFFCURVE",
"63 520 CURVE",
"55 474 LINE",
"67 467 LINE",
"293 469 OFFCURVE",
"517 469 OFFCURVE",
"746 468 CURVE"
);
}
);
width = 810;
}
);
leftMetricsKey = H;
rightMetricsKey = H;
unicode = 0126;
},
{
color = 1;
glyphname = I;
lastChange = "2017-05-20 10:40:11 +0000";
layers = (
{
anchors = (
{
name = bottom;
position = "{200, 0}";
},
{
name = ogonek;
position = "{340, 10}";
},
{
name = top;
position = "{181, 680}";
},
{
name = topleft;
position = "{44, 700}";
}
);
background = {
components = (
{
name = _part.stem.cap;
transform = "{1, 0, 0, 1, -194, 0}";
}
);
};
guideLines = (
{
angle = 90;
position = "{18, 101}";
}
);
layerId = "11343128-4963-4E5D-BE9C-B74F53B36FA5";
paths = (
{
closed = 1;
nodes = (
"43 680 LINE",
"38 613 LINE",
"96 603 LINE",
"108 577 OFFCURVE",
"108 524 OFFCURVE",
"108 407 CURVE SMOOTH",
"108 197 OFFCURVE",
"97 124 OFFCURVE",
"102 108 CURVE SMOOTH",
"106 96 OFFCURVE",
"118 81 OFFCURVE",
"147 75 CURVE",
"39 65 LINE",
"35 0 LINE",
"338 1 LINE",
"343 64 LINE",
"283 74 LINE",
"249 132 OFFCURVE",
"253 238 OFFCURVE",
"253 353 CURVE SMOOTH",
"253 500 OFFCURVE",
"256 576 OFFCURVE",
"267 603 CURVE",
"326 615 LINE",
"331 680 LINE"
);
}
);
width = 373;
},
{
anchors = (
{
name = bottom;
position = "{189, 0}";
},
{
name = ogonek;
position = "{329, 10}";
},
{
name = top;
position = "{187, 680}";
},
{
name = topleft;
position = "{33, 700}";
}
);
components = (
{
name = _part.stem.cap;
transform = "{1, 0, 0, 1, -112, 0}";
}
);
guideLines = (
{
angle = 90;
position = "{7, 101}";
}
);
layerId = "0B1F8F77-7348-4C28-A663-EA76351238C4";
width = 363;
}
);
leftKerningGroup = I;
leftMetricsKey = H;
rightKerningGroup = I;
rightMetricsKey = H;
unicode = 0049;
},
{
color = 1;
glyphname = J;
lastChange = "2017-05-20 10:40:11 +0000";
layers = (
{
anchors = (
{
name = bottom;
position = "{142, 0}";
},
{
name = top;
position = "{142, 680}";
}
);
background = {
components = (
{
name = I;
transform = "{1, 0, 0, 1, -45, 0}";
}
);
};
guideLines = (
{
position = "{-196, -204}";
},
{
angle = 86;
position = "{21, 377}";
}
);
layerId = "11343128-4963-4E5D-BE9C-B74F53B36FA5";
paths = (
{
closed = 1;
nodes = (
"17 681 LINE",
"12 613 LINE",
"66 603 LINE",
"79 578 OFFCURVE",
"75 269 OFFCURVE",
"75 209 CURVE",
"75 -39 OFFCURVE",
"50 -115 OFFCURVE",
"10 -163 CURVE",
"47 -206 LINE",
"162 -145 OFFCURVE",
"221 -31 OFFCURVE",
"221 275 CURVE SMOOTH",
"221 441 OFFCURVE",
"221 561 OFFCURVE",
"230 603 CURVE",
"287 613 LINE",
"292 680 LINE"
);
}
);
width = 317;
},
{
anchors = (
{
name = bottom;
position = "{166, 0}";
},
{
name = top;
position = "{161, 680}";
}
);
background = {
components = (
{
name = I;
transform = "{1, 0, 0, 1, 4, 0}";
}
);
};
guideLines = (
{
position = "{-172, -204}";
},
{
angle = 85;
position = "{288, 452}";
}
);
layerId = "0B1F8F77-7348-4C28-A663-EA76351238C4";
paths = (
{
closed = 1;
nodes = (
"44 681 LINE",
"40 636 LINE",
"111 626 LINE",
"124 601 OFFCURVE",
"118 338 OFFCURVE",
"118 186 CURVE SMOOTH",
"118 -62 OFFCURVE",
"81 -113 OFFCURVE",
"41 -158 CURVE",
"65 -187 LINE",
"156 -120 OFFCURVE",
"201 0 OFFCURVE",
"201 275 CURVE SMOOTH",
"201 441 OFFCURVE",
"197 600 OFFCURVE",
"204 623 CURVE",
"272 635 LINE",
"276 680 LINE"
);
}
);
width = 316;
}
);
leftKerningGroup = I;
rightKerningGroup = I;
unicode = 004A;
},
{
color = 1;
glyphname = K;
lastChange = "2017-05-20 10:40:11 +0000";
layers = (
{
anchors = (
{
name = bottom;
position = "{391, 0}";
},
{
name = top;
position = "{391, 680}";
}
);
background = {
components = (
{
name = R;
transform = "{1, 0, 0, 1, 49, 0}";
}
);
};
components = (
{
name = _part.stem.cap;
transform = "{1, 0, 0, 1, -182, 0}";
}
);
guideLines = (
{
position = "{-219, 248}";
},
{
angle = 86;
position = "{270, 399}";
},
{
angle = 86;
position = "{660, 350}";
}
);
layerId = "11343128-4963-4E5D-BE9C-B74F53B36FA5";
paths = (
{
closed = 1;
nodes = (
"441 545 OFFCURVE",
"363 460 OFFCURVE",
"290 372 CURVE",
"290 321 LINE",
"382 351 LINE",
"455 444 OFFCURVE",
"561 572 OFFCURVE",
"587 601 CURVE",
"665 615 LINE",
"670 680 LINE",
"413 680 LINE",
"408 615 LINE",
"471 603 LINE"
);
},
{
closed = 1;
nodes = (
"290 321 LINE",
"346 220 OFFCURVE",
"442 69 OFFCURVE",
"491 0 CURVE",
"551 -9 OFFCURVE",
"632 -1 OFFCURVE",
"687 18 CURVE",
"692 78 LINE",
"632 82 LINE",
"559 150 OFFCURVE",
"455 281 OFFCURVE",
"380 381 CURVE"
);
}
);
width = 724;
},
{
anchors = (
{
name = bottom;
position = "{359, 0}";
},
{
name = top;
position = "{359, 680}";
}
);
background = {
components = (
{
name = k;
transform = "{1, 0, 0, 1, 150, 0}";
}
);
};
components = (
{
name = _part.stem.cap;
transform = "{1, 0, 0, 1, -112, 0}";
}
);
guideLines = (
{
position = "{194, 680}";
},
{
angle = 90;
position = "{620, 358}";
},
{
angle = 85;
position = "{698, 231}";
},
{
position = "{1207, 18}";
}
);
layerId = "0B1F8F77-7348-4C28-A663-EA76351238C4";
paths = (
{
closed = 1;
nodes = (
"252 327 LINE",
"339 209 OFFCURVE",
"379 147 OFFCURVE",
"501 -5 CURVE",
"539 -3 OFFCURVE",
"576 5 OFFCURVE",
"621 18 CURVE",
"626 62 LINE",
"565 62 LINE",
"501 129 OFFCURVE",
"442 203 OFFCURVE",
"305 383 CURVE"
);
},
{
closed = 1;
nodes = (
"430 563 OFFCURVE",
"385 508 OFFCURVE",
"252 352 CURVE",
"252 327 LINE",
"312 343 LINE",
"588 680 LINE",
"399 680 LINE",
"395 635 LINE",
"464 624 LINE"
);
},
{
closed = 1;
nodes = (
"515 618 LINE",
"606 635 LINE",
"610 680 LINE",
"532 680 LINE"
);
}
);
width = 626;
}
);
leftKerningGroup = I;
leftMetricsKey = H;
rightKerningGroup = X;
unicode = 004B;
},
{
color = 1;
glyphname = L;
lastChange = "2017-05-20 10:40:11 +0000";
layers = (
{
anchors = (
{
name = bottom;
position = "{365, 0}";
},
{
name = center;
position = "{194, 350}";
},
{
name = top;
position = "{258, 680}";
},
{
name = topright;
position = "{626, 700}";
}
);
background = {
components = (
{
name = E;
transform = "{1, 0, 0, 1, 83, 0}";
}
);
};
components = (
{
name = _part.stem.cap;
transform = "{1, 0, 0, 1, -182, 0}";
}
);
guideLines = (
{
angle = 86;
position = "{602, 399}";
}
);
layerId = "11343128-4963-4E5D-BE9C-B74F53B36FA5";
paths = (
{
closed = 1;
nodes = (
"175 0 LINE",
"562 0 LINE",
"572 99 OFFCURVE",
"578 138 OFFCURVE",
"583 180 CURVE",
"516 188 LINE",
"482 106 LINE",
"441 91 OFFCURVE",
"323 85 OFFCURVE",
"286 91 CURVE",
"191 54 LINE"
);
}
);
width = 591;
},
{
anchors = (
{
name = bottom;
position = "{303, 0}";
},
{
name = center;
position = "{189, 351}";
},
{
name = top;
position = "{192, 680}";
},
{
name = topright;
position = "{564, 700}";
}
);
background = {
paths = (
{
closed = 1;
nodes = (
"545 151 LINE",
"495 156 LINE",
"479 125 OFFCURVE",
"465 93 OFFCURVE",
"451 59 CURVE",
"223 56 LINE",
"225 74 OFFCURVE",
"226 92 OFFCURVE",
"226 110 CURVE SMOOTH",
"226 629 LINE",
"296 640 LINE",
"291 670 LINE",
"71 670 LINE",
"66 640 LINE",
"89 630 OFFCURVE",
"114 621 OFFCURVE",
"141 615 CURVE",
"141 55 LINE",
"114 49 OFFCURVE",
"89 40 OFFCURVE",
"66 30 CURVE",
"66 0 LINE",
"521 0 LINE",
"531 10 LINE"
);
}
);
};
components = (
{
name = _part.stem.cap;
transform = "{1, 0, 0, 1, -112, 0}";
}
);
layerId = "0B1F8F77-7348-4C28-A663-EA76351238C4";
paths = (
{
closed = 1;
nodes = (
"168 0 LINE",
"533 0 LINE",
"538 64 OFFCURVE",
"548 153 OFFCURVE",
"549 159 CURVE",
"511 166 LINE",
"473 72 LINE",
"432 57 OFFCURVE",
"288 49 OFFCURVE",
"251 54 CURVE",
"196 54 LINE"
);
}
);
width = 549;
}
);
leftKerningGroup = I;
leftMetricsKey = H;
rightKerningGroup = L;
unicode = 004C;
},
{
color = 1;
glyphname = M;
lastChange = "2017-05-20 10:40:11 +0000";
layers = (
{
anchors = (
{
name = bottom;
position = "{475, 0}";
},
{
name = top;
position = "{475, 680}";
}
);
background = {
paths = (
{
closed = 1;
nodes = (
"495 43 OFFCURVE",
"510 90 OFFCURVE",
"525 137 CURVE SMOOTH",
"555 230 OFFCURVE",
"583 314 OFFCURVE",
"609 382 CURVE SMOOTH",
"622 416 OFFCURVE",
"631 445 OFFCURVE",
"639 470 CURVE",
"649 470 LINE",
"653 412 OFFCURVE",
"657 358 OFFCURVE",
"659 308 CURVE SMOOTH",
"660 287 OFFCURVE",
"663 266 OFFCURVE",
"664 246 CURVE SMOOTH",
"665 225 OFFCURVE",
"666 206 OFFCURVE",
"667 188 CURVE SMOOTH",
"669 153 OFFCURVE",
"670 125 OFFCURVE",
"670 115 CURVE SMOOTH",
"670 83 OFFCURVE",
"653 68 OFFCURVE",
"612 64 CURVE",
"604 -8 LINE",
"605 -7 OFFCURVE",
"612 -7 OFFCURVE",
"626 -6 CURVE SMOOTH",
"639 -5 OFFCURVE",
"654 -4 OFFCURVE",
"671 -3 CURVE SMOOTH",
"705 -1 OFFCURVE",
"741 0 OFFCURVE",
"758 0 CURVE SMOOTH",
"779 0 OFFCURVE",
"806 0 OFFCURVE",
"827 -2 CURVE SMOOTH",
"840 -3 OFFCURVE",
"852 -3 OFFCURVE",
"865 -3 CURVE",
"875 66 LINE",
"870 72 LINE",
"863 71 OFFCURVE",
"858 70 OFFCURVE",
"850 70 CURVE SMOOTH",
"847 70 OFFCURVE",
"843 70 OFFCURVE",
"840 70 CURVE SMOOTH",
"824 70 OFFCURVE",
"812 76 OFFCURVE",
"805 90 CURVE SMOOTH",
"798 103 OFFCURVE",
"792 128 OFFCURVE",
"789 166 CURVE SMOOTH",
"784 228 OFFCURVE",
"778 315 OFFCURVE",
"773 392 CURVE SMOOTH",
"768 468 OFFCURVE",
"764 534 OFFCURVE",
"764 558 CURVE SMOOTH",
"764 597 OFFCURVE",
"781 610 OFFCURVE",
"841 614 CURVE",
"847 680 LINE",
"843 684 LINE",
"818 681 OFFCURVE",
"794 680 OFFCURVE",
"770 679 CURVE SMOOTH",
"745 678 OFFCURVE",
"727 676 OFFCURVE",
"703 676 CURVE SMOOTH",
"678 676 OFFCURVE",
"655 678 OFFCURVE",
"634 679 CURVE",
"624 679 OFFCURVE",
"614 679 OFFCURVE",
"607 679 CURVE",
"589 621 OFFCURVE",
"571 566 OFFCURVE",
"555 514 CURVE SMOOTH",
"539 462 OFFCURVE",
"523 417 OFFCURVE",
"511 377 CURVE SMOOTH",
"497 331 OFFCURVE",
"482 287 OFFCURVE",
"469 248 CURVE",
"460 248 LINE",
"446 287 OFFCURVE",
"433 331 OFFCURVE",
"419 377 CURVE SMOOTH",
"407 417 OFFCURVE",
"394 463 OFFCURVE",
"378 515 CURVE SMOOTH",
"362 567 OFFCURVE",
"345 622 OFFCURVE",
"329 682 CURVE",
"316 681 OFFCURVE",
"302 681 OFFCURVE",
"288 680 CURVE SMOOTH",
"264 678 OFFCURVE",
"235 678 OFFCURVE",
"214 678 CURVE SMOOTH",
"205 678 OFFCURVE",
"192 678 OFFCURVE",
"177 679 CURVE",
"147 679 OFFCURVE",
"117 680 OFFCURVE",
"80 683 CURVE",
"71 620 LINE",
"76 613 LINE",
"109 610 OFFCURVE",
"128 607 OFFCURVE",
"140 599 CURVE",
"152 591 OFFCURVE",
"155 578 OFFCURVE",
"155 560 CURVE SMOOTH",
"155 555 OFFCURVE",
"154 543 OFFCURVE",
"153 522 CURVE",
"149 480 OFFCURVE",
"144 420 OFFCURVE",
"136 354 CURVE SMOOTH",
"128 286 OFFCURVE",
"123 226 OFFCURVE",
"118 182 CURVE",
"115 160 OFFCURVE",
"114 145 OFFCURVE",
"113 139 CURVE",
"109 85 OFFCURVE",
"91 68 OFFCURVE",
"50 63 CURVE",
"42 -8 LINE",
"54 -7 OFFCURVE",
"67 -5 OFFCURVE",
"79 -4 CURVE",
"100 -1 OFFCURVE",
"128 0 OFFCURVE",
"149 0 CURVE SMOOTH",
"166 0 OFFCURVE",
"196 0 OFFCURVE",
"225 -2 CURVE SMOOTH",
"241 -3 OFFCURVE",
"258 -3 OFFCURVE",
"274 -4 CURVE",
"286 65 LINE",
"280 71 LINE",
"268 70 OFFCURVE",
"262 69 OFFCURVE",
"254 69 CURVE SMOOTH",
"250 69 OFFCURVE",
"247 69 OFFCURVE",
"245 69 CURVE SMOOTH",
"223 69 OFFCURVE",
"211 81 OFFCURVE",
"211 104 CURVE SMOOTH",
"211 107 OFFCURVE",
"211 114 OFFCURVE",
"212 127 CURVE SMOOTH",
"213 139 OFFCURVE",
"214 153 OFFCURVE",
"215 171 CURVE SMOOTH",
"216 189 OFFCURVE",
"217 208 OFFCURVE",
"219 230 CURVE SMOOTH",
"221 251 OFFCURVE",
"221 274 OFFCURVE",
"222 296 CURVE SMOOTH",
"224 347 OFFCURVE",
"228 405 OFFCURVE",
"232 470 CURVE",
"241 470 LINE",
"259 420 OFFCURVE",
"284 351 OFFCURVE",
"311 267 CURVE SMOOTH",
"338 183 OFFCURVE",
"369 86 OFFCURVE",
"402 -16 CURVE",
"479 -7 LINE"
);
}
);
};
guideLines = (
{
position = "{692, 440}";
},
{
angle = 86;
position = "{-9, 200}";
}
);
layerId = "11343128-4963-4E5D-BE9C-B74F53B36FA5";
paths = (
{
closed = 1;
nodes = (
"234 467 LINE",
"286 316 OFFCURVE",
"407 -1 OFFCURVE",
"410 -7 CURVE",
"493 161 LINE",
"486 180 OFFCURVE",
"365 500 OFFCURVE",
"308 680 CURVE",
"285 680 LINE",
"296 680 LINE",
"186 588 LINE"
);
},
{
closed = 1;
nodes = (
"537 146 OFFCURVE",
"611 347 OFFCURVE",
"642 441 CURVE",
"661 179 OFFCURVE",
"663 156 OFFCURVE",
"666 141 CURVE SMOOTH",
"674 102 OFFCURVE",
"688 85 OFFCURVE",
"717 76 CURVE",
"611 66 LINE",
"606 0 LINE",
"889 0 LINE",
"893 66 LINE",
"832 76 LINE",
"802 161 OFFCURVE",
"777 472 OFFCURVE",
"764 603 CURVE",
"842 615 LINE",
"847 680 LINE",
"626 680 LINE",
"558 434 OFFCURVE",
"481 280 OFFCURVE",
"438 146 CURVE",
"420 87 OFFCURVE",
"431 52 OFFCURVE",
"410 -7 CURVE",
"492 3 LINE"
);
},
{
closed = 1;
nodes = (
"206 109 OFFCURVE",
"236 362 OFFCURVE",
"250 521 CURVE",
"261 565 OFFCURVE",
"275 660 OFFCURVE",
"298 680 CURVE",
"90 680 LINE",
"85 615 LINE",
"164 604 LINE",
"137 349 OFFCURVE",
"109 120 OFFCURVE",
"101 77 CURVE",
"29 65 LINE",
"25 0 LINE",
"294 0 LINE",
"299 66 LINE",
"221 75 LINE"
);
}
);
width = 918;
},
{
anchors = (
{
name = bottom;
position = "{479, 0}";
},
{
name = top;
position = "{479, 680}";
}
);
background = {
paths = (
{
closed = 1;
nodes = (
"941 30 LINE",
"867 41 LINE",
"760 626 LINE",
"833 640 LINE",
"828 670 LINE",
"642 670 LINE",
"472 105 LINE",
"468 65 LINE",
"466 65 LINE",
"462 105 LINE",
"294 670 LINE",
"120 670 LINE",
"115 640 LINE",
"135 631 OFFCURVE",
"157 623 OFFCURVE",
"180 617 CURVE",
"70 54 LINE",
"44 48 OFFCURVE",
"19 40 OFFCURVE",
"-3 30 CURVE",
"-3 0 LINE",
"202 0 LINE",
"207 30 LINE",
"135 43 LINE",
"231 575 LINE",
"234 615 LINE",
"236 615 LINE",
"241 575 LINE",
"408 10 LINE",
"509 10 LINE",
"683 575 LINE",
"688 615 LINE",
"690 615 LINE",
"693 575 LINE",
"775 55 LINE",
"749 49 OFFCURVE",
"724 39 OFFCURVE",
"701 29 CURVE",
"701 0 LINE",
"936 0 LINE"
);
}
);
};
guideLines = (
{
angle = 86;
position = "{954, 115}";
}
);
layerId = "0B1F8F77-7348-4C28-A663-EA76351238C4";
paths = (
{
closed = 1;
nodes = (
"262 468 LINE",
"314 317 OFFCURVE",
"420 -1 OFFCURVE",
"423 -7 CURVE",
"477 95 LINE",
"470 114 OFFCURVE",
"333 500 OFFCURVE",
"276 680 CURVE",
"271 675 LINE",
"274 680 LINE",
"218 613 LINE"
);
},
{
closed = 1;
nodes = (
"531 154 OFFCURVE",
"633 456 OFFCURVE",
"659 538 CURVE",
"666 455 OFFCURVE",
"701 144 OFFCURVE",
"706 104 CURVE SMOOTH",
"708 88 OFFCURVE",
"724 66 OFFCURVE",
"753 56 CURVE",
"649 46 LINE",
"645 0 LINE",
"861 0 LINE",
"865 46 LINE",
"806 56 LINE",
"778 141 OFFCURVE",
"774 232 OFFCURVE",
"729 622 CURVE",
"803 635 LINE",
"806 680 LINE",
"643 680 LINE",
"570 434 OFFCURVE",
"514 279 OFFCURVE",
"466 146 CURVE",
"448 87 OFFCURVE",
"444 52 OFFCURVE",
"423 -7 CURVE",
"476 2 LINE"
);
},
{
closed = 1;
nodes = (
"183 89 OFFCURVE",
"221 384 OFFCURVE",
"236 543 CURVE",
"247 598 OFFCURVE",
"253 660 OFFCURVE",
"276 680 CURVE",
"118 680 LINE",
"115 635 LINE",
"184 624 LINE",
"160 369 OFFCURVE",
"126 107 OFFCURVE",
"119 64 CURVE",
"44 45 LINE",
"40 0 LINE",
"257 0 LINE",
"261 46 LINE",
"197 55 LINE"
);
}
);
width = 910;
}
);
leftKerningGroup = A;
rightKerningGroup = A;
unicode = 004D;
},
{
color = 1;
glyphname = N;
lastChange = "2017-05-20 10:40:11 +0000";
layers = (
{
anchors = (
{
name = bottom;
position = "{369, 0}";
},
{
name = top;
position = "{369, 680}";
}
);
background = {
components = (
{
name = I;
transform = "{-1, 0, 0, -1, 345, 700}";
}
);
paths = (
{
closed = 1;
nodes = (
"523 603 OFFCURVE",
"523 514 OFFCURVE",
"523 464 CURVE SMOOTH",
"523 317 OFFCURVE",
"527 159 OFFCURVE",
"513 0 CURVE",
"694 0 LINE",
"699 55 LINE",
"647 65 LINE",
"600 143 OFFCURVE",
"623 528 OFFCURVE",
"630 571 CURVE SMOOTH",
"640 630 OFFCURVE",
"678 642 OFFCURVE",
"704 642 CURVE",
"705 700 LINE",
"451 700 LINE",
"446 642 LINE",
"507 633 LINE"
);
}
);
};
guideLines = (
{
angle = 86;
position = "{705, 230}";
}
);
layerId = "11343128-4963-4E5D-BE9C-B74F53B36FA5";
paths = (
{
closed = 1;
nodes = (
"144 544 LINE",
"159 530 OFFCURVE",
"174 468 OFFCURVE",
"200 445 CURVE SMOOTH",
"236 414 OFFCURVE",
"268 363 OFFCURVE",
"297 330 CURVE SMOOTH",
"429 181 OFFCURVE",
"561 -7 OFFCURVE",
"564 -11 CURVE",
"648 115 LINE",
"629 139 OFFCURVE",
"610 191 OFFCURVE",
"572 223 CURVE SMOOTH",
"538 252 OFFCURVE",
"506 304 OFFCURVE",
"483 333 CURVE SMOOTH",
"395 444 OFFCURVE",
"297 562 OFFCURVE",
"235 680 CURVE",
"227 675 LINE",
"232 680 LINE",
"131 572 LINE"
);
},
{
closed = 1;
nodes = (
"226 102 OFFCURVE",
"220 171 OFFCURVE",
"220 236 CURVE SMOOTH",
"220 363 OFFCURVE",
"219 521 OFFCURVE",
"233 680 CURVE",
"49 680 LINE",
"44 615 LINE",
"102 605 LINE",
"123 579 OFFCURVE",
"124 502 OFFCURVE",
"124 340 CURVE SMOOTH",
"124 268 OFFCURVE",
"120 122 OFFCURVE",
"114 79 CURVE",
"40 65 LINE",
"35 0 LINE",
"304 0 LINE",
"309 66 LINE",
"238 77 LINE"
);
},
{
closed = 1;
nodes = (
"550 580 OFFCURVE",
"555 474 OFFCURVE",
"555 424 CURVE SMOOTH",
"555 73 OFFCURVE",
"558 97 OFFCURVE",
"564 -11 CURVE",
"654 3 LINE",
"650 289 OFFCURVE",
"653 541 OFFCURVE",
"660 603 CURVE",
"738 615 LINE",
"743 680 LINE",
"466 680 LINE",
"461 615 LINE",
"536 606 LINE"
);
}
);
width = 758;
},
{
anchors = (
{
name = bottom;
position = "{368, 0}";
},
{
name = top;
position = "{385, 680}";
}
);
background = {
components = (
{
name = I;
transform = "{-1, 0, 0, -1, 344, 700}";
}
);
paths = (
{
closed = 1;
nodes = (
"522 603 OFFCURVE",
"522 514 OFFCURVE",
"522 464 CURVE SMOOTH",
"522 317 OFFCURVE",
"526 159 OFFCURVE",
"512 0 CURVE",
"693 0 LINE",
"698 55 LINE",
"646 65 LINE",
"599 143 OFFCURVE",
"622 528 OFFCURVE",
"629 571 CURVE SMOOTH",
"639 630 OFFCURVE",
"677 642 OFFCURVE",
"703 642 CURVE",
"704 700 LINE",
"450 700 LINE",
"445 642 LINE",
"506 633 LINE"
);
}
);
};
guideLines = (
{
angle = 85;
position = "{287, 152}";
},
{
angle = 85;
position = "{698, 158}";
}
);
layerId = "0B1F8F77-7348-4C28-A663-EA76351238C4";
paths = (
{
closed = 1;
nodes = (
"172 550 LINE",
"188 537 OFFCURVE",
"211 510 OFFCURVE",
"233 483 CURVE SMOOTH",
"257 454 OFFCURVE",
"285 415 OFFCURVE",
"309 383 CURVE SMOOTH",
"515 107 OFFCURVE",
"580 -5 OFFCURVE",
"583 -9 CURVE",
"603 76 LINE",
"584 100 OFFCURVE",
"624 109 OFFCURVE",
"590 147 CURVE SMOOTH",
"558 182 OFFCURVE",
"505 244 OFFCURVE",
"464 298 CURVE SMOOTH",
"294 522 OFFCURVE",
"275 562 OFFCURVE",
"213 680 CURVE",
"209 675 LINE",
"211 680 LINE",
"150 579 LINE"
);
},
{
closed = 1;
nodes = (
"209 82 OFFCURVE",
"203 160 OFFCURVE",
"203 236 CURVE SMOOTH",
"203 363 OFFCURVE",
"199 521 OFFCURVE",
"213 680 CURVE",
"72 680 LINE",
"68 635 LINE",
"124 626 LINE",
"145 600 OFFCURVE",
"146 479 OFFCURVE",
"146 317 CURVE SMOOTH",
"146 145 OFFCURVE",
"142 103 OFFCURVE",
"137 60 CURVE",
"64 45 LINE",
"60 0 LINE",
"275 0 LINE",
"279 46 LINE",
"221 57 LINE"
);
},
{
closed = 1;
nodes = (
"574 600 OFFCURVE",
"573 534 OFFCURVE",
"573 424 CURVE SMOOTH",
"573 73 OFFCURVE",
"577 99 OFFCURVE",
"583 -9 CURVE",
"632 0 LINE",
"628 286 OFFCURVE",
"635 560 OFFCURVE",
"642 622 CURVE",
"715 635 LINE",
"719 680 LINE",
"501 680 LINE",
"497 635 LINE",
"560 626 LINE"
);
}
);
width = 759;
}
);
leftKerningGroup = I;
rightKerningGroup = I;
unicode = 004E;
},
{
glyphname = Eng;
lastChange = "2017-05-20 10:40:11 +0000";
layers = (
{
anchors = (
{
name = bottom;
position = "{361, 0}";
},
{
name = top;
position = "{361, 700}";
}
);
components = (
{
name = N;
transform = "{1, 0, 0, 1, -14, 0}";
}
);
layerId = "11343128-4963-4E5D-BE9C-B74F53B36FA5";
paths = (
{
closed = 1;
nodes = (
"530 29 LINE",
"611 -103 OFFCURVE",
"461 -172 OFFCURVE",
"351 -99 CURVE",
"329 -105 LINE",
"317 -133 LINE",
"363 -186 OFFCURVE",
"489 -246 OFFCURVE",
"570 -194 CURVE SMOOTH",
"640 -149 OFFCURVE",
"648 -72 OFFCURVE",
"648 4 CURVE"
);
}
);
width = 721;
},
{
anchors = (
{
name = bottom;
position = "{361, 0}";
},
{
name = top;
position = "{361, 700}";
}
);
components = (
{
name = N;
}
);
layerId = "0B1F8F77-7348-4C28-A663-EA76351238C4";
paths = (
{
closed = 1;
nodes = (
"527 49 LINE",
"602 -84 OFFCURVE",
"491 -190 OFFCURVE",
"338 -98 CURVE",
"325 -102 LINE",
"314 -128 LINE",
"348 -167 OFFCURVE",
"467 -234 OFFCURVE",
"553 -188 CURVE SMOOTH",
"622 -151 OFFCURVE",
"614 -64 OFFCURVE",
"612 15 CURVE"
);
}
);
width = 721;
}
);
leftKerningGroup = I;
rightKerningGroup = I;
unicode = 014A;
},
{
color = 1;
glyphname = O;
lastChange = "2017-05-20 10:40:11 +0000";
layers = (
{
anchors = (
{
name = bottom;
position = "{363, 0}";
},
{
name = center;
position = "{363, 350}";
},
{
name = ogonek;
position = "{653, 10}";
},
{
name = top;
position = "{363, 680}";
},
{
name = topleft;
position = "{19, 700}";
},
{
name = topright;
position = "{706, 700}";
}
);
background = {
paths = (
{
closed = 1;
nodes = (
"561 671 OFFCURVE",
"443 705 OFFCURVE",
"300 686 CURVE",
"-7 624 OFFCURVE",
"-69 264 OFFCURVE",
"99 76 CURVE SMOOTH",
"181 -15 OFFCURVE",
"318 -26 OFFCURVE",
"442 2 CURVE",
"711 80 OFFCURVE",
"785 400 OFFCURVE",
"617 603 CURVE SMOOTH"
);
},
{
closed = 1;
nodes = (
"298 74 OFFCURVE",
"216 152 OFFCURVE",
"190 269 CURVE SMOOTH",
"168 368 OFFCURVE",
"177 549 OFFCURVE",
"335 602 CURVE",
"332 614 LINE",
"263 603 LINE",
"264 592 LINE",
"433 603 OFFCURVE",
"509 516 OFFCURVE",
"532 411 CURVE SMOOTH",
"555 306 OFFCURVE",
"545 129 OFFCURVE",
"398 82 CURVE",
"403 68 LINE",
"469 80 LINE",
"464 93 LINE"
);
}
);
};
guideLines = (
{
angle = 90;
position = "{346, 177}";
}
);
layerId = "11343128-4963-4E5D-BE9C-B74F53B36FA5";
paths = (
{
closed = 1;
nodes = (
"567 662 OFFCURVE",
"460 719 OFFCURVE",
"307 692 CURVE SMOOTH",
"7 639 OFFCURVE",
"-42 249 OFFCURVE",
"104 85 CURVE SMOOTH",
"184 -4 OFFCURVE",
"324 -37 OFFCURVE",
"445 -5 CURVE SMOOTH",
"709 65 OFFCURVE",
"771 414 OFFCURVE",
"622 595 CURVE SMOOTH"
);
},
{
closed = 1;
nodes = (
"376 69 OFFCURVE",
"278 97 OFFCURVE",
"225 187 CURVE SMOOTH",
"136 338 OFFCURVE",
"187 554 OFFCURVE",
"341 615 CURVE",
"335 634 LINE",
"287 620 LINE",
"293 601 LINE",
"357 613 OFFCURVE",
"455 584 OFFCURVE",
"507 488 CURVE SMOOTH",
"588 336 OFFCURVE",
"537 137 OFFCURVE",
"385 63 CURVE",
"389 38 LINE",
"441 54 LINE",
"433 80 LINE"
);
}
);
width = 726;
},
{
anchors = (
{
name = bottom;
position = "{370, 0}";
},
{
name = center;
position = "{370, 350}";
},
{
name = ogonek;
position = "{660, 10}";
},
{
name = top;
position = "{370, 680}";
},
{
name = topleft;
position = "{26, 700}";
},
{
name = topright;
position = "{713, 700}";
}
);
background = {
components = (
{
name = D;
transform = "{1, 0, 0, 1, 29, 0}";
}
);
};
guideLines = (
{
angle = 90;
position = "{353, 177}";
},
{
position = "{441, 746}";
},
{
position = "{428, 865}";
}
);
layerId = "0B1F8F77-7348-4C28-A663-EA76351238C4";
paths = (
{
closed = 1;
nodes = (
"543 672 OFFCURVE",
"455 715 OFFCURVE",
"313 688 CURVE SMOOTH",
"3 629 OFFCURVE",
"-2 222 OFFCURVE",
"137 76 CURVE SMOOTH",
"222 -13 OFFCURVE",
"330 -34 OFFCURVE",
"455 0 CURVE SMOOTH",
"728 74 OFFCURVE",
"747 445 OFFCURVE",
"603 605 CURVE SMOOTH"
);
},
{
closed = 1;
nodes = (
"267 15 OFFCURVE",
"182 111 OFFCURVE",
"146 267 CURVE SMOOTH",
"109 430 OFFCURVE",
"176 605 OFFCURVE",
"345 656 CURVE",
"342 666 LINE",
"272 653 LINE",
"273 642 LINE",
"479 664 OFFCURVE",
"569 557 OFFCURVE",
"599 406 CURVE SMOOTH",
"632 241 OFFCURVE",
"556 78 OFFCURVE",
"408 31 CURVE",
"413 16 LINE",
"479 24 LINE",
"475 40 LINE"
);
}
);
width = 742;
}
);
leftKerningGroup = O;
rightKerningGroup = O;
unicode = 004F;
},
{
glyphname = OE;
lastChange = "2017-05-20 10:40:11 +0000";
layers = (
{
anchors = (
{
name = bottom;
position = "{777, 0}";
},
{
name = center;
position = "{777, 350}";
},
{
name = ogonek;
position = "{1067, 10}";
},
{
name = top;
position = "{777, 703}";
},
{
name = topleft;
position = "{433, 700}";
},
{
name = topright;
position = "{1120, 700}";
}
);
background = {
components = (
{
name = E;
transform = "{1, 0, 0, 1, 397, 0}";
},
{
name = O;
transform = "{1, 0, 0, 1, 35, 0}";
}
);
};
layerId = "11343128-4963-4E5D-BE9C-B74F53B36FA5";
paths = (
{
closed = 1;
nodes = (
"601 12 LINE",
"589 115 LINE",
"565 97 OFFCURVE",
"437 86 OFFCURVE",
"386 80 CURVE",
"390 55 LINE",
"442 71 LINE",
"434 82 LINE",
"377 71 OFFCURVE",
"280 111 OFFCURVE",
"236 207 CURVE SMOOTH",
"167 357 OFFCURVE",
"208 541 OFFCURVE",
"351 604 CURVE",
"344 623 LINE",
"296 609 LINE",
"302 590 LINE",
"362 595 OFFCURVE",
"511 582 OFFCURVE",
"572 522 CURVE",
"574 648 LINE",
"481 680 LINE",
"446 681 OFFCURVE",
"376 682 OFFCURVE",
"316 679 CURVE",
"27 617 OFFCURVE",
"-10 269 OFFCURVE",
"111 100 CURVE SMOOTH",
"182 1 OFFCURVE",
"320 -11 OFFCURVE",
"452 0 CURVE SMOOTH"
);
},
{
closed = 1;
nodes = (
"934 197 LINE",
"903 115 LINE",
"865 102 OFFCURVE",
"779 97 OFFCURVE",
"705 98 CURVE",
"683 156 OFFCURVE",
"684 250 OFFCURVE",
"685 310 CURVE",
"850 292 LINE",
"866 398 LINE",
"850 408 LINE",
"797 407 OFFCURVE",
"739 405 OFFCURVE",
"685 402 CURVE",
"686 484 OFFCURVE",
"687 547 OFFCURVE",
"691 585 CURVE",
"774 583 OFFCURVE",
"837 580 OFFCURVE",
"876 574 CURVE",
"894 482 LINE",
"965 492 LINE",
"966 676 LINE",
"951 688 LINE",
"802 678 OFFCURVE",
"752 683 OFFCURVE",
"602 680 CURVE SMOOTH",
"462 680 LINE",
"456 615 LINE",
"524 605 LINE",
"537 580 OFFCURVE",
"539 515 OFFCURVE",
"536 388 CURVE SMOOTH",
"530 166 OFFCURVE",
"530 190 OFFCURVE",
"529 159 CURVE SMOOTH",
"528 123 OFFCURVE",
"546 110 OFFCURVE",
"573 104 CURVE",
"458 66 LINE",
"452 0 LINE",
"776 0 LINE SMOOTH",
"843 0 OFFCURVE",
"853 -1 OFFCURVE",
"977 -4 CURVE",
"999 189 LINE"
);
}
);
width = 996;
},
{
anchors = (
{
name = bottom;
position = "{1108, 0}";
},
{
name = center;
position = "{1108, 350}";
},
{
name = ogonek;
position = "{1398, 10}";
},
{
name = top;
position = "{1108, 703}";
},
{
name = topleft;
position = "{764, 700}";
},
{
name = topright;
position = "{1451, 700}";
}
);
background = {
components = (
{
name = E;
transform = "{1, 0, 0, 1, 748, 0}";
},
{
name = O;
transform = "{1, 0, 0, 1, 331, 0}";
}
);
};
layerId = "0B1F8F77-7348-4C28-A663-EA76351238C4";
paths = (
{
closed = 1;
nodes = (
"173 4 OFFCURVE",
"290 -3 OFFCURVE",
"419 0 CURVE",
"425 50 LINE",
"253 45 OFFCURVE",
"133 139 OFFCURVE",
"102 276 CURVE SMOOTH",
"68 427 OFFCURVE",
"124 565 OFFCURVE",
"270 626 CURVE",
"350 626 OFFCURVE",
"410 616 OFFCURVE",
"455 601 CURVE",
"464 680 LINE",
"410 680 OFFCURVE",
"336 685 OFFCURVE",
"248 671 CURVE",
"-43 599 OFFCURVE",
"-50 238 OFFCURVE",
"85 96 CURVE SMOOTH"
);
},
{
closed = 1;
nodes = (
"842 159 LINE",
"807 70 LINE",
"769 57 OFFCURVE",
"659 52 OFFCURVE",
"581 54 CURVE",
"570 55 LINE",
"541 111 OFFCURVE",
"545 288 OFFCURVE",
"545 334 CURVE SMOOTH",
"545 340 LINE",
"748 323 LINE",
"761 390 LINE",
"749 398 LINE",
"709 396 OFFCURVE",
"586 392 OFFCURVE",
"545 390 CURVE",
"545 514 OFFCURVE",
"547 591 OFFCURVE",
"548 623 CURVE",
"552 624 LINE",
"658 622 OFFCURVE",
"741 618 OFFCURVE",
"787 609 CURVE",
"802 527 LINE",
"848 537 LINE",
"850 689 LINE",
"745 683 OFFCURVE",
"625 680 OFFCURVE",
"509 680 CURVE SMOOTH",
"394 680 LINE",
"390 636 LINE",
"450 626 LINE",
"462 601 OFFCURVE",
"463 515 OFFCURVE",
"463 388 CURVE SMOOTH",
"463 178 OFFCURVE",
"458 145 OFFCURVE",
"458 93 CURVE SMOOTH",
"458 80 OFFCURVE",
"476 61 OFFCURVE",
"502 55 CURVE",
"390 46 LINE",
"386 0 LINE",
"634 0 LINE",
"634 1 LINE",
"709 0 OFFCURVE",
"786 -1 OFFCURVE",
"861 -3 CURVE",
"883 152 LINE"
);
}
);
width = 854;
}
);
unicode = 0152;
},
{
color = 1;
glyphname = P;
lastChange = "2017-05-20 10:40:11 +0000";
layers = (
{
anchors = (
{
name = bottom;
position = "{327, 0}";
},
{
name = top;
position = "{327, 680}";
}
);
background = {
components = (
{
name = R;
transform = "{1, 0, 0, 1, 28, 0}";
}
);
};
components = (
{
name = _part.stem.cap;
transform = "{1, 0, 0, 1, -177, 0}";
piece = {
"BPR?" = 1;
};
}
);
layerId = "11343128-4963-4E5D-BE9C-B74F53B36FA5";
paths = (
{
closed = 1;
nodes = (
"250 274 LINE",
"281 262 OFFCURVE",
"351 261 OFFCURVE",
"386 266 CURVE",
"627 314 OFFCURVE",
"661 575 OFFCURVE",
"486 655 CURVE SMOOTH",
"388 700 OFFCURVE",
"238 689 OFFCURVE",
"75 678 CURVE",
"252 600 LINE",
"454 632 OFFCURVE",
"471 415 OFFCURVE",
"388 361 CURVE",
"363 353 OFFCURVE",
"278 356 OFFCURVE",
"241 373 CURVE"
);
},
{
closed = 1;
nodes = (
"170 0 LINE",
"392 0 LINE",
"398 66 LINE",
"250 83 LINE"
);
}
);
width = 601;
},
{
anchors = (
{
name = bottom;
position = "{309, 0}";
},
{
name = top;
position = "{309, 680}";
}
);
background = {
paths = (
{
closed = 1;
nodes = (
"277 680 OFFCURVE",
"197 670 OFFCURVE",
"136 670 CURVE SMOOTH",
"66 670 LINE",
"61 640 LINE",
"84 630 OFFCURVE",
"109 621 OFFCURVE",
"136 615 CURVE",
"136 55 LINE",
"109 49 OFFCURVE",
"84 40 OFFCURVE",
"61 30 CURVE",
"61 0 LINE",
"326 0 LINE",
"331 30 LINE",
"215 45 LINE",
"219 71 OFFCURVE",
"221 98 OFFCURVE",
"221 130 CURVE SMOOTH",
"221 622 LINE",
"251 624 OFFCURVE",
"282 625 OFFCURVE",
"318 625 CURVE SMOOTH",
"401 625 OFFCURVE",
"471 580 OFFCURVE",
"471 470 CURVE SMOOTH",
"471 402 OFFCURVE",
"447 363 OFFCURVE",
"447 363 CURVE",
"409 340 OFFCURVE",
"366 340 OFFCURVE",
"318 340 CURVE SMOOTH",
"266 340 LINE",
"261 294 LINE",
"286 291 OFFCURVE",
"323 289 OFFCURVE",
"348 289 CURVE SMOOTH",
"460 289 OFFCURVE",
"556 350 OFFCURVE",
"556 480 CURVE SMOOTH",
"556 615 OFFCURVE",
"460 680 OFFCURVE",
"348 680 CURVE SMOOTH"
);
}
);
};
components = (
{
name = _part.stem.cap;
transform = "{1, 0, 0, 1, -112, 0}";
piece = {
"BPR?" = 1;
};
}
);
layerId = "0B1F8F77-7348-4C28-A663-EA76351238C4";
paths = (
{
closed = 1;
nodes = (
"197 299 LINE",
"228 287 OFFCURVE",
"321 288 OFFCURVE",
"356 293 CURVE",
"575 328 OFFCURVE",
"614 595 OFFCURVE",
"430 661 CURVE SMOOTH",
"332 696 OFFCURVE",
"255 687 OFFCURVE",
"74 680 CURVE",
"223 628 LINE",
"464 686 OFFCURVE",
"554 425 OFFCURVE",
"373 342 CURVE",
"324 341 OFFCURVE",
"254 342 OFFCURVE",
"205 357 CURVE"
);
},
{
closed = 1;
nodes = (
"162 0 LINE",
"334 0 LINE",
"339 46 LINE",
"216 60 LINE"
);
}
);
width = 587;
}
);
leftKerningGroup = I;
leftMetricsKey = H;
unicode = 0050;
},
{
glyphname = Thorn;
lastChange = "2017-05-20 10:40:11 +0000";
layers = (
{
anchors = (
{
name = bottom;
position = "{295, 0}";
},
{
name = top;
position = "{295, 700}";
}
);
background = {
paths = (
{
closed = 1;
nodes = (
"222 138 LINE",
"253 127 OFFCURVE",
"312 129 OFFCURVE",
"347 134 CURVE",
"588 179 OFFCURVE",
"637 448 OFFCURVE",
"462 524 CURVE SMOOTH",
"400 551 OFFCURVE",
"314 559 OFFCURVE",
"218 559 CURVE",
"225 476 LINE",
"439 510 OFFCURVE",
"488 288 OFFCURVE",
"359 218 CURVE",
"334 210 OFFCURVE",
"260 217 OFFCURVE",
"223 239 CURVE"
);
},
{
closed = 1;
nodes = (
"43 680 LINE",
"38 625 LINE",
"93 614 LINE",
"105 589 OFFCURVE",
"105 514 OFFCURVE",
"105 387 CURVE SMOOTH",
"105 177 OFFCURVE",
"90 114 OFFCURVE",
"95 98 CURVE SMOOTH",
"99 86 OFFCURVE",
"115 71 OFFCURVE",
"144 65 CURVE",
"37 55 LINE",
"35 0 LINE",
"316 1 LINE",
"321 54 LINE",
"263 64 LINE",
"225 123 OFFCURVE",
"233 287 OFFCURVE",
"233 333 CURVE SMOOTH",
"233 490 OFFCURVE",
"240 569 OFFCURVE",
"253 590 CURVE SMOOTH",
"263 610 OFFCURVE",
"286 623 OFFCURVE",
"309 625 CURVE",
"310 680 LINE"
);
}
);
};
components = (
{
name = _part.stem.cap;
transform = "{1, 0, 0, 1, -170, 0}";
piece = {
"BPR?" = 1;
};
}
);
layerId = "11343128-4963-4E5D-BE9C-B74F53B36FA5";
paths = (
{
closed = 1;
nodes = (
"257 142 LINE",
"288 130 OFFCURVE",
"358 129 OFFCURVE",
"393 134 CURVE",
"634 182 OFFCURVE",
"668 443 OFFCURVE",
"493 523 CURVE SMOOTH",
"419 557 OFFCURVE",
"314 559 OFFCURVE",
"197 553 CURVE",
"259 468 LINE",
"461 500 OFFCURVE",
"478 283 OFFCURVE",
"395 229 CURVE",
"370 221 OFFCURVE",
"285 224 OFFCURVE",
"248 241 CURVE"
);
},
{
closed = 1;
nodes = (
"177 0 LINE",
"394 0 LINE",
"400 66 LINE",
"257 83 LINE"
);
},
{
closed = 1;
nodes = (
"387 613 LINE",
"393 680 LINE",
"174 680 LINE",
"254 596 LINE"
);
}
);
width = 577;
},
{
anchors = (
{
name = bottom;
position = "{295, 0}";
},
{
name = top;
position = "{295, 700}";
}
);
guideLines = (
{
position = "{556, 549}";
}
);
layerId = "0B1F8F77-7348-4C28-A663-EA76351238C4";
paths = (
{
closed = 1;
nodes = (
"173 163 LINE",
"204 151 OFFCURVE",
"297 152 OFFCURVE",
"332 157 CURVE",
"551 192 OFFCURVE",
"590 460 OFFCURVE",
"406 525 CURVE SMOOTH",
"332 551 OFFCURVE",
"270 553 OFFCURVE",
"166 549 CURVE",
"199 492 LINE",
"440 550 OFFCURVE",
"530 289 OFFCURVE",
"349 206 CURVE",
"300 205 OFFCURVE",
"230 206 OFFCURVE",
"181 221 CURVE"
);
},
{
closed = 1;
nodes = (
"130 0 LINE",
"302 0 LINE",
"307 46 LINE",
"184 60 LINE"
);
},
{
closed = 1;
nodes = (
"293 634 LINE",
"298 680 LINE",
"122 680 LINE",
"176 620 LINE"
);
},
{
closed = 1;
nodes = (
"50 680 LINE",
"46 636 LINE",
"105 626 LINE",
"117 601 OFFCURVE",
"118 515 OFFCURVE",
"118 388 CURVE SMOOTH",
"118 178 OFFCURVE",
"113 145 OFFCURVE",
"113 93 CURVE SMOOTH",
"113 80 OFFCURVE",
"131 61 OFFCURVE",
"157 55 CURVE",
"45 46 LINE",
"41 0 LINE",
"290 0 LINE",
"294 46 LINE",
"225 55 LINE",
"196 111 OFFCURVE",
"200 288 OFFCURVE",
"200 334 CURVE SMOOTH",
"200 491 OFFCURVE",
"201 532 OFFCURVE",
"202 569 CURVE SMOOTH",
"203 618 OFFCURVE",
"194 667 OFFCURVE",
"256 669 CURVE",
"282 680 LINE"
);
}
);
width = 589;
}
);
leftKerningGroup = I;
rightKerningGroup = B;
unicode = 00DE;
},
{
color = 1;
glyphname = Q;
lastChange = "2017-05-20 10:40:11 +0000";
layers = (
{
anchors = (
{
name = bottom;
position = "{362, 0}";
},
{
name = top;
position = "{362, 680}";
}
);
components = (
{
name = O;
}
);
layerId = "11343128-4963-4E5D-BE9C-B74F53B36FA5";
paths = (
{
closed = 1;
nodes = (
"365 -49 OFFCURVE",
"540 -195 OFFCURVE",
"634 -211 CURVE",
"749 -115 LINE",
"741 -93 LINE",
"579 -61 OFFCURVE",
"427 10 OFFCURVE",
"367 69 CURVE",
"214 105 LINE"
);
}
);
width = 714;
},
{
anchors = (
{
name = bottom;
position = "{362, 0}";
},
{
name = top;
position = "{362, 680}";
}
);
components = (
{
name = O;
}
);
layerId = "0B1F8F77-7348-4C28-A663-EA76351238C4";
paths = (
{
closed = 1;
nodes = (
"417 -83 OFFCURVE",
"558 -188 OFFCURVE",
"652 -204 CURVE",
"718 -149 LINE",
"711 -132 LINE",
"561 -112 OFFCURVE",
"434 -20 OFFCURVE",
"357 39 CURVE",
"305 49 LINE"
);
}
);
width = 738;
}
);
leftKerningGroup = O;
leftMetricsKey = O;
rightKerningGroup = O;
unicode = 0051;
},
{
color = 1;
glyphname = R;
lastChange = "2017-05-20 10:40:11 +0000";
layers = (
{
anchors = (
{
name = bottom;
position = "{336, 0}";
},
{
name = top;
position = "{310, 680}";
}
);
background = {
components = (
{
name = k;
transform = "{1, 0, 0, 1, 96, 0}";
}
);
};
components = (
{
name = _part.stem.cap;
transform = "{1, 0, 0, 1, -192, 0}";
piece = {
"BPR?" = 1;
};
}
);
layerId = "11343128-4963-4E5D-BE9C-B74F53B36FA5";
paths = (
{
closed = 1;
nodes = (
"242 283 LINE",
"248 280 OFFCURVE",
"321 281 OFFCURVE",
"348 282 CURVE",
"431 291 LINE",
"534 343 OFFCURVE",
"598 425 OFFCURVE",
"570 540 CURVE SMOOTH",
"521 743 OFFCURVE",
"243 684 OFFCURVE",
"45 678 CURVE",
"234 600 LINE",
"431 633 OFFCURVE",
"470 408 OFFCURVE",
"353 363 CURVE",
"330 363 OFFCURVE",
"282 357 OFFCURVE",
"222 382 CURVE"
);
},
{
closed = 1;
nodes = (
"289 332 LINE",
"343 231 OFFCURVE",
"413 69 OFFCURVE",
"457 0 CURVE",
"527 -6 OFFCURVE",
"592 2 OFFCURVE",
"645 21 CURVE",
"648 78 LINE",
"590 83 LINE",
"534 149 OFFCURVE",
"440 273 OFFCURVE",
"408 330 CURVE"
);
}
);
width = 669;
},
{
anchors = (
{
name = bottom;
position = "{339, 0}";
},
{
name = top;
position = "{310, 680}";
}
);
background = {
paths = (
{
closed = 1;
nodes = (
"296 343 LINE",
"357 242 OFFCURVE",
"452 65 OFFCURVE",
"496 -4 CURVE",
"538 -2 OFFCURVE",
"581 5 OFFCURVE",
"623 19 CURVE",
"626 62 LINE",
"566 62 LINE",
"513 133 OFFCURVE",
"371 342 OFFCURVE",
"339 399 CURVE"
);
}
);
};
components = (
{
name = _part.stem.cap;
transform = "{1, 0, 0, 1, -112, 0}";
piece = {
"BPR?" = 1;
};
}
);
layerId = "0B1F8F77-7348-4C28-A663-EA76351238C4";
paths = (
{
closed = 1;
nodes = (
"207 309 LINE",
"213 306 OFFCURVE",
"326 303 OFFCURVE",
"353 304 CURVE",
"411 319 LINE",
"492 338 OFFCURVE",
"568 434 OFFCURVE",
"538 549 CURVE SMOOTH",
"491 727 OFFCURVE",
"257 685 OFFCURVE",
"78 679 CURVE",
"225 630 LINE",
"475 690 OFFCURVE",
"542 426 OFFCURVE",
"376 352 CURVE",
"332 351 OFFCURVE",
"261 351 OFFCURVE",
"217 365 CURVE"
);
},
{
closed = 1;
nodes = (
"310 327 LINE",
"369 226 OFFCURVE",
"453 65 OFFCURVE",
"494 -4 CURVE",
"539 -3 OFFCURVE",
"582 5 OFFCURVE",
"623 18 CURVE",
"626 62 LINE",
"566 62 LINE",
"520 123 OFFCURVE",
"416 269 OFFCURVE",
"377 326 CURVE"
);
}
);
width = 626;
}
);
leftKerningGroup = I;
leftMetricsKey = H;
rightKerningGroup = B;
unicode = 0052;
},
{
color = 1;
glyphname = S;
lastChange = "2017-05-20 10:40:11 +0000";
layers = (
{
anchors = (
{
name = bottom;
position = "{288, 0}";
},
{
name = top;
position = "{280, 680}";
}
);
background = {
paths = (
{
closed = 1;
nodes = (
"61 619 OFFCURVE",
"39 557 OFFCURVE",
"39 497 CURVE SMOOTH",
"39 396 OFFCURVE",
"152 339 OFFCURVE",
"221 306 CURVE SMOOTH",
"326 256 OFFCURVE",
"395 224 OFFCURVE",
"395 146 CURVE SMOOTH",
"395 100 OFFCURVE",
"375 64 OFFCURVE",
"301 38 CURVE",
"244 38 OFFCURVE",
"173 45 OFFCURVE",
"132 92 CURVE",
"119 179 LINE",
"73 169 LINE",
"71 140 OFFCURVE",
"63 69 OFFCURVE",
"60 41 CURVE",
"113 -3 OFFCURVE",
"184 -20 OFFCURVE",
"282 -13 CURVE SMOOTH",
"405 -4 OFFCURVE",
"474 74 OFFCURVE",
"474 163 CURVE SMOOTH",
"474 263 OFFCURVE",
"379 313 OFFCURVE",
"305 351 CURVE SMOOTH",
"188 411 OFFCURVE",
"116 436 OFFCURVE",
"116 525 CURVE SMOOTH",
"116 567 OFFCURVE",
"135 601 OFFCURVE",
"210 637 CURVE",
"315 635 OFFCURVE",
"390 609 OFFCURVE",
"422 565 CURVE",
"425 545 OFFCURVE",
"426 522 OFFCURVE",
"430 494 CURVE",
"444 497 OFFCURVE",
"465 501 OFFCURVE",
"477 504 CURVE",
"481 538 OFFCURVE",
"490 599 OFFCURVE",
"491 611 CURVE",
"413 692 OFFCURVE",
"263 714 OFFCURVE",
"144 658 CURVE SMOOTH"
);
}
);
};
layerId = "0B1F8F77-7348-4C28-A663-EA76351238C4";
paths = (
{
closed = 1;
nodes = (
"489 56 OFFCURVE",
"511 118 OFFCURVE",
"511 178 CURVE SMOOTH",
"511 279 OFFCURVE",
"398 336 OFFCURVE",
"329 369 CURVE SMOOTH",
"224 420 OFFCURVE",
"155 451 OFFCURVE",
"155 529 CURVE SMOOTH",
"155 575 OFFCURVE",
"175 611 OFFCURVE",
"249 637 CURVE",
"306 637 OFFCURVE",
"376 630 OFFCURVE",
"417 583 CURVE",
"430 496 LINE",
"476 506 LINE",
"478 535 OFFCURVE",
"486 606 OFFCURVE",
"489 634 CURVE",
"436 678 OFFCURVE",
"366 695 OFFCURVE",
"268 688 CURVE SMOOTH",
"145 679 OFFCURVE",
"76 601 OFFCURVE",
"76 512 CURVE SMOOTH",
"76 412 OFFCURVE",
"170 360 OFFCURVE",
"244 322 CURVE SMOOTH",
"361 262 OFFCURVE",
"434 239 OFFCURVE",
"434 150 CURVE SMOOTH",
"434 108 OFFCURVE",
"400 64 OFFCURVE",
"341 42 CURVE",
"249 38 OFFCURVE",
"165 55 OFFCURVE",
"133 92 CURVE",
"121 180 LINE",
"74 170 LINE",
"70 136 OFFCURVE",
"61 55 OFFCURVE",
"60 43 CURVE",
"125 -19 OFFCURVE",
"287 -39 OFFCURVE",
"406 17 CURVE SMOOTH"
);
}
);
width = 561;
},
{
anchors = (
{
name = bottom;
position = "{274, 0}";
},
{
name = top;
position = "{274, 680}";
}
);
background = {
components = (
{
name = C;
transform = "{-1, 0, 0, -1, 621, 683}";
}
);
};
layerId = "11343128-4963-4E5D-BE9C-B74F53B36FA5";
paths = (
{
closed = 1;
nodes = (
"489 57 OFFCURVE",
"519 114 OFFCURVE",
"519 208 CURVE SMOOTH",
"519 322 OFFCURVE",
"409 374 OFFCURVE",
"315 418 CURVE SMOOTH",
"262 443 OFFCURVE",
"187 477 OFFCURVE",
"176 521 CURVE SMOOTH",
"167 556 OFFCURVE",
"192 586 OFFCURVE",
"238 599 CURVE",
"295 600 OFFCURVE",
"350 596 OFFCURVE",
"391 546 CURVE",
"408 469 LINE",
"476 482 LINE",
"478 511 OFFCURVE",
"487 611 OFFCURVE",
"490 639 CURVE",
"437 684 OFFCURVE",
"345 706 OFFCURVE",
"247 695 CURVE SMOOTH",
"130 682 OFFCURVE",
"44 613 OFFCURVE",
"44 500 CURVE SMOOTH",
"44 381 OFFCURVE",
"155 317 OFFCURVE",
"231 281 CURVE SMOOTH",
"311 243 OFFCURVE",
"369 209 OFFCURVE",
"382 170 CURVE SMOOTH",
"393 136 OFFCURVE",
"354 97 OFFCURVE",
"300 84 CURVE",
"248 81 OFFCURVE",
"188 80 OFFCURVE",
"138 132 CURVE",
"124 219 LINE",
"51 205 LINE",
"49 171 OFFCURVE",
"45 112 OFFCURVE",
"40 43 CURVE",
"111 -20 OFFCURVE",
"283 -40 OFFCURVE",
"402 16 CURVE SMOOTH"
);
}
);
width = 554;
}
);
unicode = 0053;
},
{
glyphname = Germandbls;
lastChange = "2017-05-20 10:40:11 +0000";
layers = (
{
anchors = (
{
name = bottom;
position = "{352, 0}";
},
{
name = top;
position = "{352, 700}";
}
);
background = {
components = (
{
name = O;
transform = "{1, 0, 0, 1, 1, 0}";
}
);
};
layerId = "11343128-4963-4E5D-BE9C-B74F53B36FA5";
paths = (
{
closed = 1;
nodes = (
"431 -78 OFFCURVE",
"667 -1 OFFCURVE",
"677 184 CURVE SMOOTH",
"686 354 OFFCURVE",
"515 417 OFFCURVE",
"344 372 CURVE",
"319 320 LINE",
"500 320 OFFCURVE",
"553 162 OFFCURVE",
"494 76 CURVE",
"380 77 LINE",
"360 156 LINE",
"296 146 LINE",
"292 39 LINE"
);
},
{
closed = 1;
nodes = (
"546 714 OFFCURVE",
"304 743 OFFCURVE",
"178 645 CURVE SMOOTH",
"119 599 OFFCURVE",
"70 534 OFFCURVE",
"70 375 CURVE SMOOTH",
"70 265 OFFCURVE",
"71 189 OFFCURVE",
"71 114 CURVE",
"71 90 OFFCURVE",
"93 78 OFFCURVE",
"112 75 CURVE",
"26 64 LINE",
"20 0 LINE",
"256 0 LINE",
"263 65 LINE",
"221 74 LINE",
"221 275 OFFCURVE",
"218 345 OFFCURVE",
"218 389 CURVE SMOOTH",
"218 534 OFFCURVE",
"246 577 OFFCURVE",
"275 596 CURVE",
"361 596 OFFCURVE",
"421 562 OFFCURVE",
"444 528 CURVE",
"372 472 OFFCURVE",
"298 414 OFFCURVE",
"275 391 CURVE",
"319 319 LINE",
"372 372 LINE",
"573 522 LINE",
"580 579 LINE"
);
}
);
width = 682;
},
{
anchors = (
{
name = bottom;
position = "{277, 0}";
},
{
name = top;
position = "{277, 700}";
}
);
background = {
anchors = (
{
name = bottom;
position = "{284, 0}";
},
{
name = top;
position = "{284, 708}";
}
);
components = (
{
name = T;
transform = "{-1, 0, 0, -1, 864, 682}";
},
{
name = f;
transform = "{1, 0, 0, 1, -24, -52}";
}
);
};
layerId = "0B1F8F77-7348-4C28-A663-EA76351238C4";
paths = (
{
closed = 1;
nodes = (
"461 -82 OFFCURVE",
"616 53 OFFCURVE",
"614 184 CURVE SMOOTH",
"612 331 OFFCURVE",
"527 410 OFFCURVE",
"309 383 CURVE",
"293 346 LINE",
"546 374 OFFCURVE",
"604 116 OFFCURVE",
"455 36 CURVE",
"351 36 LINE",
"331 117 LINE",
"286 106 LINE",
"282 21 LINE"
);
},
{
closed = 1;
nodes = (
"508 652 OFFCURVE",
"408 730 OFFCURVE",
"252 677 CURVE SMOOTH",
"141 639 OFFCURVE",
"87 534 OFFCURVE",
"87 377 CURVE SMOOTH",
"87 267 OFFCURVE",
"86 179 OFFCURVE",
"86 104 CURVE",
"86 80 OFFCURVE",
"102 57 OFFCURVE",
"126 55 CURVE",
"18 45 LINE",
"15 0 LINE",
"237 0 LINE",
"243 44 LINE",
"183 55 LINE",
"155 131 OFFCURVE",
"162 158 OFFCURVE",
"162 361 CURVE SMOOTH",
"162 552 OFFCURVE",
"201 598 OFFCURVE",
"254 633 CURVE",
"364 647 OFFCURVE",
"438 594 OFFCURVE",
"455 535 CURVE",
"353 448 OFFCURVE",
"323 429 OFFCURVE",
"269 383 CURVE",
"293 346 LINE",
"328 374 LINE",
"525 532 LINE",
"532 575 LINE"
);
}
);
width = 629;
}
);
rightKerningGroup = B;
unicode = 1E9E;
},
{
color = 1;
glyphname = T;
lastChange = "2017-05-20 10:40:11 +0000";
layers = (
{
anchors = (
{
name = bottom;
position = "{299, 0}";
},
{
name = center;
position = "{293, 350}";
},
{
name = top;
position = "{299, 680}";
}
);
components = (
{
name = _part.stem.cap;
transform = "{1, 0, 0, 1, -82, 0}";
}
);
layerId = "11343128-4963-4E5D-BE9C-B74F53B36FA5";
paths = (
{
closed = 1;
nodes = (
"410 595 OFFCURVE",
"463 592 OFFCURVE",
"503 585 CURVE",
"523 499 LINE",
"590 509 LINE",
"593 689 LINE",
"423 679 OFFCURVE",
"195 678 OFFCURVE",
"10 688 CURVE",
"10 509 LINE",
"79 499 LINE",
"87 535 OFFCURVE",
"90 559 OFFCURVE",
"98 589 CURVE",
"133 594 OFFCURVE",
"185 596 OFFCURVE",
"242 595 CURVE",
"375 594 LINE"
);
}
);
width = 603;
},
{
anchors = (
{
name = bottom;
position = "{273, 0}";
},
{
name = center;
position = "{273, 350}";
},
{
name = top;
position = "{273, 680}";
}
);
background = {
components = (
{
name = F;
transform = "{-1, 0, 0, 1, 489, 0}";
}
);
};
components = (
{
name = _part.stem.cap;
transform = "{1, 0, 0, 1, -23, 0}";
}
);
guideLines = (
{
angle = 85;
position = "{-17, 348}";
}
);
layerId = "0B1F8F77-7348-4C28-A663-EA76351238C4";
paths = (
{
closed = 1;
nodes = (
"360 625 OFFCURVE",
"431 619 OFFCURVE",
"490 611 CURVE",
"505 533 LINE",
"551 539 LINE",
"553 687 LINE",
"362 676 OFFCURVE",
"182 677 OFFCURVE",
"1 687 CURVE",
"0 538 LINE",
"49 532 LINE",
"56 575 OFFCURVE",
"58 586 OFFCURVE",
"64 612 CURVE",
"85 620 OFFCURVE",
"140 621 OFFCURVE",
"205 624 CURVE",
"325 624 LINE"
);
}
);
width = 553;
}
);
leftKerningGroup = T;
rightKerningGroup = T;
unicode = 0054;
},
{
color = 1;
glyphname = U;
lastChange = "2017-05-20 10:40:11 +0000";
layers = (
{
anchors = (
{
name = bottom;
position = "{359, 0}";
},
{
name = ogonek;
position = "{499, 10}";
},
{
name = top;
position = "{366, 680}";
},
{
name = topright;
position = "{689, 700}";
}
);
guideLines = (
{
angle = 86;
position = "{733, 233}";
},
{
angle = 86;
position = "{6, 527}";
}
);
layerId = "11343128-4963-4E5D-BE9C-B74F53B36FA5";
paths = (
{
closed = 1;
nodes = (
"442 616 LINE",
"526 605 LINE",
"540 577 OFFCURVE",
"539 480 OFFCURVE",
"538 304 CURVE SMOOTH",
"537 169 OFFCURVE",
"484 117 OFFCURVE",
"447 91 CURVE",
"306 73 OFFCURVE",
"246 155 OFFCURVE",
"246 301 CURVE SMOOTH",
"246 368 OFFCURVE",
"249 459 OFFCURVE",
"249 574 CURVE SMOOTH",
"249 591 OFFCURVE",
"223 604 OFFCURVE",
"209 606 CURVE",
"247 610 OFFCURVE",
"285 613 OFFCURVE",
"310 615 CURVE",
"315 679 LINE",
"20 679 LINE",
"15 616 LINE",
"79 608 LINE",
"91 573 OFFCURVE",
"85 374 OFFCURVE",
"85 265 CURVE SMOOTH",
"85 184 OFFCURVE",
"110 114 OFFCURVE",
"144 69 CURVE SMOOTH",
"209 -17 OFFCURVE",
"384 -45 OFFCURVE",
"486 2 CURVE SMOOTH",
"569 40 OFFCURVE",
"640 125 OFFCURVE",
"640 272 CURVE SMOOTH",
"640 409 OFFCURVE",
"642 537 OFFCURVE",
"646 604 CURVE",
"712 615 LINE",
"717 680 LINE",
"446 680 LINE"
);
}
);
width = 732;
},
{
anchors = (
{
name = bottom;
position = "{365, 0}";
},
{
name = ogonek;
position = "{505, 10}";
},
{
name = top;
position = "{376, 680}";
},
{
name = topright;
position = "{695, 700}";
}
);
background = {
paths = (
{
closed = 1;
nodes = (
"508 636 LINE",
"572 626 LINE",
"586 598 OFFCURVE",
"582 486 OFFCURVE",
"582 304 CURVE SMOOTH",
"582 154 OFFCURVE",
"536 78 OFFCURVE",
"455 49 CURVE",
"295 40 OFFCURVE",
"227 114 OFFCURVE",
"227 253 CURVE SMOOTH",
"227 318 OFFCURVE",
"229 537 OFFCURVE",
"229 591 CURVE SMOOTH",
"229 613 OFFCURVE",
"196 625 OFFCURVE",
"186 627 CURVE",
"224 629 OFFCURVE",
"265 635 OFFCURVE",
"287 636 CURVE",
"291 679 LINE",
"69 680 LINE",
"65 636 LINE",
"130 625 LINE",
"142 590 OFFCURVE",
"137 374 OFFCURVE",
"137 265 CURVE SMOOTH",
"137 184 OFFCURVE",
"153 109 OFFCURVE",
"187 64 CURVE SMOOTH",
"252 -23 OFFCURVE",
"394 -38 OFFCURVE",
"496 2 CURVE SMOOTH",
"590 39 OFFCURVE",
"644 138 OFFCURVE",
"644 281 CURVE SMOOTH",
"644 418 OFFCURVE",
"644 555 OFFCURVE",
"645 622 CURVE",
"715 636 LINE",
"718 680 LINE",
"512 680 LINE"
);
}
);
};
guideLines = (
{
angle = 85;
position = "{478, 371}";
}
);
layerId = "0B1F8F77-7348-4C28-A663-EA76351238C4";
paths = (
{
closed = 1;
nodes = (
"493 636 LINE",
"571 626 LINE",
"585 598 OFFCURVE",
"581 486 OFFCURVE",
"581 304 CURVE SMOOTH",
"581 154 OFFCURVE",
"538 78 OFFCURVE",
"457 49 CURVE",
"297 40 OFFCURVE",
"227 114 OFFCURVE",
"227 253 CURVE SMOOTH",
"227 318 OFFCURVE",
"229 537 OFFCURVE",
"229 591 CURVE SMOOTH",
"229 613 OFFCURVE",
"196 625 OFFCURVE",
"186 627 CURVE",
"224 629 OFFCURVE",
"271 635 OFFCURVE",
"293 636 CURVE",
"297 679 LINE",
"69 680 LINE",
"65 636 LINE",
"130 625 LINE",
"142 590 OFFCURVE",
"137 374 OFFCURVE",
"137 265 CURVE SMOOTH",
"137 184 OFFCURVE",
"153 109 OFFCURVE",
"187 64 CURVE SMOOTH",
"252 -23 OFFCURVE",
"394 -38 OFFCURVE",
"496 2 CURVE SMOOTH",
"590 39 OFFCURVE",
"644 138 OFFCURVE",
"644 281 CURVE SMOOTH",
"644 418 OFFCURVE",
"644 555 OFFCURVE",
"645 622 CURVE",
"711 636 LINE",
"714 680 LINE",
"497 680 LINE"
);
}
);
width = 754;
}
);
leftMetricsKey = H;
rightKerningGroup = U;
unicode = 0055;
},
{
color = 1;
glyphname = V;
lastChange = "2017-05-20 10:40:11 +0000";
layers = (
{
anchors = (
{
name = bottom;
position = "{368, 0}";
},
{
name = top;
position = "{368, 680}";
}
);
background = {
paths = (
{
closed = 1;
nodes = (
"100 576 OFFCURVE",
"112 492 OFFCURVE",
"105 414 CURVE",
"231 430 LINE",
"235 539 OFFCURVE",
"244 589 OFFCURVE",
"242 605 CURVE SMOOTH",
"241 613 OFFCURVE",
"235 627 OFFCURVE",
"203 639 CURVE",
"298 645 LINE",
"298 700 LINE",
"33 700 LINE",
"27 645 LINE",
"84 635 LINE"
);
}
);
};
layerId = "11343128-4963-4E5D-BE9C-B74F53B36FA5";
paths = (
{
closed = 1;
nodes = (
"397 117 LINE",
"377 189 OFFCURVE",
"244 561 OFFCURVE",
"241 571 CURVE SMOOTH",
"234 593 OFFCURVE",
"210 604 OFFCURVE",
"188 606 CURVE",
"285 615 LINE",
"290 680 LINE",
"-5 680 LINE",
"-10 615 LINE",
"56 605 LINE",
"72 573 OFFCURVE",
"128 442 OFFCURVE",
"170 321 CURVE SMOOTH",
"209 209 OFFCURVE",
"268 65 OFFCURVE",
"290 -8 CURVE"
);
},
{
closed = 1;
nodes = (
"534 574 OFFCURVE",
"493 463 OFFCURVE",
"477 412 CURVE SMOOTH",
"369 66 OFFCURVE",
"313 36 OFFCURVE",
"290 -8 CURVE",
"432 4 LINE",
"528 274 OFFCURVE",
"605 496 OFFCURVE",
"651 598 CURVE",
"719 615 LINE",
"724 680 LINE",
"454 680 LINE",
"449 615 LINE",
"525 606 LINE"
);
}
);
width = 724;
},
{
anchors = (
{
name = bottom;
position = "{324, 0}";
},
{
name = top;
position = "{324, 680}";
}
);
background = {
paths = (
{
closed = 1;
nodes = (
"602 627 LINE",
"678 640 LINE",
"673 670 LINE",
"458 670 LINE",
"458 640 LINE",
"480 631 OFFCURVE",
"503 622 OFFCURVE",
"529 616 CURVE",
"342 95 LINE",
"338 45 LINE",
"336 45 LINE",
"332 95 LINE",
"146 628 LINE",
"223 640 LINE",
"218 670 LINE",
"-12 670 LINE",
"-17 640 LINE",
"6 630 OFFCURVE",
"30 621 OFFCURVE",
"57 615 CURVE",
"291 0 LINE",
"366 0 LINE"
);
}
);
};
guideLines = (
{
angle = 85;
position = "{423, 503}";
}
);
layerId = "0B1F8F77-7348-4C28-A663-EA76351238C4";
paths = (
{
closed = 1;
nodes = (
"348 71 LINE",
"276 281 OFFCURVE",
"167 581 OFFCURVE",
"164 591 CURVE SMOOTH",
"157 613 OFFCURVE",
"136 624 OFFCURVE",
"114 626 CURVE",
"211 635 LINE",
"215 680 LINE",
"4 680 LINE",
"0 635 LINE",
"55 625 LINE",
"71 593 OFFCURVE",
"128 442 OFFCURVE",
"171 321 CURVE SMOOTH",
"211 209 OFFCURVE",
"268 63 OFFCURVE",
"296 -7 CURVE"
);
},
{
closed = 1;
nodes = (
"522 594 OFFCURVE",
"473 462 OFFCURVE",
"457 412 CURVE SMOOTH",
"387 199 OFFCURVE",
"319 37 OFFCURVE",
"296 -7 CURVE",
"366 4 LINE",
"464 268 OFFCURVE",
"555 518 OFFCURVE",
"593 622 CURVE",
"656 635 LINE",
"660 680 LINE",
"441 680 LINE",
"436 635 LINE",
"513 626 LINE"
);
}
);
width = 660;
}
);
leftKerningGroup = V;
rightKerningGroup = V;
unicode = 0056;
},
{
color = 1;
glyphname = W;
lastChange = "2017-05-20 10:40:11 +0000";
layers = (
{
anchors = (
{
name = bottom;
position = "{491, 0}";
},
{
name = top;
position = "{491, 680}";
}
);
background = {
components = (
{
name = M;
transform = "{-1, 0, 0, -1, 954, 681}";
}
);
};
guideLines = (
{
position = "{1425, 194}";
},
{
angle = 70;
position = "{796, 288}";
}
);
layerId = "11343128-4963-4E5D-BE9C-B74F53B36FA5";
paths = (
{
closed = 1;
nodes = (
"353 125 LINE",
"333 197 OFFCURVE",
"232 537 OFFCURVE",
"229 547 CURVE SMOOTH",
"223 568 OFFCURVE",
"207 598 OFFCURVE",
"180 606 CURVE",
"275 615 LINE",
"279 680 LINE",
"-5 680 LINE",
"-10 615 LINE",
"42 605 LINE",
"59 572 OFFCURVE",
"105 441 OFFCURVE",
"143 321 CURVE SMOOTH",
"178 209 OFFCURVE",
"230 35 OFFCURVE",
"244 -9 CURVE"
);
},
{
closed = 1;
nodes = (
"444 595 OFFCURVE",
"408 463 OFFCURVE",
"391 412 CURVE SMOOTH",
"276 67 OFFCURVE",
"268 35 OFFCURVE",
"244 -9 CURVE",
"355 6 LINE",
"436 276 OFFCURVE",
"493 501 OFFCURVE",
"513 548 CURVE",
"437 627 LINE"
);
},
{
closed = 1;
nodes = (
"707 89 LINE",
"691 161 OFFCURVE",
"563 589 OFFCURVE",
"561 599 CURVE",
"650 615 LINE",
"655 680 LINE",
"331 680 LINE",
"326 615 LINE",
"403 605 LINE",
"417 573 OFFCURVE",
"457 441 OFFCURVE",
"499 321 CURVE SMOOTH",
"538 210 OFFCURVE",
"584 37 OFFCURVE",
"599 -7 CURVE"
);
},
{
closed = 1;
nodes = (
"787 577 OFFCURVE",
"756 465 OFFCURVE",
"741 412 CURVE SMOOTH",
"641 64 OFFCURVE",
"642 47 OFFCURVE",
"599 -7 CURVE",
"714 7 LINE",
"827 407 OFFCURVE",
"893 553 OFFCURVE",
"911 601 CURVE",
"966 615 LINE",
"971 680 LINE",
"708 680 LINE",
"703 615 LINE",
"778 606 LINE"
);
}
);
width = 971;
},
{
anchors = (
{
name = bottom;
position = "{484, 0}";
},
{
name = top;
position = "{484, 680}";
}
);
background = {
paths = (
{
closed = 1;
nodes = (
"920 627 LINE",
"995 640 LINE",
"990 670 LINE",
"779 670 LINE",
"774 640 LINE",
"796 630 OFFCURVE",
"820 622 OFFCURVE",
"845 616 CURVE",
"696 95 LINE",
"692 55 LINE",
"690 55 LINE",
"686 95 LINE",
"540 660 LINE",
"445 660 LINE",
"301 95 LINE",
"297 55 LINE",
"295 55 LINE",
"291 95 LINE",
"140 628 LINE",
"220 640 LINE",
"215 670 LINE",
"-15 670 LINE",
"-20 640 LINE",
"3 630 OFFCURVE",
"27 621 OFFCURVE",
"54 615 CURVE",
"240 0 LINE",
"339 0 LINE",
"480 545 LINE",
"484 585 LINE",
"486 585 LINE",
"490 545 LINE",
"636 0 LINE",
"725 0 LINE"
);
}
);
};
guideLines = (
{
position = "{1418, 194}";
},
{
position = "{453, 130}";
}
);
layerId = "0B1F8F77-7348-4C28-A663-EA76351238C4";
paths = (
{
closed = 1;
nodes = (
"309 119 LINE",
"288 192 OFFCURVE",
"168 582 OFFCURVE",
"164 592 CURVE SMOOTH",
"158 606 OFFCURVE",
"146 618 OFFCURVE",
"119 626 CURVE",
"230 636 LINE",
"234 680 LINE",
"4 680 LINE",
"0 636 LINE",
"57 626 LINE",
"74 594 OFFCURVE",
"122 442 OFFCURVE",
"163 321 CURVE SMOOTH",
"201 209 OFFCURVE",
"248 37 OFFCURVE",
"263 -7 CURVE"
);
},
{
closed = 1;
nodes = (
"456 574 OFFCURVE",
"411 435 OFFCURVE",
"394 382 CURVE SMOOTH",
"305 99 OFFCURVE",
"273 33 OFFCURVE",
"263 -7 CURVE",
"325 7 LINE",
"412 277 OFFCURVE",
"470 453 OFFCURVE",
"484 510 CURVE",
"449 606 LINE"
);
},
{
closed = 1;
nodes = (
"672 109 LINE",
"650 181 OFFCURVE",
"516 579 OFFCURVE",
"504 622 CURVE",
"594 635 LINE",
"598 680 LINE",
"351 680 LINE",
"347 635 LINE",
"418 625 LINE",
"433 593 OFFCURVE",
"477 439 OFFCURVE",
"519 321 CURVE SMOOTH",
"568 184 OFFCURVE",
"613 39 OFFCURVE",
"629 -5 CURVE"
);
},
{
closed = 1;
nodes = (
"802 594 OFFCURVE",
"769 464 OFFCURVE",
"754 412 CURVE SMOOTH",
"653 69 OFFCURVE",
"640 37 OFFCURVE",
"628 -5 CURVE",
"691 9 LINE",
"800 384 OFFCURVE",
"857 577 OFFCURVE",
"878 624 CURVE",
"939 635 LINE",
"943 680 LINE",
"713 680 LINE",
"709 635 LINE",
"793 626 LINE"
);
}
);
width = 943;
}
);
leftKerningGroup = V;
rightKerningGroup = V;
unicode = 0057;
},
{
color = 1;
glyphname = X;
lastChange = "2017-05-20 10:40:11 +0000";
layers = (
{
anchors = (
{
name = bottom;
position = "{350, 0}";
},
{
name = top;
position = "{350, 680}";
}
);
background = {
paths = (
{
closed = 1;
nodes = (
"308 328 LINE",
"377 214 OFFCURVE",
"396 181 OFFCURVE",
"423 137 CURVE SMOOTH",
"447 98 OFFCURVE",
"471 77 OFFCURVE",
"491 74 CURVE",
"379 64 LINE",
"371 0 LINE",
"706 0 LINE",
"712 66 LINE",
"641 77 LINE",
"571 175 OFFCURVE",
"520 246 OFFCURVE",
"439 367 CURVE"
);
},
{
closed = 1;
nodes = (
"439 531 OFFCURVE",
"376 428 OFFCURVE",
"323 352 CURVE",
"422 327 LINE",
"483 420 OFFCURVE",
"561 530 OFFCURVE",
"586 561 CURVE SMOOTH",
"606 585 OFFCURVE",
"641 615 OFFCURVE",
"683 615 CURVE",
"690 680 LINE",
"406 680 LINE",
"397 615 LINE",
"478 605 LINE"
);
},
{
closed = 1;
nodes = (
"266 132 OFFCURVE",
"353 280 OFFCURVE",
"383 326 CURVE",
"290 363 LINE",
"237 275 OFFCURVE",
"144 146 OFFCURVE",
"107 110 CURVE SMOOTH",
"81 85 OFFCURVE",
"39 65 OFFCURVE",
"12 65 CURVE",
"5 0 LINE",
"295 0 LINE",
"303 65 LINE",
"237 74 LINE"
);
},
{
closed = 1;
nodes = (
"426 341 LINE",
"372 418 OFFCURVE",
"316 503 OFFCURVE",
"283 557 CURVE SMOOTH",
"262 591 OFFCURVE",
"281 614 OFFCURVE",
"325 615 CURVE",
"334 680 LINE",
"19 680 LINE",
"11 615 LINE",
"77 605 LINE",
"136 526 OFFCURVE",
"236 375 OFFCURVE",
"280 318 CURVE"
);
}
);
};
guideLines = (
{
angle = 56;
position = "{334, 360}";
},
{
angle = 86;
position = "{322, 461}";
}
);
layerId = "11343128-4963-4E5D-BE9C-B74F53B36FA5";
paths = (
{
closed = 1;
nodes = (
"308 328 LINE",
"377 214 OFFCURVE",
"396 181 OFFCURVE",
"423 137 CURVE SMOOTH",
"447 98 OFFCURVE",
"471 77 OFFCURVE",
"491 74 CURVE",
"375 64 LINE",
"371 0 LINE",
"708 0 LINE",
"712 66 LINE",
"641 77 LINE",
"571 175 OFFCURVE",
"520 246 OFFCURVE",
"439 367 CURVE"
);
},
{
closed = 1;
nodes = (
"439 531 OFFCURVE",
"376 428 OFFCURVE",
"323 352 CURVE",
"422 327 LINE",
"483 420 OFFCURVE",
"590 573 OFFCURVE",
"615 604 CURVE",
"685 617 LINE",
"690 680 LINE",
"402 680 LINE",
"397 615 LINE",
"478 605 LINE"
);
},
{
closed = 1;
nodes = (
"266 132 OFFCURVE",
"353 280 OFFCURVE",
"383 326 CURVE",
"290 363 LINE",
"237 275 OFFCURVE",
"119 111 OFFCURVE",
"82 75 CURVE",
"9 65 LINE",
"5 0 LINE",
"295 0 LINE",
"300 65 LINE",
"237 74 LINE"
);
},
{
closed = 1;
nodes = (
"426 341 LINE",
"372 418 OFFCURVE",
"285 551 OFFCURVE",
"252 605 CURVE",
"330 615 LINE",
"334 680 LINE",
"19 680 LINE",
"14 615 LINE",
"78 605 LINE",
"137 526 OFFCURVE",
"236 375 OFFCURVE",
"280 318 CURVE"
);
}
);
width = 702;
},
{
anchors = (
{
name = bottom;
position = "{324, 0}";
},
{
name = top;
position = "{324, 680}";
}
);
background = {
paths = (
{
closed = 1;
nodes = (
"458 567 OFFCURVE",
"357 400 OFFCURVE",
"327 354 CURVE",
"370 317 LINE",
"423 405 OFFCURVE",
"520 553 OFFCURVE",
"557 589 CURVE SMOOTH",
"583 614 OFFCURVE",
"624 634 OFFCURVE",
"651 634 CURVE",
"655 680 LINE",
"415 680 LINE",
"410 634 LINE",
"487 625 LINE"
);
}
);
};
guideLines = (
{
angle = 90;
position = "{-26, 134}";
},
{
angle = 56;
position = "{308, 360}";
}
);
layerId = "0B1F8F77-7348-4C28-A663-EA76351238C4";
paths = (
{
closed = 1;
nodes = (
"309 328 LINE",
"378 214 OFFCURVE",
"414 163 OFFCURVE",
"441 119 CURVE SMOOTH",
"465 80 OFFCURVE",
"489 59 OFFCURVE",
"509 56 CURVE",
"399 45 LINE",
"395 0 LINE",
"653 0 LINE",
"657 45 LINE",
"590 56 LINE",
"520 154 OFFCURVE",
"463 232 OFFCURVE",
"382 353 CURVE"
);
},
{
closed = 1;
nodes = (
"454 551 OFFCURVE",
"381 428 OFFCURVE",
"328 352 CURVE",
"377 327 LINE",
"438 420 OFFCURVE",
"546 593 OFFCURVE",
"571 624 CURVE",
"642 635 LINE",
"646 680 LINE",
"411 680 LINE",
"406 635 LINE",
"493 625 LINE"
);
},
{
closed = 1;
nodes = (
"197 113 OFFCURVE",
"298 280 OFFCURVE",
"328 326 CURVE",
"285 363 LINE",
"232 275 OFFCURVE",
"117 94 OFFCURVE",
"80 58 CURVE",
"4 45 LINE",
"0 0 LINE",
"241 0 LINE",
"245 46 LINE",
"168 55 LINE"
);
},
{
closed = 1;
nodes = (
"371 341 LINE",
"317 418 OFFCURVE",
"219 570 OFFCURVE",
"186 624 CURVE",
"273 635 LINE",
"277 680 LINE",
"19 680 LINE",
"14 635 LINE",
"79 625 LINE",
"138 546 OFFCURVE",
"251 375 OFFCURVE",
"295 318 CURVE"
);
}
);
width = 657;
}
);
leftKerningGroup = X;
rightKerningGroup = X;
unicode = 0058;
},
{
color = 1;
glyphname = Y;
lastChange = "2017-05-20 10:40:11 +0000";
layers = (
{
anchors = (
{
name = bottom;
position = "{315, 0}";
},
{
name = top;
position = "{326, 680}";
},
{
name = topleft;
position = "{-5, 700}";
}
);
annotations = (
{
position = "{-186, 798}";
text = "82";
type = Text;
},
{
position = "{224, -14}";
text = "This Serif!";
type = Text;
width = 83;
}
);
guideLines = (
{
position = "{233, 273}";
},
{
angle = 86;
position = "{9, 459}";
}
);
layerId = "11343128-4963-4E5D-BE9C-B74F53B36FA5";
paths = (
{
closed = 1;
nodes = (
"430 548 OFFCURVE",
"363 375 OFFCURVE",
"285 258 CURVE",
"358 202 LINE",
"398 295 OFFCURVE",
"539 570 OFFCURVE",
"561 603 CURVE",
"635 615 LINE",
"639 680 LINE",
"372 680 LINE",
"367 615 LINE",
"452 606 LINE"
);
},
{
closed = 1;
nodes = (
"363 328 LINE",
"315 418 OFFCURVE",
"225 586 OFFCURVE",
"217 606 CURVE",
"287 617 LINE",
"292 680 LINE",
"0 680 LINE",
"-6 616 LINE",
"53 605 LINE",
"171 404 OFFCURVE",
"220 327 OFFCURVE",
"276 214 CURVE"
);
},
{
closed = 1;
nodes = (
"390 117 OFFCURVE",
"389 232 OFFCURVE",
"390 310 CURVE",
"240 294 LINE",
"235 185 OFFCURVE",
"234 203 OFFCURVE",
"234 123 CURVE SMOOTH",
"234 103 OFFCURVE",
"248 85 OFFCURVE",
"277 76 CURVE",
"159 66 LINE",
"155 0 LINE",
"487 0 LINE",
"493 66 LINE",
"420 76 LINE"
);
}
);
width = 642;
},
{
anchors = (
{
name = bottom;
position = "{308, 0}";
},
{
name = top;
position = "{319, 680}";
},
{
name = topleft;
position = "{-12, 700}";
}
);
annotations = (
{
position = "{-186, 798}";
text = "82";
type = Text;
},
{
position = "{224, -14}";
text = "This Serif!";
type = Text;
width = 83;
}
);
background = {
paths = (
{
closed = 1;
nodes = (
"357 93 OFFCURVE",
"356 121 OFFCURVE",
"356 150 CURVE SMOOTH",
"356 254 LINE",
"416 379 OFFCURVE",
"466 478 OFFCURVE",
"542 610 CURVE",
"574 613 OFFCURVE",
"604 620 OFFCURVE",
"624 629 CURVE",
"624 645 OFFCURVE",
"621 669 OFFCURVE",
"616 678 CURVE",
"587 675 OFFCURVE",
"542 674 OFFCURVE",
"509 674 CURVE SMOOTH",
"464 674 OFFCURVE",
"435 678 OFFCURVE",
"390 678 CURVE",
"385 669 OFFCURVE",
"382 646 OFFCURVE",
"382 629 CURVE",
"413 626 OFFCURVE",
"448 617 OFFCURVE",
"470 610 CURVE",
"418 519 OFFCURVE",
"366 421 OFFCURVE",
"314 315 CURVE",
"291 381 LINE",
"250 457 OFFCURVE",
"200 544 OFFCURVE",
"159 610 CURVE",
"191 613 OFFCURVE",
"224 620 OFFCURVE",
"246 629 CURVE",
"246 645 OFFCURVE",
"244 669 OFFCURVE",
"239 678 CURVE",
"210 676 OFFCURVE",
"148 674 OFFCURVE",
"116 674 CURVE SMOOTH",
"71 674 OFFCURVE",
"28 678 OFFCURVE",
"-15 678 CURVE",
"-20 669 OFFCURVE",
"-22 646 OFFCURVE",
"-22 629 CURVE",
"6 626 OFFCURVE",
"35 617 OFFCURVE",
"54 610 CURVE",
"127 490 OFFCURVE",
"202 360 OFFCURVE",
"266 236 CURVE",
"266 128 LINE SMOOTH",
"266 106 OFFCURVE",
"265 91 OFFCURVE",
"261 67 CURVE",
"240 60 OFFCURVE",
"197 50 OFFCURVE",
"166 47 CURVE",
"166 30 OFFCURVE",
"169 6 OFFCURVE",
"174 -3 CURVE",
"219 -3 OFFCURVE",
"265 3 OFFCURVE",
"310 3 CURVE SMOOTH",
"343 3 OFFCURVE",
"412 0 OFFCURVE",
"441 -3 CURVE",
"446 7 OFFCURVE",
"449 31 OFFCURVE",
"449 47 CURVE",
"429 57 OFFCURVE",
"389 64 OFFCURVE",
"359 67 CURVE"
);
}
);
};
guideLines = (
{
position = "{226, 273}";
},
{
angle = 85;
position = "{-1, 608}";
}
);
layerId = "0B1F8F77-7348-4C28-A663-EA76351238C4";
paths = (
{
closed = 1;
nodes = (
"450 568 OFFCURVE",
"365 398 OFFCURVE",
"310 296 CURVE",
"342 238 LINE",
"382 331 OFFCURVE",
"527 591 OFFCURVE",
"549 624 CURVE",
"609 635 LINE",
"613 680 LINE",
"390 680 LINE",
"386 635 LINE",
"472 626 LINE"
);
},
{
closed = 1;
nodes = (
"324 301 LINE",
"281 394 OFFCURVE",
"162 606 OFFCURVE",
"154 626 CURVE",
"240 635 LINE",
"243 680 LINE",
"4 680 LINE",
"0 635 LINE",
"57 626 LINE",
"116 519 OFFCURVE",
"171 427 OFFCURVE",
"271 244 CURVE"
);
},
{
closed = 1;
nodes = (
"346 102 OFFCURVE",
"350 235 OFFCURVE",
"351 313 CURVE",
"264 297 LINE",
"265 188 OFFCURVE",
"264 147 OFFCURVE",
"264 96 CURVE SMOOTH",
"264 73 OFFCURVE",
"277 64 OFFCURVE",
"306 55 CURVE",
"184 45 LINE",
"181 0 LINE",
"445 0 LINE",
"451 45 LINE",
"368 55 LINE"
);
}
);
width = 613;
}
);
leftKerningGroup = V;
rightKerningGroup = V;
unicode = 0059;
},
{
color = 1;
glyphname = Z;
lastChange = "2017-05-20 10:40:11 +0000";
layers = (
{
anchors = (
{
name = bottom;
position = "{316, 0}";
},
{
name = top;
position = "{316, 680}";
}
);
background = {
paths = (
{
closed = 1;
nodes = (
"394 681 OFFCURVE",
"217 681 OFFCURVE",
"50 688 CURVE",
"49 445 LINE",
"110 437 LINE",
"136 525 LINE",
"189 536 OFFCURVE",
"303 542 OFFCURVE",
"380 540 CURVE",
"354 482 OFFCURVE",
"312 415 OFFCURVE",
"241 312 CURVE SMOOTH",
"118 133 OFFCURVE",
"50 76 OFFCURVE",
"23 65 CURVE",
"44 0 LINE",
"199 5 OFFCURVE",
"417 2 OFFCURVE",
"560 -1 CURVE",
"586 230 LINE",
"517 237 LINE",
"479 145 LINE",
"411 132 OFFCURVE",
"343 129 OFFCURVE",
"234 131 CURVE",
"279 203 OFFCURVE",
"306 244 OFFCURVE",
"391 377 CURVE SMOOTH",
"467 496 OFFCURVE",
"538 600 OFFCURVE",
"571 617 CURVE",
"550 686 LINE"
);
},
{
closed = 1;
nodes = (
"149 301 LINE",
"248 307 OFFCURVE",
"366 307 OFFCURVE",
"467 304 CURVE",
"480 316 LINE",
"485 387 LINE",
"386 384 OFFCURVE",
"268 387 OFFCURVE",
"168 387 CURVE",
"155 375 LINE"
);
}
);
};
guideLines = (
{
angle = 90;
position = "{560, 271}";
}
);
layerId = "11343128-4963-4E5D-BE9C-B74F53B36FA5";
paths = (
{
closed = 1;
nodes = (
"394 681 OFFCURVE",
"217 681 OFFCURVE",
"50 688 CURVE",
"51 494 LINE",
"112 486 LINE",
"138 574 LINE",
"191 585 OFFCURVE",
"287 591 OFFCURVE",
"364 589 CURVE",
"338 531 OFFCURVE",
"273 422 OFFCURVE",
"204 308 CURVE SMOOTH",
"122 173 OFFCURVE",
"47 76 OFFCURVE",
"20 65 CURVE",
"44 0 LINE",
"199 5 OFFCURVE",
"417 2 OFFCURVE",
"560 -1 CURVE",
"583 194 LINE",
"514 201 LINE",
"476 109 LINE",
"408 96 OFFCURVE",
"347 90 OFFCURVE",
"238 92 CURVE",
"271 156 OFFCURVE",
"315 226 OFFCURVE",
"388 359 CURVE SMOOTH",
"454 479 OFFCURVE",
"538 600 OFFCURVE",
"571 617 CURVE",
"550 686 LINE"
);
}
);
width = 603;
},
{
anchors = (
{
name = bottom;
position = "{298, 0}";
},
{
name = top;
position = "{298, 680}";
}
);
background = {
paths = (
{
closed = 1;
nodes = (
"543 151 LINE",
"493 156 LINE",
"477 124 OFFCURVE",
"462 91 OFFCURVE",
"447 56 CURVE",
"118 48 LINE",
"118 50 LINE",
"148 58 LINE",
"519 620 LINE",
"519 670 LINE",
"58 670 LINE",
"48 660 LINE",
"80 513 LINE",
"130 508 LINE",
"136 532 OFFCURVE",
"142 575 OFFCURVE",
"146 614 CURVE",
"449 622 LINE",
"449 620 LINE",
"419 612 LINE",
"43 50 LINE",
"43 0 LINE",
"519 0 LINE",
"529 10 LINE"
);
}
);
};
guideLines = (
{
angle = 90;
position = "{542, 270}";
}
);
layerId = "0B1F8F77-7348-4C28-A663-EA76351238C4";
paths = (
{
closed = 1;
nodes = (
"363 678 OFFCURVE",
"189 678 OFFCURVE",
"58 685 CURVE",
"56 539 LINE",
"99 533 LINE",
"110 575 OFFCURVE",
"120 594 OFFCURVE",
"128 621 CURVE",
"171 627 OFFCURVE",
"365 629 OFFCURVE",
"420 628 CURVE",
"390 570 OFFCURVE",
"299 423 OFFCURVE",
"225 308 CURVE SMOOTH",
"139 175 OFFCURVE",
"62 53 OFFCURVE",
"35 42 CURVE",
"49 0 LINE",
"204 5 OFFCURVE",
"387 0 OFFCURVE",
"531 0 CURVE",
"549 150 LINE",
"504 154 LINE",
"469 68 LINE",
"401 55 OFFCURVE",
"270 53 OFFCURVE",
"158 53 CURVE",
"192 117 OFFCURVE",
"261 228 OFFCURVE",
"343 360 CURVE SMOOTH",
"415 476 OFFCURVE",
"500 620 OFFCURVE",
"537 640 CURVE",
"523 683 LINE"
);
}
);
width = 579;
}
);
leftKerningGroup = X;
rightKerningGroup = X;
unicode = 005A;
},
{
glyphname = Z.ss01;
lastChange = "2017-05-20 10:40:11 +0000";
layers = (
{
anchors = (
{
name = bottom;
position = "{285, 0}";
},
{
name = top;
position = "{285, 700}";
}
);
background = {
components = (
{
name = E;
transform = "{-1, 0, 0, -1, 575, 685}";
}
);
};
guideLines = (
{
angle = 90;
position = "{529, 271}";
}
);
layerId = "11343128-4963-4E5D-BE9C-B74F53B36FA5";
paths = (
{
closed = 1;
nodes = (
"391 681 OFFCURVE",
"214 681 OFFCURVE",
"47 688 CURVE",
"46 445 LINE",
"107 437 LINE",
"133 525 LINE",
"186 536 OFFCURVE",
"300 542 OFFCURVE",
"377 540 CURVE",
"351 482 OFFCURVE",
"309 415 OFFCURVE",
"238 312 CURVE SMOOTH",
"115 133 OFFCURVE",
"47 76 OFFCURVE",
"20 65 CURVE",
"41 0 LINE",
"196 5 OFFCURVE",
"414 2 OFFCURVE",
"557 -1 CURVE",
"583 230 LINE",
"514 237 LINE",
"476 145 LINE",
"408 132 OFFCURVE",
"340 129 OFFCURVE",
"231 131 CURVE",
"276 203 OFFCURVE",
"303 244 OFFCURVE",
"388 377 CURVE SMOOTH",
"464 496 OFFCURVE",
"535 600 OFFCURVE",
"568 617 CURVE",
"547 686 LINE"
);
},
{
closed = 1;
nodes = (
"146 301 LINE",
"245 307 OFFCURVE",
"363 307 OFFCURVE",
"464 304 CURVE",
"477 316 LINE",
"482 387 LINE",
"383 384 OFFCURVE",
"265 387 OFFCURVE",
"165 387 CURVE",
"152 375 LINE"
);
}
);
width = 603;
},
{
anchors = (
{
name = bottom;
position = "{298, 0}";
},
{
name = top;
position = "{298, 708}";
}
);
background = {
paths = (
{
closed = 1;
nodes = (
"543 151 LINE",
"493 156 LINE",
"477 124 OFFCURVE",
"462 91 OFFCURVE",
"447 56 CURVE",
"118 48 LINE",
"118 50 LINE",
"148 58 LINE",
"519 620 LINE",
"519 670 LINE",
"58 670 LINE",
"48 660 LINE",
"80 513 LINE",
"130 508 LINE",
"136 532 OFFCURVE",
"142 575 OFFCURVE",
"146 614 CURVE",
"449 622 LINE",
"449 620 LINE",
"419 612 LINE",
"43 50 LINE",
"43 0 LINE",
"519 0 LINE",
"529 10 LINE"
);
}
);
};
guideLines = (
{
angle = 90;
position = "{542, 270}";
}
);
layerId = "0B1F8F77-7348-4C28-A663-EA76351238C4";
paths = (
{
closed = 1;
nodes = (
"363 678 OFFCURVE",
"226 679 OFFCURVE",
"58 685 CURVE",
"58 520 LINE",
"101 514 LINE",
"112 556 OFFCURVE",
"118 571 OFFCURVE",
"126 598 CURVE",
"169 604 OFFCURVE",
"367 606 OFFCURVE",
"422 605 CURVE",
"392 547 OFFCURVE",
"316 423 OFFCURVE",
"245 317 CURVE SMOOTH",
"157 185 OFFCURVE",
"62 53 OFFCURVE",
"35 42 CURVE",
"49 0 LINE",
"204 5 OFFCURVE",
"387 0 OFFCURVE",
"531 0 CURVE",
"547 168 LINE",
"502 172 LINE",
"469 91 LINE",
"401 78 OFFCURVE",
"275 76 OFFCURVE",
"163 76 CURVE",
"197 140 OFFCURVE",
"246 224 OFFCURVE",
"336 357 CURVE SMOOTH",
"412 470 OFFCURVE",
"500 620 OFFCURVE",
"537 640 CURVE",
"523 683 LINE"
);
},
{
closed = 1;
nodes = (
"139 316 LINE",
"236 319 OFFCURVE",
"335 319 OFFCURVE",
"434 316 CURVE",
"443 324 LINE",
"446 373 LINE",
"346 371 OFFCURVE",
"247 371 OFFCURVE",
"151 373 CURVE",
"142 365 LINE"
);
}
);
width = 592;
}
);
leftKerningGroup = X;
leftMetricsKey = Z;
rightKerningGroup = X;
rightMetricsKey = Z;
},
{
glyphname = a;
lastChange = "2017-07-21 19:28:10 +0000";
layers = (
{
anchors = (
{
name = bottom;
position = "{242, 0}";
},
{
name = ogonek;
position = "{430, 10}";
},
{
name = top;
position = "{240, 480}";
}
);
background = {
components = (
{
name = n;
transform = "{1, 0, 0, 1, -68, 0}";
}
);
};
guideLines = (
{
angle = 90;
position = "{49, 179}";
},
{
position = "{153, 21}";
},
{
position = "{171, 71}";
},
{
angle = 98;
position = "{445, 220}";
}
);
layerId = "11343128-4963-4E5D-BE9C-B74F53B36FA5";
paths = (
{
closed = 1;
nodes = (
"77 317 LINE",
"95 317 OFFCURVE",
"140 324 OFFCURVE",
"160 331 CURVE",
"168 385 LINE",
"179 392 OFFCURVE",
"229 397 OFFCURVE",
"254 397 CURVE",
"289 382 OFFCURVE",
"288 324 OFFCURVE",
"288 252 CURVE SMOOTH",
"288 63 OFFCURVE",
"290 40 OFFCURVE",
"308 -1 CURVE",
"369 -7 OFFCURVE",
"454 7 OFFCURVE",
"483 20 CURVE",
"487 77 LINE",
"430 81 LINE",
"425 140 OFFCURVE",
"425 295 OFFCURVE",
"426 367 CURVE SMOOTH",
"427 436 OFFCURVE",
"367 487 OFFCURVE",
"282 489 CURVE SMOOTH",
"195 491 OFFCURVE",
"98 476 OFFCURVE",
"67 460 CURVE"
);
},
{
closed = 1;
nodes = (
"295 116 OFFCURVE",
"223 99 OFFCURVE",
"193 97 CURVE",
"169 115 OFFCURVE",
"164 161 OFFCURVE",
"172 190 CURVE",
"196 201 OFFCURVE",
"264 215 OFFCURVE",
"321 226 CURVE",
"322 296 LINE",
"229 275 OFFCURVE",
"179 268 OFFCURVE",
"137 258 CURVE SMOOTH",
"57 239 OFFCURVE",
"25 194 OFFCURVE",
"25 142 CURVE SMOOTH",
"25 61 OFFCURVE",
"78 -7 OFFCURVE",
"130 -8 CURVE",
"175 4 OFFCURVE",
"288 40 OFFCURVE",
"340 87 CURVE",
"324 128 LINE"
);
}
);
width = 497;
},
{
anchors = (
{
name = bottom;
position = "{221, 0}";
},
{
name = ogonek;
position = "{409, 10}";
},
{
name = top;
position = "{219, 480}";
}
);
background = {
components = (
{
name = n;
transform = "{1, 0, 0, 1, -106, 0}";
}
);
};
guideLines = (
{
angle = 90;
position = "{28, 179}";
},
{
position = "{148, 20}";
},
{
position = "{167, 58}";
}
);
layerId = "0B1F8F77-7348-4C28-A663-EA76351238C4";
paths = (
{
closed = 1;
nodes = (
"73 341 LINE",
"91 342 OFFCURVE",
"110 344 OFFCURVE",
"130 351 CURVE",
"137 409 LINE",
"161 420 OFFCURVE",
"232 437 OFFCURVE",
"257 437 CURVE",
"315 405 OFFCURVE",
"304 334 OFFCURVE",
"304 252 CURVE SMOOTH",
"304 73 OFFCURVE",
"298 45 OFFCURVE",
"316 1 CURVE",
"323 -3 LINE",
"365 -1 OFFCURVE",
"420 3 OFFCURVE",
"463 14 CURVE",
"466 56 LINE",
"383 58 LINE",
"377 118 OFFCURVE",
"379 285 OFFCURVE",
"380 357 CURVE SMOOTH",
"381 453 OFFCURVE",
"321 489 OFFCURVE",
"229 489 CURVE SMOOTH",
"175 489 OFFCURVE",
"123 479 OFFCURVE",
"65 461 CURVE"
);
},
{
closed = 1;
nodes = (
"293 103 OFFCURVE",
"183 72 OFFCURVE",
"153 68 CURVE",
"115 86 OFFCURVE",
"100 161 OFFCURVE",
"123 194 CURVE",
"147 204 OFFCURVE",
"239 221 OFFCURVE",
"318 238 CURVE",
"320 293 LINE",
"242 274 OFFCURVE",
"176 264 OFFCURVE",
"134 254 CURVE SMOOTH",
"-56 209 OFFCURVE",
"42 -5 OFFCURVE",
"132 -7 CURVE",
"177 5 OFFCURVE",
"276 46 OFFCURVE",
"328 93 CURVE",
"322 117 LINE"
);
}
);
width = 457;
}
);
leftKerningGroup = o;
leftMetricsKey = o;
rightKerningGroup = i;
unicode = 0061;
},
{
glyphname = ae;
lastChange = "2017-05-20 10:40:11 +0000";
layers = (
{
anchors = (
{
name = bottom;
position = "{668, 0}";
},
{
name = ogonek;
position = "{845, 10}";
},
{
name = top;
position = "{668, 480}";
}
);
background = {
components = (
{
name = a;
},
{
name = e;
transform = "{1, 0, 0, 1, 257, 0}";
}
);
};
layerId = "11343128-4963-4E5D-BE9C-B74F53B36FA5";
paths = (
{
closed = 1;
nodes = (
"69 304 LINE",
"87 304 OFFCURVE",
"132 311 OFFCURVE",
"152 318 CURVE",
"159 370 LINE",
"170 377 OFFCURVE",
"218 391 OFFCURVE",
"243 391 CURVE",
"278 376 OFFCURVE",
"284 320 OFFCURVE",
"284 252 CURVE SMOOTH",
"284 63 OFFCURVE",
"379 61 OFFCURVE",
"397 50 CURVE",
"423 78 LINE",
"418 137 OFFCURVE",
"396 310 OFFCURVE",
"397 382 CURVE",
"383 427 OFFCURVE",
"357 482 OFFCURVE",
"268 485 CURVE SMOOTH",
"175 488 OFFCURVE",
"89 461 OFFCURVE",
"58 445 CURVE"
);
},
{
closed = 1;
nodes = (
"288 116 OFFCURVE",
"211 101 OFFCURVE",
"181 97 CURVE",
"157 115 OFFCURVE",
"152 161 OFFCURVE",
"160 190 CURVE",
"199 203 OFFCURVE",
"257 216 OFFCURVE",
"314 227 CURVE",
"315 296 LINE",
"222 275 OFFCURVE",
"176 268 OFFCURVE",
"134 258 CURVE SMOOTH",
"-56 213 OFFCURVE",
"43 -6 OFFCURVE",
"133 -8 CURVE",
"178 3 OFFCURVE",
"281 38 OFFCURVE",
"333 85 CURVE",
"317 133 LINE"
);
},
{
closed = 1;
nodes = (
"401 245 OFFCURVE",
"421 413 OFFCURVE",
"487 417 CURVE",
"450 435 LINE",
"425 406 LINE",
"516 441 OFFCURVE",
"549 349 OFFCURVE",
"548 310 CURVE",
"522 304 OFFCURVE",
"436 292 OFFCURVE",
"386 283 CURVE",
"387 212 LINE",
"679 250 LINE",
"717 399 OFFCURVE",
"604 530 OFFCURVE",
"434 475 CURVE SMOOTH",
"250 416 OFFCURVE",
"241 128 OFFCURVE",
"359 31 CURVE SMOOTH",
"416 -16 OFFCURVE",
"554 -39 OFFCURVE",
"675 38 CURVE",
"665 102 LINE",
"556 64 OFFCURVE",
"477 80 OFFCURVE",
"446 147 CURVE SMOOTH"
);
}
);
width = 681;
},
{
anchors = (
{
name = bottom;
position = "{696, 0}";
},
{
name = ogonek;
position = "{873, 10}";
},
{
name = top;
position = "{696, 480}";
}
);
background = {
components = (
{
name = e;
transform = "{1, 0, 0, 1, 273, 0}";
}
);
};
layerId = "0B1F8F77-7348-4C28-A663-EA76351238C4";
paths = (
{
closed = 1;
nodes = (
"80 336 LINE",
"98 337 OFFCURVE",
"117 339 OFFCURVE",
"137 346 CURVE",
"144 404 LINE",
"168 415 OFFCURVE",
"247 437 OFFCURVE",
"272 437 CURVE",
"327 405 OFFCURVE",
"317 334 OFFCURVE",
"317 252 CURVE SMOOTH",
"317 204 OFFCURVE",
"341 150 OFFCURVE",
"364 106 CURVE",
"406 130 LINE",
"390 164 OFFCURVE",
"392 221 OFFCURVE",
"392 357 CURVE",
"392 433 OFFCURVE",
"358 480 OFFCURVE",
"261 488 CURVE SMOOTH",
"175 495 OFFCURVE",
"108 467 OFFCURVE",
"72 449 CURVE"
);
},
{
closed = 1;
nodes = (
"330 122 OFFCURVE",
"200 75 OFFCURVE",
"170 71 CURVE",
"132 89 OFFCURVE",
"115 161 OFFCURVE",
"138 194 CURVE",
"162 204 OFFCURVE",
"251 221 OFFCURVE",
"330 238 CURVE",
"332 293 LINE",
"254 274 OFFCURVE",
"191 264 OFFCURVE",
"149 254 CURVE SMOOTH",
"-41 209 OFFCURVE",
"57 -5 OFFCURVE",
"147 -7 CURVE",
"267 22 OFFCURVE",
"329 63 OFFCURVE",
"387 100 CURVE",
"359 136 LINE"
);
},
{
closed = 1;
nodes = (
"372 413 OFFCURVE",
"505 447 CURVE",
"469 460 LINE",
"449 428 LINE",
"538 468 OFFCURVE",
"614 371 OFFCURVE",
"614 327 CURVE",
"588 324 OFFCURVE",
"454 298 OFFCURVE",
"393 285 CURVE",
"388 236 LINE",
"686 281 LINE",
"714 391 OFFCURVE",
"629 530 OFFCURVE",
"459 475 CURVE SMOOTH",
"273 415 OFFCURVE",
"272 130 OFFCURVE",
"390 33 CURVE SMOOTH",
"447 -14 OFFCURVE",
"574 -39 OFFCURVE",
"695 42 CURVE",
"689 82 LINE",
"619 46 OFFCURVE",
"527 41 OFFCURVE",
"472 72 CURVE SMOOTH",
"353 140 OFFCURVE"
);
}
);
width = 722;
}
);
leftKerningGroup = o;
leftMetricsKey = a;
rightKerningGroup = o;
rightMetricsKey = e;
unicode = 00E6;
},
{
glyphname = c;
lastChange = "2017-07-15 20:49:39 +0000";
layers = (
{
anchors = (
{
name = bottom;
position = "{212, 0}";
},
{
name = top;
position = "{230, 480}";
}
);
background = {
components = (
{
name = e;
transform = "{1, 0, 0, 1, -22, 0}";
}
);
};
guideLines = (
{
position = "{152, 38}";
},
{
position = "{170, 88}";
}
);
layerId = "11343128-4963-4E5D-BE9C-B74F53B36FA5";
paths = (
{
closed = 1;
nodes = (
"209 389 OFFCURVE",
"277 379 OFFCURVE",
"297 373 CURVE",
"300 358 OFFCURVE",
"305 311 OFFCURVE",
"308 305 CURVE",
"322 304 OFFCURVE",
"361 309 OFFCURVE",
"392 320 CURVE",
"393 341 OFFCURVE",
"396 416 OFFCURVE",
"396 447 CURVE",
"367 470 OFFCURVE",
"273 505 OFFCURVE",
"173 469 CURVE SMOOTH",
"3 407 OFFCURVE",
"-14 149 OFFCURVE",
"90 43 CURVE SMOOTH",
"154 -22 OFFCURVE",
"293 -39 OFFCURVE",
"415 36 CURVE",
"405 98 LINE",
"306 67 OFFCURVE",
"205 102 OFFCURVE",
"174 184 CURVE SMOOTH",
"140 273 OFFCURVE",
"151 345 OFFCURVE",
"187 390 CURVE"
);
}
);
width = 424;
},
{
anchors = (
{
name = bottom;
position = "{204, 0}";
},
{
name = top;
position = "{222, 480}";
}
);
background = {
components = (
{
name = e;
transform = "{1, 0, 0, 1, -1, 0}";
}
);
};
backgroundImage = {
crop = "{{0, 0}, {1335, 575}}";
imagePath = "/Users/MasterFGH/Desktop/Bildschirmfoto 2017-07-15 um 21.39.02.jpg";
locked = "1";
transform = "{1.965, 0, 0, 1.965, -996, -102}";
};
guideLines = (
{
position = "{144, 38}";
},
{
position = "{162, 88}";
},
{
angle = -81.9829;
position = "{375, 221}";
}
);
layerId = "0B1F8F77-7348-4C28-A663-EA76351238C4";
paths = (
{
closed = 1;
nodes = (
"212 433 OFFCURVE",
"291 428 OFFCURVE",
"318 407 CURVE",
"321 392 OFFCURVE",
"326 345 OFFCURVE",
"329 339 CURVE",
"343 338 OFFCURVE",
"367 343 OFFCURVE",
"387 347 CURVE",
"388 368 OFFCURVE",
"391 426 OFFCURVE",
"391 452 CURVE",
"371 468 OFFCURVE",
"321 485 OFFCURVE",
"262 485 CURVE SMOOTH",
"118 485 OFFCURVE",
"25 369 OFFCURVE",
"25 222 CURVE SMOOTH",
"25 148 OFFCURVE",
"50 77 OFFCURVE",
"97 37 CURVE SMOOTH",
"151 -9 OFFCURVE",
"273 -37 OFFCURVE",
"405 41 CURVE",
"400 85 LINE",
"291 37 OFFCURVE",
"166 51 OFFCURVE",
"131 138 CURVE SMOOTH",
"86 249 OFFCURVE",
"115 381 OFFCURVE",
"194 433 CURVE"
);
}
);
width = 430;
}
);
leftKerningGroup = o;
leftMetricsKey = o;
rightKerningGroup = z;
unicode = 0063;
},
{
glyphname = eth;
lastChange = "2017-05-20 10:40:11 +0000";
layers = (
{
background = {
components = (
{
name = six;
transform = "{-1, 0, 0, 1, 449, 114}";
}
);
};
layerId = "11343128-4963-4E5D-BE9C-B74F53B36FA5";
paths = (
{
closed = 1;
nodes = (
"233 82 OFFCURVE",
"184 127 OFFCURVE",
"166 191 CURVE SMOOTH",
"144 267 OFFCURVE",
"162 373 OFFCURVE",
"234 394 CURVE",
"201 409 LINE",
"185 378 LINE",
"228 396 OFFCURVE",
"291 387 OFFCURVE",
"316 362 CURVE",
"338 270 OFFCURVE",
"338 117 OFFCURVE",
"246 87 CURVE",
"279 67 LINE",
"299 102 LINE"
);
},
{
closed = 1;
nodes = (
"137 521 LINE",
"156 516 LINE",
"415 680 LINE",
"385 731 LINE",
"366 736 LINE",
"108 575 LINE"
);
},
{
closed = 1;
nodes = (
"16 157 OFFCURVE",
"46 75 OFFCURVE",
"96 34 CURVE SMOOTH",
"138 -1 OFFCURVE",
"210 -18 OFFCURVE",
"277 -4 CURVE SMOOTH",
"393 18 OFFCURVE",
"462 110 OFFCURVE",
"469.099 251.159 CURVE SMOOTH",
"479 551 OFFCURVE",
"304 750 OFFCURVE",
"66 740 CURVE",
"58 731 LINE",
"65 671 LINE",
"200 671 OFFCURVE",
"279 565 OFFCURVE",
"307.653 436.455 CURVE",
"282.46 459.783 OFFCURVE",
"243.379 482.642 OFFCURVE",
"201 482 CURVE",
"63 462 OFFCURVE",
"14 332 OFFCURVE",
"15 237 CURVE SMOOTH"
);
}
);
width = 516;
},
{
anchors = (
{
name = bottom;
position = "{243, 0}";
},
{
name = center;
position = "{243, 240}";
},
{
name = ogonek;
position = "{437, 10}";
},
{
name = top;
position = "{243, 480}";
},
{
name = topright;
position = "{465, 480}";
}
);
background = {
components = (
{
name = d;
transform = "{1, 0, 0, 1, -10, 1}";
}
);
};
guideLines = (
{
angle = 90;
position = "{46, 565}";
}
);
layerId = "0B1F8F77-7348-4C28-A663-EA76351238C4";
paths = (
{
closed = 1;
nodes = (
"366 439 OFFCURVE",
"285 488 OFFCURVE",
"211 482 CURVE",
"81 458 OFFCURVE",
"30 329 OFFCURVE",
"30 237 CURVE SMOOTH",
"30 157 OFFCURVE",
"56 75 OFFCURVE",
"106 34 CURVE SMOOTH",
"148 -1 OFFCURVE",
"211 -18 OFFCURVE",
"278 -4 CURVE SMOOTH",
"411 21 OFFCURVE",
"449 133 OFFCURVE",
"456 248 CURVE SMOOTH",
"460 318 OFFCURVE",
"398 355 OFFCURVE",
"376 413 CURVE SMOOTH"
);
},
{
closed = 1;
nodes = (
"250 29 OFFCURVE",
"168 67 OFFCURVE",
"138 130 CURVE SMOOTH",
"85 241 OFFCURVE",
"133 426 OFFCURVE",
"222 447 CURVE",
"189 462 LINE",
"173 431 LINE",
"238 452 OFFCURVE",
"343 390 OFFCURVE",
"368 354 CURVE",
"386 266 OFFCURVE",
"366 55 OFFCURVE",
"263 34 CURVE",
"296 14 LINE",
"316 49 LINE"
);
},
{
closed = 1;
nodes = (
"456 248 LINE",
"467 548 OFFCURVE",
"287 743 OFFCURVE",
"80 740 CURVE",
"72 731 LINE",
"78 691 LINE",
"245 689 OFFCURVE",
"361 520 OFFCURVE",
"371 343 CURVE"
);
},
{
closed = 1;
nodes = (
"121 528 LINE",
"136 524 LINE",
"398 686 LINE",
"374 727 LINE",
"360 730 LINE",
"101 567 LINE"
);
}
);
width = 486;
}
);
leftKerningGroup = o;
rightKerningGroup = i;
unicode = 00F0;
},
{
glyphname = dcroat;
lastChange = "2017-05-20 10:40:11 +0000";
layers = (
{
components = (
{
name = d;
},
{
name = strokeshortcomb;
transform = "{0.9151, 0, 0, 1, 299, 285}";
}
);
layerId = "11343128-4963-4E5D-BE9C-B74F53B36FA5";
width = 565;
},
{
anchors = (
{
name = _center;
position = "{361, 578}";
}
);
components = (
{
name = d;
}
);
layerId = "0B1F8F77-7348-4C28-A663-EA76351238C4";
paths = (
{
closed = 1;
nodes = (
"513 595 LINE",
"502 603 LINE",
"366 600 OFFCURVE",
"403 598 OFFCURVE",
"257 608 CURVE",
"250 551 LINE",
"260 543 LINE",
"397 545 OFFCURVE",
"363 546 OFFCURVE",
"508 541 CURVE"
);
}
);
width = 521;
}
);
leftKerningGroup = o;
rightKerningGroup = i;
unicode = 0111;
},
{
glyphname = e;
lastChange = "2017-07-15 20:46:52 +0000";
layers = (
{
anchors = (
{
name = bottom;
position = "{234, 0}";
},
{
name = ogonek;
position = "{411, 10}";
},
{
name = top;
position = "{246, 480}";
}
);
background = {
components = (
{
name = o;
transform = "{1, 0, 0, 1, 10, 0}";
}
);
};
guideLines = (
{
angle = 98;
position = "{401, 220}";
}
);
layerId = "11343128-4963-4E5D-BE9C-B74F53B36FA5";
paths = (
{
closed = 1;
nodes = (
"266 41 OFFCURVE",
"155 115 OFFCURVE",
"163 274 CURVE SMOOTH",
"167 352 OFFCURVE",
"199 414 OFFCURVE",
"242 419 CURVE",
"205 433 LINE",
"191 404 LINE",
"308 428 OFFCURVE",
"313 337 OFFCURVE",
"312 298 CURVE",
"286 295 OFFCURVE",
"200 292 OFFCURVE",
"127 293 CURVE",
"128 222 LINE",
"441 229 LINE",
"488 399 OFFCURVE",
"372 538 OFFCURVE",
"192 473 CURVE SMOOTH",
"-31 392 OFFCURVE",
"0 122 OFFCURVE",
"107 35 CURVE SMOOTH",
"175 -20 OFFCURVE",
"317 -37 OFFCURVE",
"438 38 CURVE",
"428 101 LINE"
);
}
);
width = 461;
},
{
anchors = (
{
name = bottom;
position = "{219, 0}";
},
{
name = ogonek;
position = "{396, 10}";
},
{
name = top;
position = "{231, 480}";
}
);
background = {
components = (
{
name = o;
transform = "{1, 0, 0, 1, -14, 0}";
}
);
};
backgroundImage = {
crop = "{{0, 0}, {1335, 575}}";
imagePath = "/Users/MasterFGH/Desktop/Bildschirmfoto 2017-07-15 um 21.39.02.jpg";
locked = "1";
transform = "{1.965, 0, 0, 1.965, -2007, -102}";
};
guideLines = (
{
angle = 98;
position = "{283, 256}";
},
{
angle = 98;
position = "{382, 220}";
}
);
layerId = "0B1F8F77-7348-4C28-A663-EA76351238C4";
paths = (
{
closed = 1;
nodes = (
"77 411 OFFCURVE",
"224 444 CURVE",
"191 460 LINE",
"175 429 LINE",
"293 460 OFFCURVE",
"360 378 OFFCURVE",
"347 288 CURVE",
"321 285 OFFCURVE",
"161 282 OFFCURVE",
"100 285 CURVE",
"99 236 LINE",
"415 242 LINE",
"431 319 OFFCURVE",
"417 390 OFFCURVE",
"384 433 CURVE SMOOTH",
"363 461 OFFCURVE",
"312 487 OFFCURVE",
"255 487 CURVE SMOOTH",
"117 487 OFFCURVE",
"25 370 OFFCURVE",
"25 221 CURVE SMOOTH",
"25 146 OFFCURVE",
"51 73 OFFCURVE",
"100 31 CURVE SMOOTH",
"157 -18 OFFCURVE",
"293 -39 OFFCURVE",
"414 42 CURVE",
"408 85 LINE",
"338 49 OFFCURVE",
"238 44 OFFCURVE",
"183 75 CURVE SMOOTH",
"64 143 OFFCURVE"
);
}
);
width = 449;
},
{
anchors = (
{
name = bottom;
position = "{230, 0}";
},
{
name = ogonek;
position = "{407, 10}";
},
{
name = top;
position = "{242, 480}";
}
);
associatedMasterId = "11343128-4963-4E5D-BE9C-B74F53B36FA5";
background = {
components = (
{
name = o;
transform = "{1, 0, 0, 1, 6, 0}";
}
);
};
guideLines = (
{
angle = 98;
position = "{397, 220}";
}
);
layerId = "BDA96BF6-4193-4E65-9F3E-3F22181FBD6B";
name = black;
paths = (
{
closed = 1;
nodes = (
"178 240 OFFCURVE",
"188 357 OFFCURVE",
"221 386 CURVE",
"262 381 OFFCURVE",
"274 341 OFFCURVE",
"273 309 CURVE",
"247 306 OFFCURVE",
"193 304 OFFCURVE",
"132 305 CURVE",
"133 214 LINE",
"445 220 LINE",
"489 393 OFFCURVE",
"372 538 OFFCURVE",
"168 475 CURVE SMOOTH",
"42 436 OFFCURVE",
"-12 280 OFFCURVE",
"18 159 CURVE SMOOTH",
"61 -9 OFFCURVE",
"233 -64 OFFCURVE",
"441 34 CURVE",
"431 121 LINE",
"324 84 OFFCURVE",
"233 90 OFFCURVE",
"205 166 CURVE SMOOTH"
);
}
);
width = 466;
}
);
leftKerningGroup = o;
leftMetricsKey = o;
note = " p ";
rightKerningGroup = o;
unicode = 0065;
},
{
color = 5;
glyphname = f;
lastChange = "2017-07-21 19:44:41 +0000";
layers = (
{
anchors = (
{
name = bottom;
position = "{182, 0}";
},
{
name = top;
position = "{182, 480}";
}
);
background = {
components = (
{
name = t;
transform = "{1, 0, 0, 1, 27, 0}";
}
);
};
layerId = "11343128-4963-4E5D-BE9C-B74F53B36FA5";
paths = (
{
closed = 1;
nodes = (
"26 65 LINE",
"22 0 LINE",
"316 0 LINE",
"321 65 LINE",
"226 75 LINE",
"163 75 LINE"
);
},
{
closed = 1;
nodes = (
"130 654 OFFCURVE",
"101 571 OFFCURVE",
"92 470 CURVE",
"25 467 LINE",
"25 397 LINE",
"89 394 LINE",
"88 277 OFFCURVE",
"84 166 OFFCURVE",
"83 110 CURVE SMOOTH",
"83 82 OFFCURVE",
"126 68 OFFCURVE",
"151 66 CURVE SMOOTH",
"178 64 OFFCURVE",
"194 57 OFFCURVE",
"229 57 CURVE",
"225 135 OFFCURVE",
"225 191 OFFCURVE",
"225 393 CURVE",
"278 391 OFFCURVE",
"334 387 OFFCURVE",
"341 387 CURVE SMOOTH",
"357 387 OFFCURVE",
"355 434 OFFCURVE",
"350 479 CURVE",
"225 473 LINE",
"227 582 OFFCURVE",
"238 623 OFFCURVE",
"273 649 CURVE",
"319 650 OFFCURVE",
"380 622 OFFCURVE",
"413 590 CURVE",
"449 603 LINE",
"454 619 OFFCURVE",
"473 674 OFFCURVE",
"478 708 CURVE",
"442 757 OFFCURVE",
"280 765 OFFCURVE",
"188 697 CURVE SMOOTH"
);
}
);
width = 357;
},
{
anchors = (
{
name = bottom;
position = "{178, 0}";
},
{
name = top;
position = "{178, 480}";
}
);
background = {
components = (
{
name = t;
transform = "{1, 0, 0, 1, 20, 0}";
}
);
};
guideLines = (
{
angle = 98;
position = "{64, 183}";
},
{
angle = 85;
position = "{61, 202}";
}
);
layerId = "0B1F8F77-7348-4C28-A663-EA76351238C4";
paths = (
{
closed = 1;
nodes = (
"44 45 LINE",
"40 0 LINE",
"283 0 LINE",
"287 46 LINE",
"189 55 LINE",
"159 55 LINE"
);
},
{
closed = 1;
nodes = (
"130 611 OFFCURVE",
"114 554 OFFCURVE",
"110 463 CURVE",
"45 459 LINE",
"45 422 LINE",
"109 419 LINE",
"110 294 OFFCURVE",
"111 187 OFFCURVE",
"112 91 CURVE SMOOTH",
"112 64 OFFCURVE",
"149 37 OFFCURVE",
"188 37 CURVE",
"184 140 OFFCURVE",
"186 208 OFFCURVE",
"187 421 CURVE",
"218 420 OFFCURVE",
"284 410 OFFCURVE",
"305 411 CURVE SMOOTH",
"321 412 OFFCURVE",
"322 446 OFFCURVE",
"316 470 CURVE",
"269 468 OFFCURVE",
"206 465 OFFCURVE",
"186 465 CURVE",
"188 574 OFFCURVE",
"196 652 OFFCURVE",
"256 680 CURVE",
"291 681 OFFCURVE",
"356 668 OFFCURVE",
"386 643 CURVE",
"404 648 LINE",
"410 668 OFFCURVE",
"418 697 OFFCURVE",
"421 712 CURVE",
"386 768 OFFCURVE",
"213 761 OFFCURVE",
"151 649 CURVE SMOOTH"
);
}
);
width = 346;
}
);
leftKerningGroup = f;
rightKerningGroup = f;
unicode = 0066;
},
{
color = 5;
glyphname = f.001;
lastChange = "2017-05-20 10:40:11 +0000";
layers = (
{
anchors = (
{
name = bottom;
position = "{202, 0}";
},
{
name = top;
position = "{202, 480}";
}
);
background = {
components = (
{
name = f;
}
);
};
layerId = "11343128-4963-4E5D-BE9C-B74F53B36FA5";
paths = (
{
closed = 1;
nodes = (
"202 395 LINE",
"252 394 OFFCURVE",
"367 385 OFFCURVE",
"376 385 CURVE SMOOTH",
"387 385 OFFCURVE",
"385 424 OFFCURVE",
"377 479 CURVE",
"341 477 OFFCURVE",
"261 474 OFFCURVE",
"244 473 CURVE",
"113 492 LINE",
"112 471 OFFCURVE",
"93 469 OFFCURVE",
"63 467 CURVE SMOOTH",
"46 466 LINE",
"46 397 LINE",
"50 397 OFFCURVE",
"104 397 OFFCURVE",
"119 397 CURVE"
);
},
{
closed = 1;
nodes = (
"45 65 LINE",
"42 0 LINE",
"336 0 LINE",
"340 65 LINE",
"246 75 LINE",
"183 75 LINE"
);
},
{
closed = 1;
nodes = (
"109 296 OFFCURVE",
"104 170 OFFCURVE",
"103 110 CURVE SMOOTH",
"103 82 OFFCURVE",
"146 68 OFFCURVE",
"171 66 CURVE SMOOTH",
"198 64 OFFCURVE",
"214 57 OFFCURVE",
"249 57 CURVE",
"245 135 OFFCURVE",
"245 191 OFFCURVE",
"245 394 CURVE",
"242 564 OFFCURVE",
"255 617 OFFCURVE",
"297 649 CURVE",
"320 649 OFFCURVE",
"354 641 OFFCURVE",
"374 632 CURVE",
"398 637 LINE",
"405 663 OFFCURVE",
"415 715 OFFCURVE",
"419 741 CURVE",
"387 751 OFFCURVE",
"296 758 OFFCURVE",
"212 697 CURVE SMOOTH",
"142 646 OFFCURVE",
"109 559 OFFCURVE",
"109 421 CURVE SMOOTH"
);
}
);
width = 419;
},
{
anchors = (
{
name = bottom;
position = "{178, 0}";
},
{
name = top;
position = "{178, 480}";
}
);
background = {
components = (
{
name = f;
}
);
};
guideLines = (
{
angle = 98;
position = "{64, 183}";
},
{
angle = 85;
position = "{61, 202}";
}
);
layerId = "0B1F8F77-7348-4C28-A663-EA76351238C4";
paths = (
{
closed = 1;
nodes = (
"44 45 LINE",
"40 0 LINE",
"283 0 LINE",
"287 46 LINE",
"189 55 LINE",
"159 55 LINE"
);
},
{
closed = 1;
nodes = (
"130 606 OFFCURVE",
"115 562 OFFCURVE",
"111 471 CURVE",
"106 461 OFFCURVE",
"91 460 OFFCURVE",
"61 458 CURVE SMOOTH",
"42 457 LINE",
"44 415 LINE",
"110 415 LINE",
"110 290 OFFCURVE",
"106 114 OFFCURVE",
"106 91 CURVE SMOOTH",
"106 64 OFFCURVE",
"155 37 OFFCURVE",
"194 37 CURVE",
"186 117 OFFCURVE",
"186 201 OFFCURVE",
"186 414 CURVE",
"217 413 OFFCURVE",
"286 411 OFFCURVE",
"307 411 CURVE SMOOTH",
"318 411 OFFCURVE",
"319 427 OFFCURVE",
"311 470 CURVE",
"265 468 OFFCURVE",
"204 465 OFFCURVE",
"187 465 CURVE SMOOTH",
"185 465 LINE",
"187 574 OFFCURVE",
"196 639 OFFCURVE",
"247 671 CURVE",
"267 668 OFFCURVE",
"314 662 OFFCURVE",
"338 657 CURVE",
"356 662 LINE",
"361 681 OFFCURVE",
"368 719 OFFCURVE",
"371 738 CURVE",
"352 749 OFFCURVE",
"202 741 OFFCURVE",
"151 645 CURVE SMOOTH"
);
}
);
width = 350;
}
);
leftKerningGroup = f;
leftMetricsKey = f;
rightKerningGroup = f;
},
{
color = 5;
glyphname = f.f;
lastChange = "2017-05-20 10:40:11 +0000";
layers = (
{
anchors = (
{
name = bottom;
position = "{184, 0}";
},
{
name = top;
position = "{184, 480}";
}
);
background = {
components = (
{
name = f;
transform = "{1, 0, 0, 1, -19, 0}";
}
);
};
layerId = "11343128-4963-4E5D-BE9C-B74F53B36FA5";
paths = (
{
closed = 1;
nodes = (
"184 395 LINE",
"234 394 OFFCURVE",
"448 390 OFFCURVE",
"457 390 CURVE SMOOTH",
"468 390 OFFCURVE",
"466 423 OFFCURVE",
"458 478 CURVE",
"422 476 OFFCURVE",
"243 474 OFFCURVE",
"226 473 CURVE",
"95 492 LINE",
"94 471 OFFCURVE",
"72 466 OFFCURVE",
"41 467 CURVE",
"29 456 LINE",
"29 397 LINE",
"33 397 OFFCURVE",
"86 397 OFFCURVE",
"101 397 CURVE"
);
},
{
closed = 1;
nodes = (
"28 65 LINE",
"25 0 LINE",
"318 0 LINE",
"322 65 LINE",
"228 75 LINE",
"165 75 LINE"
);
},
{
closed = 1;
nodes = (
"91 296 OFFCURVE",
"86 170 OFFCURVE",
"85 110 CURVE SMOOTH",
"85 82 OFFCURVE",
"128 68 OFFCURVE",
"153 66 CURVE SMOOTH",
"180 64 OFFCURVE",
"196 57 OFFCURVE",
"231 57 CURVE",
"227 135 OFFCURVE",
"227 191 OFFCURVE",
"227 394 CURVE",
"224 542 OFFCURVE",
"230 604 OFFCURVE",
"272 636 CURVE",
"340 642 OFFCURVE",
"421 610 OFFCURVE",
"445 564 CURVE",
"480 571 OFFCURVE",
"518 617 OFFCURVE",
"539 656 CURVE",
"515 715 OFFCURVE",
"297 780 OFFCURVE",
"181 678 CURVE SMOOTH",
"115 620 OFFCURVE",
"91 537 OFFCURVE",
"91 421 CURVE SMOOTH"
);
}
);
width = 316;
},
{
anchors = (
{
name = bottom;
position = "{164, 0}";
},
{
name = top;
position = "{164, 480}";
}
);
background = {
components = (
{
name = f;
transform = "{1, 0, 0, 1, 2, 0}";
}
);
};
layerId = "0B1F8F77-7348-4C28-A663-EA76351238C4";
paths = (
{
closed = 1;
nodes = (
"44 45 LINE",
"40 0 LINE",
"276 0 LINE",
"280 46 LINE",
"189 55 LINE",
"159 55 LINE"
);
},
{
closed = 1;
nodes = (
"186 466 LINE",
"189 569 OFFCURVE",
"200 634 OFFCURVE",
"259 662 CURVE",
"324 674 OFFCURVE",
"405 642 OFFCURVE",
"443 582 CURVE",
"488 668 LINE",
"377 749 OFFCURVE",
"254 739 OFFCURVE",
"181 665 CURVE SMOOTH",
"139 623 OFFCURVE",
"114 557 OFFCURVE",
"114 480 CURVE SMOOTH",
"114 464 OFFCURVE",
"107 458 OFFCURVE",
"53 458 CURVE",
"45 447 LINE",
"45 415 LINE",
"111 415 LINE",
"111 290 OFFCURVE",
"107 114 OFFCURVE",
"107 91 CURVE SMOOTH",
"107 64 OFFCURVE",
"153 37 OFFCURVE",
"192 37 CURVE",
"185 117 OFFCURVE",
"186 201 OFFCURVE",
"186 414 CURVE",
"228 413 OFFCURVE",
"426 411 OFFCURVE",
"447 411 CURVE SMOOTH",
"458 411 OFFCURVE",
"459 427 OFFCURVE",
"451 470 CURVE",
"405 468 OFFCURVE",
"204 465 OFFCURVE",
"187 465 CURVE"
);
}
);
width = 297;
}
);
leftMetricsKey = f;
},
{
color = 5;
glyphname = f.l;
lastChange = "2017-05-20 10:40:11 +0000";
layers = (
{
anchors = (
{
name = bottom;
position = "{186, 0}";
},
{
name = top;
position = "{186, 480}";
}
);
background = {
components = (
{
name = f;
transform = "{1, 0, 0, 1, -17, 0}";
}
);
};
layerId = "11343128-4963-4E5D-BE9C-B74F53B36FA5";
paths = (
{
closed = 1;
nodes = (
"186 395 LINE",
"236 394 OFFCURVE",
"351 385 OFFCURVE",
"360 385 CURVE SMOOTH",
"371 385 OFFCURVE",
"369 424 OFFCURVE",
"361 479 CURVE",
"325 477 OFFCURVE",
"245 474 OFFCURVE",
"228 473 CURVE",
"97 492 LINE",
"96 471 OFFCURVE",
"76 469 OFFCURVE",
"46 467 CURVE SMOOTH",
"29 466 LINE",
"29 397 LINE",
"33 397 OFFCURVE",
"88 397 OFFCURVE",
"103 397 CURVE"
);
},
{
closed = 1;
nodes = (
"28 65 LINE",
"25 0 LINE",
"320 0 LINE",
"324 65 LINE",
"230 75 LINE",
"167 75 LINE"
);
},
{
closed = 1;
nodes = (
"93 296 OFFCURVE",
"88 170 OFFCURVE",
"87 110 CURVE SMOOTH",
"87 82 OFFCURVE",
"130 68 OFFCURVE",
"155 66 CURVE SMOOTH",
"182 64 OFFCURVE",
"198 57 OFFCURVE",
"233 57 CURVE",
"229 135 OFFCURVE",
"229 191 OFFCURVE",
"229 394 CURVE",
"226 564 OFFCURVE",
"238 620 OFFCURVE",
"280 652 CURVE",
"326 653 OFFCURVE",
"418 644 OFFCURVE",
"451 612 CURVE",
"487 620 LINE",
"492 636 OFFCURVE",
"511 695 OFFCURVE",
"516 729 CURVE",
"468 765 OFFCURVE",
"292 766 OFFCURVE",
"196 697 CURVE SMOOTH",
"126 647 OFFCURVE",
"93 559 OFFCURVE",
"93 421 CURVE SMOOTH"
);
}
);
width = 340;
},
{
anchors = (
{
name = bottom;
position = "{173, 0}";
},
{
name = top;
position = "{173, 480}";
}
);
background = {
components = (
{
name = f_f_b.liga;
transform = "{1, 0, 0, 1, -4, 0}";
}
);
};
layerId = "0B1F8F77-7348-4C28-A663-EA76351238C4";
paths = (
{
closed = 1;
nodes = (
"176 414 LINE",
"204 413 OFFCURVE",
"280 411 OFFCURVE",
"302 411 CURVE SMOOTH",
"313 411 OFFCURVE",
"314 427 OFFCURVE",
"306 470 CURVE",
"260 468 OFFCURVE",
"199 465 OFFCURVE",
"182 465 CURVE",
"115 533 LINE",
"105 483 LINE",
"104 462 OFFCURVE",
"96 460 OFFCURVE",
"56 458 CURVE SMOOTH",
"39 457 LINE",
"39 415 LINE",
"43 415 OFFCURVE",
"99 415 OFFCURVE",
"114 415 CURVE"
);
},
{
closed = 1;
nodes = (
"39 45 LINE",
"35 0 LINE",
"271 0 LINE",
"275 46 LINE",
"184 55 LINE",
"154 55 LINE"
);
},
{
closed = 1;
nodes = (
"181 117 OFFCURVE",
"181 202 OFFCURVE",
"181 417 CURVE",
"105 417 LINE",
"105 292 OFFCURVE",
"101 114 OFFCURVE",
"101 91 CURVE SMOOTH",
"101 64 OFFCURVE",
"150 37 OFFCURVE",
"189 37 CURVE"
);
},
{
closed = 1;
nodes = (
"180 363 LINE",
"180 528 OFFCURVE",
"176 640 OFFCURVE",
"253 676 CURVE",
"303 683 OFFCURVE",
"399 675 OFFCURVE",
"420 662 CURVE",
"432 662 LINE",
"438 682 OFFCURVE",
"494 724 OFFCURVE",
"497 739 CURVE",
"432 762 OFFCURVE",
"210 757 OFFCURVE",
"148 645 CURVE SMOOTH",
"123 599 OFFCURVE",
"107 540 OFFCURVE",
"105 458 CURVE"
);
}
);
width = 310;
}
);
leftKerningGroup = f;
leftMetricsKey = f;
rightKerningGroup = g;
},
{
color = 5;
glyphname = f.t;
lastChange = "2017-05-20 10:40:11 +0000";
layers = (
{
anchors = (
{
name = bottom;
position = "{187, 0}";
},
{
name = top;
position = "{187, 480}";
}
);
background = {
components = (
{
name = f;
transform = "{1, 0, 0, 1, -17, 0}";
}
);
};
layerId = "11343128-4963-4E5D-BE9C-B74F53B36FA5";
paths = (
{
closed = 1;
nodes = (
"187 398 LINE",
"237 397 OFFCURVE",
"441 388 OFFCURVE",
"450 388 CURVE SMOOTH",
"461 388 OFFCURVE",
"459 424 OFFCURVE",
"451 479 CURVE",
"415 477 OFFCURVE",
"246 474 OFFCURVE",
"229 473 CURVE",
"98 492 LINE",
"97 471 OFFCURVE",
"70 469 OFFCURVE",
"40 467 CURVE",
"29 456 LINE",
"29 397 LINE",
"33 397 OFFCURVE",
"89 397 OFFCURVE",
"104 397 CURVE"
);
},
{
closed = 1;
nodes = (
"28 65 LINE",
"25 0 LINE",
"321 0 LINE",
"325 65 LINE",
"231 75 LINE",
"168 75 LINE"
);
},
{
closed = 1;
nodes = (
"94 296 OFFCURVE",
"89 170 OFFCURVE",
"88 110 CURVE SMOOTH",
"88 82 OFFCURVE",
"131 68 OFFCURVE",
"156 66 CURVE SMOOTH",
"183 64 OFFCURVE",
"199 57 OFFCURVE",
"234 57 CURVE",
"230 135 OFFCURVE",
"230 191 OFFCURVE",
"230 394 CURVE",
"227 564 OFFCURVE",
"240 617 OFFCURVE",
"282 649 CURVE",
"328 650 OFFCURVE",
"389 622 OFFCURVE",
"422 590 CURVE",
"458 603 LINE",
"463 619 OFFCURVE",
"482 674 OFFCURVE",
"487 708 CURVE",
"451 757 OFFCURVE",
"293 766 OFFCURVE",
"197 697 CURVE SMOOTH",
"127 647 OFFCURVE",
"94 559 OFFCURVE",
"94 421 CURVE SMOOTH"
);
}
);
width = 350;
},
{
anchors = (
{
name = bottom;
position = "{153, 0}";
},
{
name = top;
position = "{153, 480}";
}
);
background = {
components = (
{
name = f;
}
);
};
layerId = "0B1F8F77-7348-4C28-A663-EA76351238C4";
paths = (
{
closed = 1;
nodes = (
"44 45 LINE",
"40 0 LINE",
"283 0 LINE",
"287 46 LINE",
"189 55 LINE",
"159 55 LINE"
);
},
{
closed = 1;
nodes = (
"130 607 OFFCURVE",
"115 562 OFFCURVE",
"111 471 CURVE",
"106 461 OFFCURVE",
"91 461 OFFCURVE",
"61 458 CURVE SMOOTH",
"50 457 LINE",
"43 447 LINE",
"44 415 LINE",
"110 415 LINE",
"110 290 OFFCURVE",
"106 114 OFFCURVE",
"106 91 CURVE SMOOTH",
"106 64 OFFCURVE",
"155 37 OFFCURVE",
"194 37 CURVE",
"186 117 OFFCURVE",
"186 201 OFFCURVE",
"186 414 CURVE",
"217 413 OFFCURVE",
"386 411 OFFCURVE",
"407 411 CURVE SMOOTH",
"418 411 OFFCURVE",
"419 427 OFFCURVE",
"411 470 CURVE",
"375 469 OFFCURVE",
"239 464 OFFCURVE",
"185 465 CURVE",
"187 574 OFFCURVE",
"196 648 OFFCURVE",
"256 676 CURVE",
"291 677 OFFCURVE",
"356 664 OFFCURVE",
"386 639 CURVE",
"404 644 LINE",
"410 664 OFFCURVE",
"418 693 OFFCURVE",
"421 708 CURVE",
"386 764 OFFCURVE",
"213 757 OFFCURVE",
"151 645 CURVE SMOOTH"
);
}
);
width = 296;
}
);
leftKerningGroup = f;
leftMetricsKey = f;
rightKerningGroup = t;
},
{
glyphname = g;
lastChange = "2017-07-21 20:22:09 +0000";
layers = (
{
anchors = (
{
name = bottom;
position = "{281, 0}";
},
{
name = top;
position = "{281, 480}";
}
);
background = {
paths = (
{
closed = 1;
nodes = (
"393 433 LINE",
"347 468 OFFCURVE",
"282 483 OFFCURVE",
"224 483 CURVE",
"55 433 OFFCURVE",
"24 170 OFFCURVE",
"139 40 CURVE SMOOTH",
"152 24 OFFCURVE",
"176 13 OFFCURVE",
"189 13 CURVE",
"175 -1 OFFCURVE",
"142 -34 OFFCURVE",
"120 -54 CURVE SMOOTH",
"101 -71 OFFCURVE",
"63 -95 OFFCURVE",
"43 -108 CURVE",
"50 -156 LINE",
"59 -166 OFFCURVE",
"70 -175 OFFCURVE",
"77 -180 CURVE SMOOTH",
"103 -200 OFFCURVE",
"186 -253 OFFCURVE",
"329 -253 CURVE",
"435 -222 OFFCURVE",
"477 -137 OFFCURVE",
"462 70 CURVE SMOOTH",
"458 134 OFFCURVE",
"459 240 OFFCURVE",
"472 352 CURVE SMOOTH",
"476 383 OFFCURVE",
"479 424 OFFCURVE",
"486 456 CURVE",
"438 479 LINE"
);
},
{
closed = 1;
nodes = (
"176 238 OFFCURVE",
"182 371 OFFCURVE",
"247 414 CURVE",
"283 414 OFFCURVE",
"329 380 OFFCURVE",
"356 349 CURVE",
"356 347 LINE",
"358 324 OFFCURVE",
"357 282 OFFCURVE",
"358 238 CURVE",
"343 210 OFFCURVE",
"280 122 OFFCURVE",
"264 106 CURVE",
"255 106 OFFCURVE",
"237 120 OFFCURVE",
"225 143 CURVE SMOOTH"
);
},
{
closed = 1;
nodes = (
"200 -58 OFFCURVE",
"261 -10 OFFCURVE",
"353 116 CURVE",
"360 -112 OFFCURVE",
"337 -163 OFFCURVE",
"323 -186 CURVE",
"296 -177 OFFCURVE",
"205 -137 OFFCURVE",
"169 -102 CURVE"
);
}
);
};
guideLines = (
{
angle = 90;
position = "{73, 121}";
}
);
layerId = "11343128-4963-4E5D-BE9C-B74F53B36FA5";
paths = (
{
closed = 1;
nodes = (
"390 488 OFFCURVE",
"282 488 CURVE SMOOTH",
"160 488 OFFCURVE",
"58 415 OFFCURVE",
"58 298 CURVE SMOOTH",
"58 196 OFFCURVE",
"131 139 OFFCURVE",
"245 139 CURVE SMOOTH",
"367 139 OFFCURVE",
"464 213 OFFCURVE",
"464 329 CURVE SMOOTH",
"464 431 OFFCURVE"
);
},
{
closed = 1;
nodes = (
"247 204 OFFCURVE",
"198 257 OFFCURVE",
"198 332 CURVE SMOOTH",
"198 375 OFFCURVE",
"220 413 OFFCURVE",
"273 416 CURVE",
"207 403 LINE",
"274 425 OFFCURVE",
"330 369 OFFCURVE",
"330 297 CURVE SMOOTH",
"330 253 OFFCURVE",
"306 217 OFFCURVE",
"252 205 CURVE",
"318 219 LINE"
);
},
{
closed = 1;
nodes = (
"145 144 OFFCURVE",
"114 114 OFFCURVE",
"69 78 CURVE",
"76 9 LINE",
"134 -36 OFFCURVE",
"396 -31 OFFCURVE",
"405 -72 CURVE",
"405 -151 OFFCURVE",
"181 -139 OFFCURVE",
"149 -90 CURVE",
"166 -39 OFFCURVE",
"174 -15 OFFCURVE",
"188 8 CURVE",
"139 28 LINE",
"26 -97 LINE",
"16 -164 OFFCURVE",
"70 -251 OFFCURVE",
"207 -251 CURVE SMOOTH",
"409 -251 OFFCURVE",
"506 -126 OFFCURVE",
"511 -28 CURVE SMOOTH",
"512 14 OFFCURVE",
"490 69 OFFCURVE",
"341 84 CURVE SMOOTH",
"287 89 OFFCURVE",
"215 91 OFFCURVE",
"208 109 CURVE SMOOTH",
"201 127 OFFCURVE",
"239 160 OFFCURVE",
"259 185 CURVE",
"196 211 LINE"
);
},
{
closed = 1;
nodes = (
"480 485 OFFCURVE",
"423 463 OFFCURVE",
"381 437 CURVE",
"408 392 LINE",
"452 395 OFFCURVE",
"473 392 OFFCURVE",
"521 395 CURVE",
"521 419 OFFCURVE",
"517 467 OFFCURVE",
"501 490 CURVE"
);
}
);
width = 526;
},
{
anchors = (
{
name = bottom;
position = "{254, 0}";
},
{
name = top;
position = "{254, 480}";
}
);
background = {
paths = (
{
closed = 1;
nodes = (
"110 483 OFFCURVE",
"42 464 OFFCURVE",
"4 447 CURVE",
"3 435 OFFCURVE",
"5 424 OFFCURVE",
"9 412 CURVE",
"38 409 OFFCURVE",
"67 406 OFFCURVE",
"95 397 CURVE",
"95 397 OFFCURVE",
"97 326 OFFCURVE",
"97 258 CURVE SMOOTH",
"97 -121 LINE SMOOTH",
"97 -142 OFFCURVE",
"96 -156 OFFCURVE",
"93 -177 CURVE",
"72 -184 OFFCURVE",
"41 -192 OFFCURVE",
"14 -195 CURVE",
"14 -210 OFFCURVE",
"17 -230 OFFCURVE",
"21 -237 CURVE",
"61 -237 OFFCURVE",
"100 -236 OFFCURVE",
"140 -236 CURVE SMOOTH",
"177 -236 OFFCURVE",
"239 -236 OFFCURVE",
"294 -237 CURVE",
"298 -229 OFFCURVE",
"300 -209 OFFCURVE",
"300 -195 CURVE",
"268 -185 OFFCURVE",
"221 -178 OFFCURVE",
"182 -176 CURVE",
"181 -153 OFFCURVE",
"180 -129 OFFCURVE",
"180 -102 CURVE SMOOTH",
"180 43 LINE",
"221 16 OFFCURVE",
"271 -4 OFFCURVE",
"311 -4 CURVE SMOOTH",
"427 -4 OFFCURVE",
"510 131 OFFCURVE",
"510 254 CURVE SMOOTH",
"510 395 OFFCURVE",
"437 493 OFFCURVE",
"330 493 CURVE SMOOTH",
"269 493 OFFCURVE",
"205 452 OFFCURVE",
"174 425 CURVE",
"170 449 OFFCURVE",
"164 475 OFFCURVE",
"161 486 CURVE"
);
},
{
closed = 1;
nodes = (
"180 258 LINE SMOOTH",
"180 295 OFFCURVE",
"179 344 OFFCURVE",
"178 377 CURVE",
"216 405 OFFCURVE",
"271 427 OFFCURVE",
"303 427 CURVE SMOOTH",
"384 427 OFFCURVE",
"426 312 OFFCURVE",
"426 228 CURVE SMOOTH",
"426 155 OFFCURVE",
"395 95 OFFCURVE",
"372 79 CURVE SMOOTH",
"355 67 OFFCURVE",
"335 60 OFFCURVE",
"314 60 CURVE SMOOTH",
"263 60 OFFCURVE",
"211 95 OFFCURVE",
"180 125 CURVE"
);
}
);
};
guideLines = (
{
angle = 90;
position = "{46, 121}";
},
{
angle = 98;
position = "{257, 220}";
},
{
angle = 90;
position = "{478, 49}";
},
{
angle = 98;
position = "{497, 220}";
}
);
layerId = "0B1F8F77-7348-4C28-A663-EA76351238C4";
paths = (
{
closed = 1;
nodes = (
"436 425 OFFCURVE",
"374 489 OFFCURVE",
"267 489 CURVE SMOOTH",
"146 489 OFFCURVE",
"50 417 OFFCURVE",
"50 300 CURVE SMOOTH",
"50 199 OFFCURVE",
"115 139 OFFCURVE",
"228 139 CURVE SMOOTH",
"347 139 OFFCURVE",
"436 213 OFFCURVE",
"436 327 CURVE SMOOTH"
);
},
{
closed = 1;
nodes = (
"286 445 OFFCURVE",
"357 424 OFFCURVE",
"357 320 CURVE SMOOTH",
"357 256 OFFCURVE",
"315 190 OFFCURVE",
"235 175 CURVE",
"292 187 LINE",
"210 173 OFFCURVE",
"129 217 OFFCURVE",
"129 309 CURVE SMOOTH",
"129 373 OFFCURVE",
"175 436 OFFCURVE",
"249 451 CURVE",
"192 440 LINE"
);
},
{
closed = 1;
nodes = (
"133 131 OFFCURVE",
"103 91 OFFCURVE",
"58 63 CURVE",
"62 22 LINE",
"122 1 OFFCURVE",
"191 -8 OFFCURVE",
"275 -22 CURVE SMOOTH",
"386 -40 OFFCURVE",
"436 -53 OFFCURVE",
"419 -116 CURVE",
"341 -207 OFFCURVE",
"147 -215 OFFCURVE",
"102 -119 CURVE",
"123 -68 OFFCURVE",
"180 3 OFFCURVE",
"189 26 CURVE",
"154 23 LINE",
"27 -100 LINE",
"-1 -197 OFFCURVE",
"103 -252 OFFCURVE",
"220 -252 CURVE SMOOTH",
"349 -252 OFFCURVE",
"484 -182 OFFCURVE",
"484 -65 CURVE SMOOTH",
"484 12 OFFCURVE",
"421 30 OFFCURVE",
"302 46 CURVE SMOOTH",
"199 60 OFFCURVE",
"165 60 OFFCURVE",
"160 73 CURVE SMOOTH",
"155 86 OFFCURVE",
"203 145 OFFCURVE",
"223 170 CURVE",
"178 188 LINE"
);
},
{
closed = 1;
nodes = (
"455 473 OFFCURVE",
"410 467 OFFCURVE",
"355 464 CURVE",
"381 425 LINE",
"416 422 OFFCURVE",
"460 417 OFFCURVE",
"499 415 CURVE",
"497 448 OFFCURVE",
"494 463 OFFCURVE",
"490 481 CURVE"
);
}
);
width = 499;
}
);
leftKerningGroup = o;
note = "this one too";
rightKerningGroup = g;
unicode = 0067;
},
{
glyphname = idotless;
lastChange = "2017-07-21 20:18:40 +0000";
layers = (
{
anchors = (
{
name = bottom;
position = "{155, 0}";
},
{
name = ogonek;
position = "{266, 10}";
},
{
name = top;
position = "{151, 503}";
}
);
background = {
components = (
{
name = h;
transform = "{1, 0, 0, 1, 6, -258}";
}
);
};
guideLines = (
{
position = "{162, 407}";
},
{
position = "{180, 457}";
},
{
angle = 98;
position = "{70, 183}";
},
{
angle = 85;
position = "{67, 202}";
}
);
layerId = "11343128-4963-4E5D-BE9C-B74F53B36FA5";
paths = (
{
closed = 1;
nodes = (
"39 65 LINE",
"34 0 LINE",
"286 0 LINE",
"291 66 LINE",
"229 76 LINE",
"169 76 LINE"
);
},
{
closed = 1;
nodes = (
"229 73 OFFCURVE",
"223 127 OFFCURVE",
"223 269 CURVE SMOOTH",
"223 334 OFFCURVE",
"227 435 OFFCURVE",
"223 472 CURVE",
"212 483 LINE",
"184 486 OFFCURVE",
"92 478 OFFCURVE",
"30 464 CURVE",
"36 404 LINE",
"90 400 LINE",
"96 340 OFFCURVE",
"92 165 OFFCURVE",
"92 111 CURVE SMOOTH",
"92 83 OFFCURVE",
"134 69 OFFCURVE",
"155 67 CURVE SMOOTH",
"182 64 OFFCURVE",
"205 50 OFFCURVE",
"240 50 CURVE"
);
}
);
width = 316;
},
{
anchors = (
{
name = bottom;
position = "{160, 0}";
},
{
name = ogonek;
position = "{271, 10}";
},
{
name = top;
position = "{146, 480}";
}
);
background = {
components = (
{
name = n;
transform = "{1, 0, 0, 1, 21, 0}";
}
);
};
guideLines = (
{
position = "{164, 417}";
},
{
position = "{142, 457}";
},
{
position = "{295, 21}";
},
{
position = "{273, 61}";
},
{
position = "{67, 463}";
}
);
layerId = "0B1F8F77-7348-4C28-A663-EA76351238C4";
paths = (
{
closed = 1;
nodes = (
"33 46 LINE",
"30 0 LINE",
"287 0 LINE",
"290 46 LINE",
"201 55 LINE",
"163 55 LINE"
);
},
{
closed = 1;
nodes = (
"191 46 OFFCURVE",
"189 120 OFFCURVE",
"191 251 CURVE SMOOTH",
"192 313 OFFCURVE",
"194 388 OFFCURVE",
"196 475 CURVE",
"188 481 LINE",
"139 478 OFFCURVE",
"80 473 OFFCURVE",
"31 463 CURVE",
"36 420 LINE",
"108 417 LINE",
"114 357 OFFCURVE",
"114 277 OFFCURVE",
"114 91 CURVE SMOOTH",
"114 61 OFFCURVE",
"152 30 OFFCURVE",
"198 30 CURVE"
);
}
);
width = 297;
}
);
leftKerningGroup = i;
rightKerningGroup = i;
unicode = 0131;
},
{
glyphname = j;
lastChange = "2017-07-21 19:12:58 +0000";
layers = (
{
background = {
paths = (
{
closed = 1;
nodes = (
"203 63 OFFCURVE",
"194 130 OFFCURVE",
"198 289 CURVE SMOOTH",
"200 361 OFFCURVE",
"203 450 OFFCURVE",
"194 481 CURVE",
"175 486 OFFCURVE",
"102 490 OFFCURVE",
"12 457 CURVE",
"21 406 LINE",
"36 411 OFFCURVE",
"49 414 OFFCURVE",
"63 415 CURVE",
"99 382 OFFCURVE",
"80 124 OFFCURVE",
"78 101 CURVE SMOOTH",
"75 73 OFFCURVE",
"118 59 OFFCURVE",
"139 57 CURVE SMOOTH",
"166 54 OFFCURVE",
"179 40 OFFCURVE",
"214 40 CURVE"
);
}
);
};
components = (
{
name = jdotless;
},
{
name = dotaccentcomb;
transform = "{1, 0, 0, 1, -134, 0}";
}
);
layerId = "11343128-4963-4E5D-BE9C-B74F53B36FA5";
width = 250;
},
{
background = {
paths = (
{
closed = 1;
nodes = (
"203 63 OFFCURVE",
"194 130 OFFCURVE",
"198 289 CURVE SMOOTH",
"200 361 OFFCURVE",
"203 450 OFFCURVE",
"194 481 CURVE",
"175 486 OFFCURVE",
"102 490 OFFCURVE",
"12 457 CURVE",
"21 406 LINE",
"36 411 OFFCURVE",
"49 414 OFFCURVE",
"63 415 CURVE",
"99 382 OFFCURVE",
"80 124 OFFCURVE",
"78 101 CURVE SMOOTH",
"75 73 OFFCURVE",
"118 59 OFFCURVE",
"139 57 CURVE SMOOTH",
"166 54 OFFCURVE",
"179 40 OFFCURVE",
"214 40 CURVE"
);
}
);
};
components = (
{
name = jdotless;
},
{
name = dotaccentcomb;
transform = "{1, 0, 0, 1, -115, 0}";
}
);
layerId = "0B1F8F77-7348-4C28-A663-EA76351238C4";
width = 286;
}
);
leftKerningGroup = j;
rightKerningGroup = g;
unicode = 006A;
},
{
glyphname = jdotless;
lastChange = "2017-07-21 19:24:49 +0000";
layers = (
{
anchors = (
{
name = bottom;
position = "{120, 0}";
},
{
name = top;
position = "{120, 480}";
}
);
background = {
components = (
{
name = i;
transform = "{1, 0, 0, 1, -21, 0}";
}
);
};
guideLines = (
{
position = "{133, 407}";
},
{
position = "{151, 457}";
}
);
layerId = "11343128-4963-4E5D-BE9C-B74F53B36FA5";
paths = (
{
closed = 1;
nodes = (
"187 483 LINE",
"143 486 OFFCURVE",
"78 478 OFFCURVE",
"4 464 CURVE",
"10 407 LINE",
"64 403 LINE",
"68 354 OFFCURVE",
"68 252 OFFCURVE",
"68 144 CURVE SMOOTH",
"68 -76 OFFCURVE",
"25 -141 OFFCURVE",
"5 -161 CURVE",
"43 -202 LINE",
"140 -144 OFFCURVE",
"199 -28 OFFCURVE",
"199 218 CURVE SMOOTH",
"199 351 OFFCURVE",
"199 440 OFFCURVE",
"198 472 CURVE"
);
}
);
width = 250;
},
{
anchors = (
{
name = bottom;
position = "{139, 0}";
},
{
name = top;
position = "{139, 480}";
}
);
background = {
components = (
{
name = i;
transform = "{1, 0, 0, 1, -5, 0}";
}
);
};
guideLines = (
{
position = "{170, 457}";
},
{
position = "{179, 419}";
},
{
position = "{310, 21}";
},
{
position = "{288, 59}";
},
{
angle = 98;
position = "{82, 220}";
},
{
angle = 90;
position = "{37, 265}";
}
);
layerId = "0B1F8F77-7348-4C28-A663-EA76351238C4";
paths = (
{
closed = 1;
nodes = (
"139 479 OFFCURVE",
"78 473 OFFCURVE",
"34 464 CURVE",
"39 420 LINE",
"108 417 LINE",
"112 368 OFFCURVE",
"112 252 OFFCURVE",
"112 144 CURVE SMOOTH",
"112 -76 OFFCURVE",
"53 -144 OFFCURVE",
"33 -164 CURVE",
"55 -188 LINE",
"142 -132 OFFCURVE",
"187 -36 OFFCURVE",
"187 218 CURVE SMOOTH",
"187 341 OFFCURVE",
"189 422 OFFCURVE",
"191 475 CURVE",
"183 481 LINE"
);
}
);
width = 286;
}
);
leftKerningGroup = j;
rightKerningGroup = g;
unicode = 0237;
},
{
glyphname = k;
lastChange = "2017-07-21 19:26:15 +0000";
layers = (
{
anchors = (
{
name = bottom;
position = "{282, 0}";
},
{
name = top;
position = "{282, 480}";
}
);
background = {
components = (
{
name = n;
transform = "{1, 0, 0, 1, -3, 1}";
}
);
};
components = (
{
name = _part.stem_ascender;
transform = "{1, 0, 0, 1, 21, 0}";
}
);
guideLines = (
{
position = "{120, 666}";
},
{
position = "{138, 716}";
},
{
position = "{161, 21}";
},
{
position = "{179, 71}";
}
);
layerId = "11343128-4963-4E5D-BE9C-B74F53B36FA5";
paths = (
{
closed = 1;
nodes = (
"241 235 LINE",
"302 118 OFFCURVE",
"317 85 OFFCURVE",
"374 0 CURVE",
"441 -6 OFFCURVE",
"527 10 OFFCURVE",
"547 21 CURVE",
"552 78 LINE",
"498 82 LINE",
"437 144 OFFCURVE",
"389 205 OFFCURVE",
"334 287 CURVE"
);
},
{
closed = 1;
nodes = (
"376 351 OFFCURVE",
"339 295 OFFCURVE",
"241 282 CURVE",
"241 235 LINE",
"423 256 OFFCURVE",
"505 351 OFFCURVE",
"497 480 CURVE",
"434 481 OFFCURVE",
"379 475 OFFCURVE",
"315 462 CURVE",
"328 403 LINE",
"377 399 LINE"
);
}
);
width = 557;
},
{
anchors = (
{
name = bottom;
position = "{287, 0}";
},
{
name = top;
position = "{287, 480}";
}
);
background = {
components = (
{
name = n;
transform = "{1, 0, 0, 1, -7, 0}";
}
);
};
components = (
{
name = _part.stem_ascender;
transform = "{1, 0, 0, 1, 11, 0}";
}
);
layerId = "0B1F8F77-7348-4C28-A663-EA76351238C4";
paths = (
{
closed = 1;
nodes = (
"211 243 LINE",
"302 118 OFFCURVE",
"351 46 OFFCURVE",
"404 -5 CURVE",
"448 -3 OFFCURVE",
"476 4 OFFCURVE",
"520 18 CURVE",
"523 61 LINE",
"463 61 LINE",
"401 112 OFFCURVE",
"350 171 OFFCURVE",
"271 266 CURVE"
);
},
{
closed = 1;
nodes = (
"398 369 OFFCURVE",
"291 279 OFFCURVE",
"211 268 CURVE",
"211 243 LINE",
"361 243 OFFCURVE",
"494 380 OFFCURVE",
"482 476 CURVE",
"474 481 LINE",
"429 479 OFFCURVE",
"365 471 OFFCURVE",
"316 463 CURVE",
"321 421 LINE",
"388 419 LINE"
);
}
);
width = 535;
visible = 1;
}
);
leftKerningGroup = l;
leftMetricsKey = l;
rightKerningGroup = i;
unicode = 006B;
},
{
glyphname = l;
lastChange = "2017-05-20 10:40:11 +0000";
layers = (
{
anchors = (
{
name = bottom;
position = "{159, 0}";
},
{
name = center;
position = "{155, 348}";
},
{
name = top;
position = "{155, 718}";
},
{
name = topright;
position = "{214, 740}";
}
);
background = {
paths = (
{
closed = 1;
nodes = (
"223 63 OFFCURVE",
"217 157 OFFCURVE",
"217 347 CURVE SMOOTH",
"217 509 OFFCURVE",
"225 709 OFFCURVE",
"215 740 CURVE",
"196 745 OFFCURVE",
"121 749 OFFCURVE",
"31 716 CURVE",
"40 666 LINE",
"90 666 LINE",
"100 580 OFFCURVE",
"97 123 OFFCURVE",
"95 101 CURVE SMOOTH",
"92 73 OFFCURVE",
"135 59 OFFCURVE",
"156 57 CURVE SMOOTH",
"183 54 OFFCURVE",
"196 40 OFFCURVE",
"231 40 CURVE"
);
}
);
};
components = (
{
name = _part.stem_ascender;
transform = "{1, 0, 0, 1, 26, 0}";
}
);
guideLines = (
{
position = "{162, 666}";
},
{
position = "{180, 716}";
}
);
layerId = "11343128-4963-4E5D-BE9C-B74F53B36FA5";
width = 325;
},
{
anchors = (
{
name = bottom;
position = "{144, 0}";
},
{
name = center;
position = "{144, 341}";
},
{
name = top;
position = "{144, 710}";
},
{
name = topright;
position = "{200, 740}";
}
);
background = {
paths = (
{
closed = 1;
nodes = (
"208 63 OFFCURVE",
"202 157 OFFCURVE",
"202 347 CURVE SMOOTH",
"202 509 OFFCURVE",
"210 709 OFFCURVE",
"200 740 CURVE",
"181 745 OFFCURVE",
"106 749 OFFCURVE",
"16 716 CURVE",
"25 666 LINE",
"75 666 LINE",
"85 580 OFFCURVE",
"82 123 OFFCURVE",
"80 101 CURVE SMOOTH",
"77 73 OFFCURVE",
"120 59 OFFCURVE",
"141 57 CURVE SMOOTH",
"168 54 OFFCURVE",
"181 40 OFFCURVE",
"216 40 CURVE"
);
}
);
};
components = (
{
name = _part.stem_ascender;
transform = "{1, 0, 0, 1, 11, 0}";
}
);
guideLines = (
{
position = "{147, 666}";
},
{
position = "{165, 716}";
}
);
layerId = "0B1F8F77-7348-4C28-A663-EA76351238C4";
width = 287;
}
);
leftKerningGroup = l;
rightKerningGroup = i;
unicode = 006C;
},
{
glyphname = m;
lastChange = "2017-07-15 20:34:51 +0000";
layers = (
{
anchors = (
{
name = bottom;
position = "{411, 0}";
},
{
name = top;
position = "{411, 480}";
}
);
background = {
components = (
{
name = n;
transform = "{1, 0, 0, 1, 276, 0}";
}
);
};
components = (
{
name = _part.bow;
transform = "{1, 0, 0, 1, 69, 0}";
},
{
name = _part.stem;
transform = "{1, 0, 0, 1, 18, 0}";
}
);
guideLines = (
{
position = "{165, 21}";
},
{
position = "{183, 71}";
},
{
position = "{165, 407}";
},
{
position = "{183, 457}";
}
);
layerId = "11343128-4963-4E5D-BE9C-B74F53B36FA5";
paths = (
{
closed = 1;
nodes = (
"509 111 OFFCURVE",
"507 167 OFFCURVE",
"507 281 CURVE SMOOTH",
"507 318 OFFCURVE",
"507 331 OFFCURVE",
"506 375 CURVE SMOOTH",
"504 453 OFFCURVE",
"436 485 OFFCURVE",
"363 483 CURVE",
"291 458 OFFCURVE",
"246 426 OFFCURVE",
"210 404 CURVE",
"224 353 LINE",
"266 367 OFFCURVE",
"302 374 OFFCURVE",
"339 378 CURVE",
"368 378 OFFCURVE",
"373 343 OFFCURVE",
"373 263 CURVE SMOOTH",
"373 72 LINE",
"336 66 LINE",
"332 0 LINE",
"565 0 LINE",
"569 66 LINE",
"515 73 LINE"
);
}
);
width = 869;
},
{
background = {
components = (
{
name = n;
transform = "{1, 0, 0, 1, -16, 0}";
}
);
};
components = (
{
name = _part.stem;
transform = "{1, 0, 0, 1, 14, 0}";
},
{
name = _part.bow;
transform = "{1, 0, 0, 1, 78, 0}";
}
);
guideLines = (
{
position = "{172, 417}";
},
{
position = "{150, 457}";
},
{
position = "{303, 21}";
},
{
position = "{281, 61}";
},
{
angle = 98;
position = "{340, 183}";
},
{
angle = 85;
position = "{538, 202}";
}
);
layerId = "0B1F8F77-7348-4C28-A663-EA76351238C4";
paths = (
{
closed = 1;
nodes = (
"479 85 OFFCURVE",
"478 150 OFFCURVE",
"478 282 CURVE SMOOTH",
"478 384 LINE SMOOTH",
"478 462 OFFCURVE",
"413 493 OFFCURVE",
"332 480 CURVE",
"258 448 OFFCURVE",
"189 419 OFFCURVE",
"158 401 CURVE",
"177 370 LINE",
"217 382 OFFCURVE",
"294 405 OFFCURVE",
"331 411 CURVE SMOOTH",
"367 417 OFFCURVE",
"403 399 OFFCURVE",
"403 339 CURVE SMOOTH",
"402 58 LINE",
"338 46 LINE",
"334 0 LINE",
"567 0 LINE",
"571 45 LINE",
"486 56 LINE"
);
}
);
width = 868;
},
{
anchors = (
{
name = bottom;
position = "{405, 0}";
},
{
name = top;
position = "{405, 480}";
}
);
associatedMasterId = "11343128-4963-4E5D-BE9C-B74F53B36FA5";
background = {
components = (
{
name = _part.bow;
transform = "{1, 0, 0, 1, -233, 0}";
}
);
};
guideLines = (
{
position = "{159, 21}";
},
{
position = "{177, 71}";
},
{
position = "{159, 407}";
},
{
position = "{177, 457}";
}
);
layerId = "5D1A6379-2141-4A13-A27D-FE37D9E12BA6";
name = black;
paths = (
{
closed = 1;
nodes = (
"504 98 OFFCURVE",
"501 147 OFFCURVE",
"501 281 CURVE SMOOTH",
"501 318 OFFCURVE",
"501 305 OFFCURVE",
"500 349 CURVE SMOOTH",
"498 427 OFFCURVE",
"430 489 OFFCURVE",
"337 487 CURVE",
"276 454 OFFCURVE",
"242 429 OFFCURVE",
"212 405 CURVE",
"215 332 LINE",
"247 342 OFFCURVE",
"268 349 OFFCURVE",
"293 358 CURVE",
"336 358 OFFCURVE",
"326 322 OFFCURVE",
"326 142 CURVE SMOOTH",
"326 109 OFFCURVE",
"321 89 OFFCURVE",
"296 86 CURVE",
"312 56 OFFCURVE",
"473 60 OFFCURVE",
"518 60 CURVE"
);
},
{
closed = 1;
nodes = (
"296 86 LINE",
"292 0 LINE",
"550 0 LINE",
"551 86 LINE",
"471 96 LINE"
);
},
{
closed = 1;
nodes = (
"442 313 LINE",
"487 331 OFFCURVE",
"510 346 OFFCURVE",
"538 358 CURVE",
"577 358 OFFCURVE",
"571 310 OFFCURVE",
"571 240 CURVE",
"571 179 OFFCURVE",
"571 157 OFFCURVE",
"571 127 CURVE SMOOTH",
"571 77 OFFCURVE",
"574 29 OFFCURVE",
"593 0 CURVE",
"703 -10 OFFCURVE",
"791 9 OFFCURVE",
"813 21 CURVE",
"805 98 LINE",
"757 98 LINE",
"743 156 OFFCURVE",
"748 269 OFFCURVE",
"748 344 CURVE SMOOTH",
"748 393 OFFCURVE",
"717 488 OFFCURVE",
"584 488 CURVE",
"527 454 OFFCURVE",
"487 419 OFFCURVE",
"441 385 CURVE"
);
},
{
closed = 1;
nodes = (
"20 85 LINE",
"17 0 LINE",
"274 0 LINE",
"278 86 LINE",
"244 96 LINE",
"174 96 LINE"
);
},
{
closed = 1;
nodes = (
"249 148 OFFCURVE",
"249 252 OFFCURVE",
"249 373 CURVE",
"249 381 OFFCURVE",
"242 388 OFFCURVE",
"242 396 CURVE",
"240 434 OFFCURVE",
"237 463 OFFCURVE",
"232 480 CURVE",
"191 493 OFFCURVE",
"38 477 OFFCURVE",
"10 459 CURVE",
"19 382 LINE",
"69 382 LINE",
"77 329 OFFCURVE",
"73 320 OFFCURVE",
"73 145 CURVE SMOOTH",
"73 103 OFFCURVE",
"153 43 OFFCURVE",
"249 86 CURVE"
);
}
);
width = 798;
}
);
leftKerningGroup = i;
leftMetricsKey = n;
rightKerningGroup = n;
unicode = 006D;
},
{
glyphname = n;
lastChange = "2017-07-21 20:44:34 +0000";
layers = (
{
anchors = (
{
name = bottom;
position = "{287, 0}";
},
{
name = top;
position = "{287, 480}";
}
);
background = {
components = (
{
name = i;
transform = "{1, 0, 0, 1, -3, 0}";
}
);
};
components = (
{
name = _part.stem;
transform = "{1, 0, 0, 1, 13, 0}";
},
{
name = _part.bow;
transform = "{1, 0, 0, 1, -209, 0}";
}
);
guideLines = (
{
position = "{162, 21}";
},
{
position = "{180, 71}";
},
{
position = "{162, 407}";
}
);
layerId = "11343128-4963-4E5D-BE9C-B74F53B36FA5";
paths = (
{
closed = 1;
nodes = (
"102 40 LINE",
"129 0 LINE",
"283 0 LINE",
"287 66 LINE",
"227 76 LINE",
"167 76 LINE"
);
}
);
width = 591;
},
{
anchors = (
{
name = bottom;
position = "{283, 0}";
},
{
name = top;
position = "{262, 480}";
}
);
background = {
components = (
{
name = m;
transform = "{1, 0, 0, 1, -274, 0}";
}
);
};
components = (
{
name = _part.stem;
transform = "{1, 0, 0, 1, 14, 0}";
},
{
name = _part.bow;
transform = "{1, 0, 0, 1, -196, 0}";
}
);
guideLines = (
{
position = "{158, 21}";
},
{
position = "{176, 71}";
},
{
position = "{158, 407}";
}
);
layerId = "0B1F8F77-7348-4C28-A663-EA76351238C4";
width = 580;
}
);
leftKerningGroup = i;
rightKerningGroup = n;
unicode = 006E;
},
{
glyphname = eng;
lastChange = "2017-05-20 10:40:11 +0000";
layers = (
{
anchors = (
{
name = bottom;
position = "{271, 0}";
},
{
name = top;
position = "{271, 480}";
}
);
background = {
paths = (
{
closed = 1;
nodes = (
"368 482 LINE",
"334 482 OFFCURVE",
"239 349 OFFCURVE",
"203 274 CURVE",
"203 292 OFFCURVE",
"207 443 OFFCURVE",
"201 452 CURVE SMOOTH",
"195 461 OFFCURVE",
"61 484 OFFCURVE",
"48 477 CURVE",
"39 434 LINE",
"87 407 LINE",
"90 272 OFFCURVE",
"74 46 OFFCURVE",
"77 34 CURVE SMOOTH",
"80 21 OFFCURVE",
"165 -3 OFFCURVE",
"190 -3 CURVE SMOOTH",
"218 -3 OFFCURVE",
"215 25 OFFCURVE",
"199 133 CURVE",
"250 271 OFFCURVE",
"311 323 OFFCURVE",
"340 359 CURVE",
"338 320 OFFCURVE",
"342 212 OFFCURVE",
"345 82 CURVE SMOOTH",
"348 11 OFFCURVE",
"340 -68 OFFCURVE",
"316 -104 CURVE",
"280 -123 OFFCURVE",
"220 -105 OFFCURVE",
"190 -84 CURVE",
"175 -130 LINE",
"219 -174 OFFCURVE",
"306 -212 OFFCURVE",
"382 -181 CURVE SMOOTH",
"457 -151 OFFCURVE",
"466 -45 OFFCURVE",
"464 27 CURVE SMOOTH",
"461 286 OFFCURVE",
"457 364 OFFCURVE",
"471 444 CURVE"
);
}
);
};
layerId = "11343128-4963-4E5D-BE9C-B74F53B36FA5";
paths = (
{
closed = 1;
nodes = (
"205 63 OFFCURVE",
"196 130 OFFCURVE",
"200 289 CURVE SMOOTH",
"202 361 OFFCURVE",
"205 450 OFFCURVE",
"196 481 CURVE",
"177 486 OFFCURVE",
"107 490 OFFCURVE",
"17 457 CURVE",
"26 407 LINE",
"72 407 LINE",
"100 353 OFFCURVE",
"82 122 OFFCURVE",
"80 101 CURVE SMOOTH",
"77 73 OFFCURVE",
"120 59 OFFCURVE",
"141 57 CURVE SMOOTH",
"168 54 OFFCURVE",
"181 40 OFFCURVE",
"216 40 CURVE"
);
},
{
closed = 1;
nodes = (
"23 55 LINE",
"20 0 LINE",
"266 0 LINE",
"270 56 LINE",
"203 66 LINE",
"153 66 LINE"
);
},
{
closed = 1;
nodes = (
"181 326 LINE",
"240 363 OFFCURVE",
"301 380 OFFCURVE",
"333 382 CURVE",
"349 294 OFFCURVE",
"354 -48 OFFCURVE",
"329 -106 CURVE",
"298 -115 OFFCURVE",
"231 -106 OFFCURVE",
"194 -88 CURVE",
"183 -105 OFFCURVE",
"176 -123 OFFCURVE",
"175 -130 CURVE",
"219 -174 OFFCURVE",
"331 -219 OFFCURVE",
"404 -163 CURVE SMOOTH",
"457 -122 OFFCURVE",
"465 -34 OFFCURVE",
"465 71 CURVE SMOOTH",
"465 143 OFFCURVE",
"463 309 OFFCURVE",
"462 382 CURVE SMOOTH",
"461 431 OFFCURVE",
"442 486 OFFCURVE",
"360 483 CURVE",
"289 462 OFFCURVE",
"190 406 OFFCURVE",
"181 381 CURVE"
);
}
);
width = 542;
},
{
anchors = (
{
name = _connect;
position = "{233, 0}";
},
{
name = bottom;
position = "{271, 0}";
},
{
name = top;
position = "{271, 480}";
}
);
background = {
paths = (
{
closed = 1;
nodes = (
"368 482 LINE",
"334 482 OFFCURVE",
"239 349 OFFCURVE",
"203 274 CURVE",
"203 292 OFFCURVE",
"207 443 OFFCURVE",
"201 452 CURVE SMOOTH",
"195 461 OFFCURVE",
"61 484 OFFCURVE",
"48 477 CURVE",
"39 434 LINE",
"87 407 LINE",
"90 272 OFFCURVE",
"74 46 OFFCURVE",
"77 34 CURVE SMOOTH",
"80 21 OFFCURVE",
"165 -3 OFFCURVE",
"190 -3 CURVE SMOOTH",
"218 -3 OFFCURVE",
"215 25 OFFCURVE",
"199 133 CURVE",
"250 271 OFFCURVE",
"311 323 OFFCURVE",
"340 359 CURVE",
"338 320 OFFCURVE",
"342 212 OFFCURVE",
"345 82 CURVE SMOOTH",
"348 11 OFFCURVE",
"340 -68 OFFCURVE",
"316 -104 CURVE",
"280 -123 OFFCURVE",
"220 -105 OFFCURVE",
"190 -84 CURVE",
"175 -130 LINE",
"219 -174 OFFCURVE",
"306 -212 OFFCURVE",
"382 -181 CURVE SMOOTH",
"457 -151 OFFCURVE",
"466 -45 OFFCURVE",
"464 27 CURVE SMOOTH",
"461 286 OFFCURVE",
"457 364 OFFCURVE",
"471 444 CURVE"
);
}
);
};
components = (
{
name = _part.stem;
transform = "{1, 0, 0, 1, 16, 0}";
}
);
layerId = "0B1F8F77-7348-4C28-A663-EA76351238C4";
paths = (
{
closed = 1;
nodes = (
"181 369 LINE",
"243 387 OFFCURVE",
"294 401 OFFCURVE",
"341 414 CURVE",
"373 414 OFFCURVE",
"389 399 OFFCURVE",
"389 348 CURVE SMOOTH",
"389 347 OFFCURVE",
"388 -19 OFFCURVE",
"388 -18 CURVE SMOOTH",
"388 -129 OFFCURVE",
"293 -119 OFFCURVE",
"229 -95 CURVE",
"220 -151 LINE",
"358 -208 OFFCURVE",
"469 -147 OFFCURVE",
"469 -31 CURVE",
"469 105 OFFCURVE",
"469 290 OFFCURVE",
"469 369 CURVE SMOOTH",
"469 454 OFFCURVE",
"430 484 OFFCURVE",
"351 484 CURVE",
"287 454 OFFCURVE",
"212 422 OFFCURVE",
"180 406 CURVE"
);
}
);
width = 559;
}
);
leftKerningGroup = i;
rightKerningGroup = n;
unicode = 014B;
},
{
glyphname = o;
lastChange = "2017-07-15 19:59:08 +0000";
layers = (
{
anchors = (
{
name = bottom;
position = "{267, 0}";
},
{
name = center;
position = "{267, 240}";
},
{
name = ogonek;
position = "{461, 10}";
},
{
name = top;
position = "{270, 480}";
},
{
name = topright;
position = "{489, 480}";
}
);
background = {
components = (
{
name = d;
}
);
};
guideLines = (
{
angle = 90;
position = "{288, 338}";
}
);
layerId = "11343128-4963-4E5D-BE9C-B74F53B36FA5";
paths = (
{
closed = 1;
nodes = (
"422 489 OFFCURVE",
"286 489 CURVE SMOOTH",
"138 489 OFFCURVE",
"25 390 OFFCURVE",
"25 237 CURVE SMOOTH",
"25 91 OFFCURVE",
"100 -9 OFFCURVE",
"252 -9 CURVE SMOOTH",
"410 -9 OFFCURVE",
"509 103 OFFCURVE",
"509 258 CURVE SMOOTH",
"509 398 OFFCURVE"
);
},
{
closed = 1;
nodes = (
"291 56 OFFCURVE",
"304 60 CURVE SMOOTH",
"322 66 OFFCURVE",
"333 83 OFFCURVE",
"295 83 CURVE SMOOTH",
"231 83 OFFCURVE",
"169 162 OFFCURVE",
"169 241 CURVE SMOOTH",
"169 317 OFFCURVE",
"206 396 OFFCURVE",
"264 403 CURVE",
"266 421 OFFCURVE",
"249 420 OFFCURVE",
"236 414 CURVE SMOOTH",
"220 407 OFFCURVE",
"208 394 OFFCURVE",
"235 394 CURVE SMOOTH",
"305 394 OFFCURVE",
"365 324 OFFCURVE",
"365 236 CURVE SMOOTH",
"365 164 OFFCURVE",
"332 87 OFFCURVE",
"269 75 CURVE",
"274 58 OFFCURVE"
);
}
);
width = 534;
},
{
anchors = (
{
name = bottom;
position = "{250, 0}";
},
{
name = center;
position = "{250, 240}";
},
{
name = ogonek;
position = "{444, 10}";
},
{
name = top;
position = "{250, 480}";
},
{
name = topright;
position = "{472, 480}";
}
);
background = {
paths = (
{
closed = 1;
nodes = (
"116 500 OFFCURVE",
"36 405 OFFCURVE",
"36 235 CURVE SMOOTH",
"36 85 OFFCURVE",
"116 -10 OFFCURVE",
"261 -10 CURVE SMOOTH",
"406 -10 OFFCURVE",
"486 85 OFFCURVE",
"486 255 CURVE SMOOTH",
"486 405 OFFCURVE",
"406 500 OFFCURVE",
"261 500 CURVE SMOOTH"
);
},
{
closed = 1;
nodes = (
"367 66 OFFCURVE",
"332 45 OFFCURVE",
"281 45 CURVE SMOOTH",
"190 45 OFFCURVE",
"116 114 OFFCURVE",
"116 245 CURVE SMOOTH",
"116 315 OFFCURVE",
"125 380 OFFCURVE",
"155 424 CURVE",
"155 424 OFFCURVE",
"190 445 OFFCURVE",
"241 445 CURVE SMOOTH",
"332 445 OFFCURVE",
"406 376 OFFCURVE",
"406 245 CURVE SMOOTH",
"406 175 OFFCURVE",
"397 110 OFFCURVE",
"367 66 CURVE"
);
}
);
};
guideLines = (
{
angle = 90;
position = "{250, 334}";
}
);
layerId = "0B1F8F77-7348-4C28-A663-EA76351238C4";
paths = (
{
closed = 1;
nodes = (
"475 391 OFFCURVE",
"389 488 OFFCURVE",
"261 488 CURVE SMOOTH",
"116 488 OFFCURVE",
"25 392 OFFCURVE",
"25 237 CURVE SMOOTH",
"25 90 OFFCURVE",
"109 -9 OFFCURVE",
"238 -9 CURVE SMOOTH",
"389 -9 OFFCURVE",
"475 97 OFFCURVE",
"475 258 CURVE SMOOTH"
);
},
{
closed = 1;
nodes = (
"311 44 OFFCURVE",
"293 41 OFFCURVE",
"277 41 CURVE SMOOTH",
"171 41 OFFCURVE",
"106 141 OFFCURVE",
"106 262 CURVE SMOOTH",
"106 357 OFFCURVE",
"157 429 OFFCURVE",
"225 444 CURVE",
"174 430 LINE SMOOTH",
"192 435 OFFCURVE",
"210 438 OFFCURVE",
"227 438 CURVE SMOOTH",
"327 438 OFFCURVE",
"393 345 OFFCURVE",
"393 216 CURVE SMOOTH",
"393 125 OFFCURVE",
"349 54 OFFCURVE",
"272 34 CURVE",
"329 49 LINE"
);
}
);
width = 495;
}
);
leftKerningGroup = o;
rightKerningGroup = o;
unicode = 006F;
},
{
glyphname = p;
lastChange = "2017-07-21 20:40:35 +0000";
layers = (
{
anchors = (
{
name = bottom;
position = "{271, 0}";
},
{
name = top;
position = "{271, 480}";
}
);
background = {
components = (
{
name = n;
transform = "{1, 0, 0, 1, -6, 0}";
}
);
};
components = (
{
name = _part.bowl;
transform = "{1, 0, 0, 1, 39, 0}";
}
);
guideLines = (
{
position = "{161, 407}";
},
{
position = "{179, 457}";
}
);
layerId = "11343128-4963-4E5D-BE9C-B74F53B36FA5";
paths = (
{
closed = 1;
nodes = (
"30 -165 LINE",
"27 -230 LINE",
"286 -230 LINE",
"290 -164 LINE",
"223 -154 LINE",
"166 -154 LINE"
);
},
{
closed = 1;
nodes = (
"223 -119 OFFCURVE",
"224 -84 OFFCURVE",
"224 97 CURVE SMOOTH",
"224 233 OFFCURVE",
"224 326 OFFCURVE",
"223 388 CURVE",
"223 394 OFFCURVE",
"212 400 OFFCURVE",
"212 406 CURVE",
"210 430 OFFCURVE",
"208 453 OFFCURVE",
"205 475 CURVE",
"195 483 LINE",
"158 486 OFFCURVE",
"75 476 OFFCURVE",
"21 464 CURVE",
"27 404 LINE",
"81 400 LINE",
"90 319 OFFCURVE",
"87 305 OFFCURVE",
"87 -119 CURVE SMOOTH",
"87 -147 OFFCURVE",
"132 -161 OFFCURVE",
"153 -163 CURVE SMOOTH",
"180 -166 OFFCURVE",
"194 -174 OFFCURVE",
"229 -174 CURVE"
);
}
);
width = 556;
},
{
anchors = (
{
name = bottom;
position = "{267, 0}";
},
{
name = top;
position = "{267, 480}";
}
);
background = {
components = (
{
name = n;
}
);
};
components = (
{
name = _part.bowl;
transform = "{1, 0, 0, 1, 32, 0}";
}
);
guideLines = (
{
position = "{169, 417}";
},
{
angle = 180;
position = "{147, 457}";
},
{
position = "{300, 21}";
},
{
position = "{278, 61}";
},
{
angle = 98;
position = "{310, 183}";
},
{
angle = 85;
position = "{307, 202}";
}
);
layerId = "0B1F8F77-7348-4C28-A663-EA76351238C4";
paths = (
{
closed = 1;
nodes = (
"184 -167 OFFCURVE",
"179 -30 OFFCURVE",
"185 89 CURVE",
"185 189 OFFCURVE",
"186 305 OFFCURVE",
"186 385 CURVE",
"179 397 LINE",
"181 440 OFFCURVE",
"182 455 OFFCURVE",
"184 481 CURVE",
"161 481 OFFCURVE",
"57 473 OFFCURVE",
"22 463 CURVE",
"27 420 LINE",
"99 417 LINE",
"114 324 OFFCURVE",
"112 290 OFFCURVE",
"109 -135 CURVE SMOOTH",
"109 -157 OFFCURVE",
"147 -190 OFFCURVE",
"191 -190 CURVE"
);
},
{
closed = 1;
nodes = (
"30 -181 LINE",
"26 -229 LINE",
"291 -229 LINE",
"295 -180 LINE",
"181 -171 LINE",
"162 -171 LINE"
);
}
);
width = 542;
},
{
anchors = (
{
name = bottom;
position = "{280, 0}";
},
{
name = top;
position = "{280, 480}";
}
);
associatedMasterId = "11343128-4963-4E5D-BE9C-B74F53B36FA5";
background = {
anchors = (
{
name = _connect;
position = "{234, 2}";
}
);
};
guideLines = (
{
position = "{170, 407}";
},
{
position = "{188, 457}";
}
);
layerId = "9F53F523-309F-4B20-95C9-BBB6F7844458";
name = "black test";
paths = (
{
closed = 1;
nodes = (
"252 -119 OFFCURVE",
"253 -84 OFFCURVE",
"253 97 CURVE SMOOTH",
"253 233 OFFCURVE",
"253 326 OFFCURVE",
"252 388 CURVE",
"252 394 OFFCURVE",
"243 400 OFFCURVE",
"243 406 CURVE",
"240 437 OFFCURVE",
"239 468 OFFCURVE",
"235 480 CURVE",
"216 485 OFFCURVE",
"91 496 OFFCURVE",
"4 459 CURVE",
"13 383 LINE",
"70 383 LINE",
"79 302 OFFCURVE",
"76 305 OFFCURVE",
"76 -119 CURVE SMOOTH",
"76 -147 OFFCURVE",
"121 -161 OFFCURVE",
"142 -163 CURVE SMOOTH",
"169 -166 OFFCURVE",
"223 -174 OFFCURVE",
"258 -174 CURVE"
);
},
{
closed = 1;
nodes = (
"9 -165 LINE",
"6 -250 LINE",
"325 -250 LINE",
"329 -164 LINE",
"252 -154 LINE",
"175 -154 LINE"
);
},
{
closed = 1;
nodes = (
"196 296 LINE",
"206 302 OFFCURVE",
"214 340 OFFCURVE",
"277 359 CURVE",
"338 345 OFFCURVE",
"351 294 OFFCURVE",
"351 227 CURVE SMOOTH",
"351 169 OFFCURVE",
"338 133 OFFCURVE",
"293 105 CURVE",
"250 106 OFFCURVE",
"234 121 OFFCURVE",
"197 151 CURVE",
"163 118 LINE",
"189 92 OFFCURVE",
"243 19 OFFCURVE",
"320 -3 CURVE",
"595 19 OFFCURVE",
"620 474 OFFCURVE",
"350 484 CURVE",
"306 474 OFFCURVE",
"195 379 OFFCURVE",
"169 357 CURVE"
);
}
);
width = 567;
}
);
rightKerningGroup = o;
rightMetricsKey = o;
unicode = 0070;
},
{
glyphname = thorn;
lastChange = "2017-05-20 10:40:11 +0000";
layers = (
{
anchors = (
{
name = bottom;
position = "{241, 0}";
},
{
name = top;
position = "{241, 480}";
}
);
components = (
{
name = _part.bowl;
transform = "{1, 0, 0, 1, 24, 0}";
}
);
guideLines = (
{
position = "{273, 742}";
}
);
layerId = "11343128-4963-4E5D-BE9C-B74F53B36FA5";
paths = (
{
closed = 1;
nodes = (
"232 -139 OFFCURVE",
"233 -104 OFFCURVE",
"233 97 CURVE SMOOTH",
"233 506 OFFCURVE",
"232 619 OFFCURVE",
"231 664 CURVE SMOOTH",
"230 695 OFFCURVE",
"227 726 OFFCURVE",
"223 738 CURVE",
"204 743 OFFCURVE",
"121 754 OFFCURVE",
"34 717 CURVE",
"43 661 LINE",
"90 661 LINE",
"99 580 OFFCURVE",
"97 500 OFFCURVE",
"96 -139 CURVE SMOOTH",
"96 -167 OFFCURVE",
"141 -181 OFFCURVE",
"162 -183 CURVE SMOOTH",
"189 -186 OFFCURVE",
"203 -194 OFFCURVE",
"238 -194 CURVE"
);
},
{
closed = 1;
nodes = (
"39 -185 LINE",
"36 -250 LINE",
"295 -250 LINE",
"299 -184 LINE",
"232 -174 LINE",
"175 -174 LINE"
);
}
);
width = 541;
},
{
anchors = (
{
name = bottom;
position = "{241, 0}";
},
{
name = top;
position = "{241, 480}";
}
);
components = (
{
name = _part.bowl;
transform = "{1, 0, 0, 1, 1, 0}";
}
);
layerId = "0B1F8F77-7348-4C28-A663-EA76351238C4";
paths = (
{
closed = 1;
nodes = (
"181 -187 OFFCURVE",
"178 -119 OFFCURVE",
"178 89 CURVE SMOOTH",
"178 347 OFFCURVE",
"180 704 OFFCURVE",
"170 740 CURVE",
"151 745 OFFCURVE",
"81 744 OFFCURVE",
"31 716 CURVE",
"37 676 LINE",
"90 676 LINE",
"99 582 OFFCURVE",
"96 461 OFFCURVE",
"96 -155 CURVE SMOOTH",
"96 -177 OFFCURVE",
"144 -210 OFFCURVE",
"188 -210 CURVE"
);
},
{
closed = 1;
nodes = (
"35 -201 LINE",
"31 -246 LINE",
"254 -246 LINE",
"258 -200 LINE",
"180 -191 LINE",
"152 -191 LINE"
);
}
);
width = 516;
}
);
leftKerningGroup = l;
leftMetricsKey = l;
rightKerningGroup = o;
rightMetricsKey = o;
unicode = 00FE;
},
{
glyphname = r;
lastChange = "2017-07-21 20:32:36 +0000";
layers = (
{
anchors = (
{
name = bottom;
position = "{205, 0}";
},
{
name = top;
position = "{205, 480}";
}
);
background = {
components = (
{
name = n;
transform = "{1, 0, 0, 1, 4, 0}";
}
);
};
components = (
{
name = _part.stem;
transform = "{1, 0, 0, 1, 1, 0}";
piece = {
stemlenght = 100;
};
}
);
guideLines = (
{
position = "{165, 457}";
},
{
angle = 90;
position = "{18, 372}";
}
);
layerId = "11343128-4963-4E5D-BE9C-B74F53B36FA5";
paths = (
{
closed = 1;
nodes = (
"405 482 OFFCURVE",
"369 483 OFFCURVE",
"349 478 CURVE",
"296 448 OFFCURVE",
"235 404 OFFCURVE",
"205 374 CURVE",
"205 322 LINE",
"230 343 OFFCURVE",
"294 364 OFFCURVE",
"321 363 CURVE",
"335 309 LINE",
"350 309 OFFCURVE",
"393 312 OFFCURVE",
"415 319 CURVE",
"423 476 LINE"
);
},
{
closed = 1;
nodes = (
"171 0 LINE",
"306 0 LINE",
"309 66 LINE",
"198 77 LINE"
);
}
);
width = 436;
},
{
anchors = (
{
name = bottom;
position = "{200, 0}";
},
{
name = top;
position = "{200, 480}";
}
);
background = {
components = (
{
name = n;
transform = "{1, 0, 0, 1, 1, 0}";
}
);
};
components = (
{
name = _part.stem;
transform = "{1, 0, 0, 1, 12, 0}";
piece = {
cutheight = -100;
};
}
);
guideLines = (
{
position = "{134, 338}";
},
{
position = "{120, 457}";
},
{
position = "{273, 21}";
},
{
position = "{251, 61}";
}
);
layerId = "0B1F8F77-7348-4C28-A663-EA76351238C4";
paths = (
{
closed = 1;
nodes = (
"380 484 OFFCURVE",
"340 490 OFFCURVE",
"302 475 CURVE",
"164 373 LINE",
"166 337 LINE",
"217 365 OFFCURVE",
"267 388 OFFCURVE",
"310 403 CURVE",
"329 334 LINE",
"348 334 OFFCURVE",
"365 334 OFFCURVE",
"383 341 CURVE",
"388 463 LINE"
);
},
{
closed = 1;
nodes = (
"160 0 LINE",
"278 0 LINE",
"282 46 LINE",
"187 57 LINE"
);
}
);
width = 410;
}
);
leftKerningGroup = i;
note = "     ";
rightKerningGroup = r;
unicode = 0072;
},
{
glyphname = s;
lastChange = "2017-07-21 20:40:18 +0000";
layers = (
{
anchors = (
{
name = bottom;
position = "{214, 0}";
},
{
name = top;
position = "{214, 480}";
}
);
background = {
paths = (
{
closed = 1;
nodes = (
"196 510 OFFCURVE",
"315 495 OFFCURVE",
"373 441 CURVE",
"375 427 OFFCURVE",
"348 369 OFFCURVE",
"331 336 CURVE",
"295 366 OFFCURVE",
"226 402 OFFCURVE",
"157 409 CURVE",
"121 384 OFFCURVE",
"126 328 OFFCURVE",
"240 286 CURVE SMOOTH",
"299 264 OFFCURVE",
"367 225 OFFCURVE",
"363 131 CURVE SMOOTH",
"359 47 OFFCURVE",
"276 -7 OFFCURVE",
"195 -9 CURVE SMOOTH",
"126 -11 OFFCURVE",
"59 7 OFFCURVE",
"31 29 CURVE",
"35 54 OFFCURVE",
"62 108 OFFCURVE",
"76 134 CURVE",
"113 95 OFFCURVE",
"194 82 OFFCURVE",
"230 79 CURVE",
"262 100 OFFCURVE",
"270 162 OFFCURVE",
"159 203 CURVE SMOOTH",
"88 229 OFFCURVE",
"21 262 OFFCURVE",
"21 355 CURVE SMOOTH",
"21 418 OFFCURVE",
"73 461 OFFCURVE",
"113 478 CURVE SMOOTH"
);
},
{
closed = 1;
nodes = (
"134 55 LINE",
"31 29 LINE",
"39 148 LINE",
"61 154 OFFCURVE",
"81 159 OFFCURVE",
"100 160 CURVE",
"103 137 OFFCURVE",
"107 113 OFFCURVE",
"113 95 CURVE"
);
}
);
};
layerId = "11343128-4963-4E5D-BE9C-B74F53B36FA5";
paths = (
{
closed = 1;
nodes = (
"404 143 CURVE SMOOTH",
"404 214 OFFCURVE",
"357 269 OFFCURVE",
"283 294 CURVE SMOOTH",
"183 328 OFFCURVE",
"154 351 OFFCURVE",
"154 371 CURVE SMOOTH",
"154 380 OFFCURVE",
"160 389 OFFCURVE",
"167 397 CURVE",
"221 398 OFFCURVE",
"308 391 OFFCURVE",
"349 352 CURVE",
"363 378 OFFCURVE",
"376 425 OFFCURVE",
"380 457 CURVE",
"354 476 OFFCURVE",
"300 489 OFFCURVE",
"233 489 CURVE SMOOTH",
"117 489 OFFCURVE",
"30 438 OFFCURVE",
"30 337 CURVE SMOOTH",
"30 252 OFFCURVE",
"97 216 OFFCURVE",
"157 194 CURVE SMOOTH",
"253 159 OFFCURVE",
"284 130 OFFCURVE",
"284 106 CURVE SMOOTH",
"284 97 OFFCURVE",
"280 88 OFFCURVE",
"272 80 CURVE",
"189 80 OFFCURVE",
"129 90 OFFCURVE",
"72 123 CURVE",
"53 90 OFFCURVE",
"49 58 OFFCURVE",
"33 23 CURVE",
"64 0 OFFCURVE",
"135 -12 OFFCURVE",
"209 -12 CURVE SMOOTH",
"324 -12 OFFCURVE",
"404 39 OFFCURVE"
);
},
{
closed = 1;
nodes = (
"286 372 OFFCURVE",
"290 350 OFFCURVE",
"295 327 CURVE",
"315 328 OFFCURVE",
"347 333 OFFCURVE",
"371 339 CURVE",
"380 457 LINE",
"269 422 LINE",
"280 390 LINE"
);
},
{
closed = 1;
nodes = (
"32 119 OFFCURVE",
"31 100 OFFCURVE",
"31 81 CURVE SMOOTH",
"31 62 OFFCURVE",
"32 43 OFFCURVE",
"33 23 CURVE",
"156 48 LINE",
"139 88 LINE",
"123 151 LINE",
"90 148 OFFCURVE",
"45 142 OFFCURVE",
"35 139 CURVE"
);
}
);
width = 434;
},
{
anchors = (
{
name = bottom;
position = "{212, 0}";
},
{
name = top;
position = "{212, 480}";
}
);
guideLines = (
{
angle = 98;
position = "{31, 220}";
},
{
angle = 98;
position = "{355, 183}";
},
{
angle = 85;
position = "{352, 202}";
}
);
layerId = "0B1F8F77-7348-4C28-A663-EA76351238C4";
paths = (
{
closed = 1;
nodes = (
"390 34 OFFCURVE",
"396 131 CURVE SMOOTH",
"400 203 OFFCURVE",
"327 244 OFFCURVE",
"253 271 CURVE SMOOTH",
"148 310 OFFCURVE",
"118 351 OFFCURVE",
"118 384 CURVE SMOOTH",
"118 407 OFFCURVE",
"131 423 OFFCURVE",
"145 432 CURVE",
"213 441 OFFCURVE",
"293 435 OFFCURVE",
"343 398 CURVE",
"357 424 OFFCURVE",
"369 438 OFFCURVE",
"373 460 CURVE",
"346 480 OFFCURVE",
"283 490 OFFCURVE",
"222 490 CURVE SMOOTH",
"119 490 OFFCURVE",
"45 440 OFFCURVE",
"47 349 CURVE SMOOTH",
"49 272 OFFCURVE",
"131 236 OFFCURVE",
"186 216 CURVE SMOOTH",
"290 178 OFFCURVE",
"320 133 OFFCURVE",
"320 98 CURVE SMOOTH",
"320 74 OFFCURVE",
"310 59 OFFCURVE",
"295 48 CURVE",
"219 30 OFFCURVE",
"112 54 OFFCURVE",
"81 87 CURVE",
"63 54 OFFCURVE",
"61 47 OFFCURVE",
"46 22 CURVE",
"75 -1 OFFCURVE",
"143 -12 OFFCURVE",
"212 -12 CURVE SMOOTH",
"320 -12 OFFCURVE"
);
},
{
closed = 1;
nodes = (
"315 346 LINE",
"334 347 OFFCURVE",
"342 347 OFFCURVE",
"365 353 CURVE",
"373 460 LINE",
"271 436 LINE",
"288 433 LINE"
);
},
{
closed = 1;
nodes = (
"48 88 OFFCURVE",
"45 52 OFFCURVE",
"46 22 CURVE",
"140 41 LINE",
"122 54 LINE",
"103 135 LINE",
"80 132 OFFCURVE",
"62 131 OFFCURVE",
"52 128 CURVE"
);
}
);
width = 441;
}
);
leftKerningGroup = o;
rightKerningGroup = o;
unicode = 0073;
},
{
glyphname = germandbls;
lastChange = "2017-05-20 10:40:11 +0000";
layers = (
{
background = {
components = (
{
name = f;
transform = "{1, 0, 0, 1, -14, 0}";
}
);
};
layerId = "11343128-4963-4E5D-BE9C-B74F53B36FA5";
paths = (
{
closed = 1;
nodes = (
"108 472 LINE",
"10 466 LINE",
"9 398 LINE",
"115 393 LINE"
);
},
{
closed = 1;
nodes = (
"585 290 OFFCURVE",
"473 348 OFFCURVE",
"363 399 CURVE",
"572 466 OFFCURVE",
"580 799 OFFCURVE",
"272 740 CURVE SMOOTH",
"153 717 OFFCURVE",
"73 626 OFFCURVE",
"73 480 CURVE SMOOTH",
"73 399 OFFCURVE",
"70 263 OFFCURVE",
"70 105 CURVE SMOOTH",
"70 94 OFFCURVE",
"84 81 OFFCURVE",
"104 73 CURVE",
"13 65 LINE",
"10 0 LINE",
"205 0 LINE",
"204 403 LINE SMOOTH",
"204 453 OFFCURVE",
"205 500 OFFCURVE",
"205 531 CURVE SMOOTH",
"205 581 OFFCURVE",
"231 637 OFFCURVE",
"259 647 CURVE",
"371 647 OFFCURVE",
"443 508 OFFCURVE",
"275 428 CURVE",
"267 414 OFFCURVE",
"264 394 OFFCURVE",
"266 366 CURVE",
"266 333 OFFCURVE",
"310 306 OFFCURVE",
"354 273 CURVE SMOOTH",
"399 239 OFFCURVE",
"444 200 OFFCURVE",
"444 143 CURVE SMOOTH",
"444 80 OFFCURVE",
"375 40 OFFCURVE",
"301 79 CURVE",
"278 16 LINE",
"409 -58 OFFCURVE",
"585 12 OFFCURVE",
"585 162 CURVE SMOOTH"
);
},
{
closed = 1;
nodes = (
"112 0 LINE",
"244 0 LINE",
"248 70 LINE",
"188 79 LINE"
);
}
);
width = 598;
},
{
background = {
anchors = (
{
name = bottom;
position = "{177, 0}";
},
{
name = top;
position = "{177, 480}";
}
);
components = (
{
name = n;
transform = "{1, 0, 0, 1, 2, 0}";
}
);
};
layerId = "0B1F8F77-7348-4C28-A663-EA76351238C4";
paths = (
{
closed = 1;
nodes = (
"136 474 LINE",
"42 460 LINE",
"47 418 LINE",
"118 415 LINE"
);
},
{
closed = 1;
nodes = (
"573 285 OFFCURVE",
"478 339 OFFCURVE",
"358 398 CURVE",
"618 504 OFFCURVE",
"466 837 OFFCURVE",
"228 719 CURVE SMOOTH",
"145 678 OFFCURVE",
"110 582 OFFCURVE",
"110 467 CURVE SMOOTH",
"110 391 OFFCURVE",
"106 245 OFFCURVE",
"106 87 CURVE SMOOTH",
"106 76 OFFCURVE",
"119 61 OFFCURVE",
"136 54 CURVE",
"43 46 LINE",
"40 0 LINE",
"194 0 LINE",
"185 126 OFFCURVE",
"186 170 OFFCURVE",
"186 403 CURVE SMOOTH",
"186 453 OFFCURVE",
"187 491 OFFCURVE",
"187 531 CURVE SMOOTH",
"187 606 OFFCURVE",
"213 654 OFFCURVE",
"253 678 CURVE",
"458 720 OFFCURVE",
"454 447 OFFCURVE",
"293 414 CURVE",
"267 360 OFFCURVE",
"330 324 OFFCURVE",
"390 290 CURVE SMOOTH",
"459 251 OFFCURVE",
"520 199 OFFCURVE",
"491 102 CURVE SMOOTH",
"470 33 OFFCURVE",
"374 29 OFFCURVE",
"304 62 CURVE",
"289 24 LINE",
"413 -60 OFFCURVE",
"566 12 OFFCURVE",
"570 162 CURVE SMOOTH"
);
},
{
closed = 1;
nodes = (
"133 0 LINE",
"254 0 LINE",
"258 46 LINE",
"189 55 LINE"
);
}
);
width = 595;
}
);
leftKerningGroup = f;
leftMetricsKey = f;
rightKerningGroup = z;
unicode = 00DF;
},
{
glyphname = t;
lastChange = "2017-07-21 20:37:41 +0000";
layers = (
{
anchors = (
{
name = bottom;
position = "{166, 0}";
},
{
name = center;
position = "{166, 240}";
},
{
name = top;
position = "{166, 480}";
},
{
name = topright;
position = "{307, 480}";
}
);
guideLines = (
{
position = "{150, 21}";
},
{
position = "{168, 71}";
},
{
position = "{150, 407}";
},
{
position = "{168, 457}";
}
);
layerId = "11343128-4963-4E5D-BE9C-B74F53B36FA5";
paths = (
{
closed = 1;
nodes = (
"284 475 OFFCURVE",
"209 474 OFFCURVE",
"192 473 CURVE",
"192 500 OFFCURVE",
"192 541 OFFCURVE",
"192 572 CURVE",
"164 574 OFFCURVE",
"136 567 OFFCURVE",
"120 562 CURVE",
"116 503 OFFCURVE",
"96 468 OFFCURVE",
"10 465 CURVE",
"10 396 LINE",
"61 396 LINE",
"60 349 OFFCURVE",
"61 238 OFFCURVE",
"62 133 CURVE SMOOTH",
"63 77 OFFCURVE",
"80 36 OFFCURVE",
"113 12 CURVE SMOOTH",
"163 -24 OFFCURVE",
"251 -18 OFFCURVE",
"352 34 CURVE",
"343 93 LINE",
"315 85 OFFCURVE",
"285 80 OFFCURVE",
"259 80 CURVE SMOOTH",
"187 80 OFFCURVE",
"186 136 OFFCURVE",
"188 234 CURVE SMOOTH",
"189 280 OFFCURVE",
"192 334 OFFCURVE",
"195 394 CURVE",
"303 387 OFFCURVE",
"328 384 OFFCURVE",
"333 386 CURVE SMOOTH",
"341 389 OFFCURVE",
"338 453 OFFCURVE",
"333 478 CURVE"
);
}
);
width = 360;
},
{
anchors = (
{
name = bottom;
position = "{154, 0}";
},
{
name = center;
position = "{154, 240}";
},
{
name = top;
position = "{154, 480}";
},
{
name = topright;
position = "{295, 480}";
}
);
background = {
components = (
{
name = f;
transform = "{1, 0, 0, 1, -29, 0}";
}
);
};
guideLines = (
{
angle = -90;
position = "{273, 135}";
},
{
position = "{162, 22}";
},
{
position = "{156, 457}";
},
{
angle = 98;
position = "{259, 220}";
}
);
layerId = "0B1F8F77-7348-4C28-A663-EA76351238C4";
paths = (
{
closed = 1;
nodes = (
"246 466 OFFCURVE",
"179 465 OFFCURVE",
"162 464 CURVE",
"163 491 OFFCURVE",
"163 531 OFFCURVE",
"163 562 CURVE",
"142 560 OFFCURVE",
"125 558 OFFCURVE",
"105 554 CURVE",
"98 493 OFFCURVE",
"84 465 OFFCURVE",
"21 458 CURVE",
"21 423 LINE",
"78 420 LINE",
"78 376 OFFCURVE",
"76 285 OFFCURVE",
"76 124 CURVE SMOOTH",
"76 69 OFFCURVE",
"81 28 OFFCURVE",
"118 5 CURVE SMOOTH",
"152 -16 OFFCURVE",
"230 -10 OFFCURVE",
"320 37 CURVE",
"311 80 LINE",
"268 65 OFFCURVE",
"229 57 OFFCURVE",
"205 57 CURVE SMOOTH",
"135 57 OFFCURVE",
"151 142 OFFCURVE",
"154 267 CURVE SMOOTH",
"155 311 OFFCURVE",
"158 361 OFFCURVE",
"160 420 CURVE",
"247 413 OFFCURVE",
"285 410 OFFCURVE",
"290 412 CURVE SMOOTH",
"298 415 OFFCURVE",
"299 444 OFFCURVE",
"295 469 CURVE"
);
}
);
width = 340;
}
);
leftKerningGroup = i;
rightKerningGroup = t;
unicode = 0074;
},
{
glyphname = u;
lastChange = "2017-07-21 20:51:24 +0000";
layers = (
{
anchors = (
{
name = bottom;
position = "{287, 0}";
},
{
name = ogonek;
position = "{502, 10}";
},
{
name = top;
position = "{282, 480}";
},
{
name = topright;
position = "{536, 480}";
}
);
background = {
components = (
{
name = n;
transform = "{1, 0, 0, 1, -10, 0}";
}
);
};
guideLines = (
{
position = "{164, 21}";
},
{
position = "{182, 71}";
},
{
position = "{164, 407}";
},
{
position = "{182, 457}";
},
{
angle = 98;
position = "{330, 183}";
},
{
angle = 85;
position = "{327, 202}";
}
);
layerId = "11343128-4963-4E5D-BE9C-B74F53B36FA5";
paths = (
{
closed = 1;
nodes = (
"502 81 LINE",
"495 123 OFFCURVE",
"494 141 OFFCURVE",
"495 286 CURVE SMOOTH",
"496 382 OFFCURVE",
"499 447 OFFCURVE",
"494 477 CURVE",
"485 485 LINE",
"430 490 OFFCURVE",
"348 472 OFFCURVE",
"305 462 CURVE",
"312 403 LINE",
"360 399 LINE",
"367 335 OFFCURVE",
"363 175 OFFCURVE",
"362 116 CURVE",
"363 92 OFFCURVE",
"360 45 OFFCURVE",
"370 11 CURVE",
"380 -1 LINE",
"461 -2 OFFCURVE",
"527 7 OFFCURVE",
"551 17 CURVE",
"554 77 LINE"
);
},
{
closed = 1;
nodes = (
"389 141 LINE",
"344 126 OFFCURVE",
"272 109 OFFCURVE",
"244 103 CURVE",
"207 103 OFFCURVE",
"214 171 OFFCURVE",
"214 241 CURVE SMOOTH",
"214 410 OFFCURVE",
"220 444 OFFCURVE",
"208 477 CURVE",
"199 484 LINE",
"148 490 OFFCURVE",
"49 470 OFFCURVE",
"20 460 CURVE",
"26 405 LINE",
"71 401 LINE",
"85 343 OFFCURVE",
"78 212 OFFCURVE",
"78 137 CURVE SMOOTH",
"78 88 OFFCURVE",
"79 -4 OFFCURVE",
"212 -4 CURVE",
"261 12 OFFCURVE",
"341 55 OFFCURVE",
"390 89 CURVE"
);
}
);
width = 574;
},
{
anchors = (
{
name = bottom;
position = "{291, 0}";
},
{
name = ogonek;
position = "{506, 10}";
},
{
name = top;
position = "{286, 480}";
},
{
name = topright;
position = "{540, 480}";
}
);
associatedMasterId = "11343128-4963-4E5D-BE9C-B74F53B36FA5";
guideLines = (
{
position = "{168, 21}";
},
{
position = "{186, 71}";
},
{
position = "{168, 407}";
},
{
position = "{186, 457}";
},
{
angle = 98;
position = "{334, 183}";
},
{
angle = 85;
position = "{331, 202}";
}
);
layerId = "A8F9F28C-D4F0-4361-A5F9-55AA905A5BF4";
name = "black test";
paths = (
{
closed = 1;
nodes = (
"578 21 LINE",
"553 9 OFFCURVE",
"450 -11 OFFCURVE",
"351 0 CURVE",
"335 35 OFFCURVE",
"344 90 OFFCURVE",
"332 116 CURVE",
"333 175 OFFCURVE",
"336 319 OFFCURVE",
"329 383 CURVE",
"289 383 LINE",
"275 464 LINE",
"320 482 OFFCURVE",
"448 492 OFFCURVE",
"502 480 CURVE",
"510 453 OFFCURVE",
"506 390 OFFCURVE",
"505 286 CURVE SMOOTH",
"504 141 OFFCURVE",
"505 141 OFFCURVE",
"512 99 CURVE",
"569 99 LINE"
);
},
{
closed = 1;
nodes = (
"325 52 OFFCURVE",
"275 12 OFFCURVE",
"226 -4 CURVE",
"73 -4 OFFCURVE",
"72 88 OFFCURVE",
"72 137 CURVE SMOOTH",
"72 212 OFFCURVE",
"79 325 OFFCURVE",
"65 383 CURVE",
"16 383 LINE",
"4 460 LINE",
"26 472 OFFCURVE",
"172 495 OFFCURVE",
"236 480 CURVE",
"251 445 OFFCURVE",
"248 419 OFFCURVE",
"248 241 CURVE SMOOTH",
"248 171 OFFCURVE",
"241 123 OFFCURVE",
"278 123 CURVE",
"306 129 OFFCURVE",
"328 143 OFFCURVE",
"373 158 CURVE",
"374 86 LINE"
);
}
);
width = 582;
},
{
anchors = (
{
name = _connect;
position = "{354, 480}";
},
{
name = bottom;
position = "{285, 0}";
},
{
name = ogonek;
position = "{500, 10}";
},
{
name = top;
position = "{273, 480}";
},
{
name = topright;
position = "{534, 480}";
}
);
background = {
components = (
{
name = n;
transform = "{-1, 0, 0, -1, 574, 482}";
}
);
};
guideLines = (
{
position = "{162, 21}";
},
{
position = "{157, 461}";
},
{
position = "{310, 21}";
},
{
position = "{288, 61}";
}
);
layerId = "0B1F8F77-7348-4C28-A663-EA76351238C4";
paths = (
{
closed = 1;
nodes = (
"465 59 LINE",
"459 101 OFFCURVE",
"460 158 OFFCURVE",
"460 235 CURVE SMOOTH",
"460 323 OFFCURVE",
"461 385 OFFCURVE",
"465 484 CURVE",
"417 480 OFFCURVE",
"355 470 OFFCURVE",
"307 461 CURVE",
"311 420 LINE",
"378 420 LINE",
"385 356 OFFCURVE",
"382 175 OFFCURVE",
"381 116 CURVE",
"384 65 OFFCURVE",
"386 24 OFFCURVE",
"398 -4 CURVE",
"444 -2 OFFCURVE",
"483 6 OFFCURVE",
"531 16 CURVE",
"535 59 LINE"
);
},
{
closed = 1;
nodes = (
"386 123 LINE",
"343 105 OFFCURVE",
"309 92 OFFCURVE",
"263 76 CURVE SMOOTH",
"198 53 OFFCURVE",
"165 74 OFFCURVE",
"165 133 CURVE SMOOTH",
"165 221 OFFCURVE",
"169 329 OFFCURVE",
"174 484 CURVE",
"130 482 OFFCURVE",
"65 472 OFFCURVE",
"22 463 CURVE",
"26 422 LINE",
"84 419 LINE",
"96 361 OFFCURVE",
"93 297 OFFCURVE",
"90 112 CURVE SMOOTH",
"89 27 OFFCURVE",
"133 -5 OFFCURVE",
"212 -5 CURVE",
"281 27 OFFCURVE",
"356 66 OFFCURVE",
"387 82 CURVE"
);
}
);
width = 555;
},
{
anchors = (
{
name = _connect;
position = "{354, 480}";
},
{
name = bottom;
position = "{285, 0}";
},
{
name = ogonek;
position = "{500, 10}";
},
{
name = top;
position = "{273, 480}";
},
{
name = topright;
position = "{534, 480}";
}
);
associatedMasterId = "0B1F8F77-7348-4C28-A663-EA76351238C4";
background = {
components = (
{
name = n;
transform = "{-1, 0, 0, -1, 574, 482}";
}
);
};
guideLines = (
{
position = "{162, 21}";
},
{
position = "{157, 461}";
},
{
position = "{310, 21}";
},
{
position = "{288, 61}";
}
);
layerId = "62DAFC9C-C33F-4B36-AF01-28E37618336A";
name = "Jul 21 17, 21:48";
paths = (
{
closed = 1;
nodes = (
"465 59 LINE",
"459 101 OFFCURVE",
"460 158 OFFCURVE",
"460 235 CURVE SMOOTH",
"460 323 OFFCURVE",
"461 385 OFFCURVE",
"465 484 CURVE",
"417 480 OFFCURVE",
"355 470 OFFCURVE",
"307 461 CURVE",
"311 420 LINE",
"378 420 LINE",
"385 356 OFFCURVE",
"383 175 OFFCURVE",
"382 116 CURVE",
"384 60 OFFCURVE",
"382 35 OFFCURVE",
"380 -5 CURVE",
"426 -3 OFFCURVE",
"483 6 OFFCURVE",
"531 16 CURVE",
"535 59 LINE"
);
},
{
closed = 1;
nodes = (
"386 123 LINE",
"343 105 OFFCURVE",
"309 92 OFFCURVE",
"263 76 CURVE SMOOTH",
"198 53 OFFCURVE",
"165 74 OFFCURVE",
"165 133 CURVE SMOOTH",
"165 221 OFFCURVE",
"169 329 OFFCURVE",
"174 484 CURVE",
"130 482 OFFCURVE",
"65 472 OFFCURVE",
"22 463 CURVE",
"26 422 LINE",
"84 419 LINE",
"96 361 OFFCURVE",
"93 297 OFFCURVE",
"90 112 CURVE SMOOTH",
"89 27 OFFCURVE",
"133 -5 OFFCURVE",
"212 -5 CURVE",
"281 27 OFFCURVE",
"356 66 OFFCURVE",
"387 82 CURVE"
);
}
);
width = 555;
}
);
leftKerningGroup = u;
note = " ";
rightKerningGroup = i;
unicode = 0075;
},
{
glyphname = v;
lastChange = "2017-07-21 20:29:02 +0000";
layers = (
{
anchors = (
{
name = bottom;
position = "{231, 0}";
},
{
name = top;
position = "{231, 480}";
}
);
background = {
components = (
{
name = w;
transform = "{1, 0, 0, 1, -261, 0}";
}
);
};
guideLines = (
{
position = "{124, 21}";
},
{
position = "{142, 71}";
},
{
position = "{124, 405}";
},
{
position = "{142, 463}";
}
);
layerId = "11343128-4963-4E5D-BE9C-B74F53B36FA5";
paths = (
{
closed = 1;
nodes = (
"291 110 OFFCURVE",
"281 115 OFFCURVE",
"235 267 CURVE SMOOTH",
"213 339 OFFCURVE",
"188 450 OFFCURVE",
"174 481 CURVE",
"145 482 OFFCURVE",
"57 479 OFFCURVE",
"-10 463 CURVE",
"-4 405 LINE",
"40 399 LINE",
"79 357 OFFCURVE",
"147 123 OFFCURVE",
"174 -1 CURVE",
"188 -1 OFFCURVE",
"206 -1 OFFCURVE",
"234 -1 CURVE",
"308 87 LINE"
);
},
{
closed = 1;
nodes = (
"369 129 OFFCURVE",
"464 344 OFFCURVE",
"456 480 CURVE",
"393 481 OFFCURVE",
"334 476 OFFCURVE",
"278 463 CURVE",
"287 405 LINE",
"335 398 LINE",
"365 352 OFFCURVE",
"319 156 OFFCURVE",
"209 49 CURVE",
"209 -1 LINE",
"281 0 LINE"
);
}
);
width = 476;
},
{
anchors = (
{
name = bottom;
position = "{197, 0}";
},
{
name = top;
position = "{197, 480}";
}
);
background = {
components = (
{
name = w;
transform = "{1, 0, 0, 1, -206, 0}";
}
);
};
guideLines = (
{
position = "{90, 21}";
},
{
position = "{108, 71}";
},
{
position = "{90, 407}";
},
{
position = "{108, 462}";
},
{
angle = 97.4437;
position = "{8, 220}";
}
);
layerId = "0B1F8F77-7348-4C28-A663-EA76351238C4";
paths = (
{
closed = 1;
nodes = (
"236 84 OFFCURVE",
"221 115 OFFCURVE",
"177 267 CURVE SMOOTH",
"157 336 OFFCURVE",
"133 440 OFFCURVE",
"119 476 CURVE",
"111 480 LINE",
"74 477 OFFCURVE",
"26 475 OFFCURVE",
"-16 462 CURVE",
"-13 426 LINE",
"31 424 LINE",
"70 382 OFFCURVE",
"152 122 OFFCURVE",
"185 -2 CURVE",
"199 -2 OFFCURVE",
"197 0 OFFCURVE",
"205 0 CURVE",
"228 17 OFFCURVE",
"253 30 OFFCURVE",
"253 61 CURVE"
);
},
{
closed = 1;
nodes = (
"332 135 OFFCURVE",
"434 356 OFFCURVE",
"421 476 CURVE",
"414 481 LINE",
"385 481 OFFCURVE",
"314 472 OFFCURVE",
"260 458 CURVE",
"265 421 LINE",
"327 418 LINE",
"357 372 OFFCURVE",
"302 158 OFFCURVE",
"204 49 CURVE",
"196 41 OFFCURVE",
"192 6 OFFCURVE",
"186 -2 CURVE",
"244 5 LINE"
);
}
);
width = 454;
}
);
leftKerningGroup = v;
rightKerningGroup = g;
unicode = 0076;
},
{
glyphname = w;
lastChange = "2017-07-21 20:36:51 +0000";
layers = (
{
anchors = (
{
name = bottom;
position = "{356, 0}";
},
{
name = top;
position = "{356, 480}";
}
);
guideLines = (
{
position = "{131, 21}";
},
{
position = "{149, 71}";
},
{
position = "{149, 457}";
},
{
position = "{241, 458}";
},
{
angle = 98;
position = "{570, 183}";
},
{
angle = 85;
position = "{567, 202}";
}
);
layerId = "11343128-4963-4E5D-BE9C-B74F53B36FA5";
paths = (
{
closed = 1;
nodes = (
"291 109 OFFCURVE",
"283 115 OFFCURVE",
"236 267 CURVE SMOOTH",
"215 339 OFFCURVE",
"185 450 OFFCURVE",
"172 481 CURVE",
"150 486 OFFCURVE",
"75 493 OFFCURVE",
"-10 460 CURVE",
"-2 403 LINE",
"40 399 LINE",
"77 357 OFFCURVE",
"149 124 OFFCURVE",
"172 0 CURVE",
"186 0 OFFCURVE",
"220 0 OFFCURVE",
"238 0 CURVE",
"260 17 OFFCURVE",
"282 84 OFFCURVE",
"308 86 CURVE"
);
},
{
closed = 1;
nodes = (
"350 115 OFFCURVE",
"409 248 OFFCURVE",
"421 312 CURVE",
"372 406 LINE",
"371 349 OFFCURVE",
"314 163 OFFCURVE",
"215 50 CURVE",
"201 0 LINE",
"281 0 LINE"
);
},
{
closed = 1;
nodes = (
"617 132 OFFCURVE",
"715 345 OFFCURVE",
"701 481 CURVE",
"679 486 OFFCURVE",
"600 494 OFFCURVE",
"531 460 CURVE",
"540 403 LINE",
"584 399 LINE",
"615 353 OFFCURVE",
"564 163 OFFCURVE",
"465 50 CURVE",
"440 0 LINE",
"530 0 LINE"
);
},
{
closed = 1;
nodes = (
"545 109 OFFCURVE",
"536 115 OFFCURVE",
"490 267 CURVE SMOOTH",
"468 339 OFFCURVE",
"439 450 OFFCURVE",
"426 481 CURVE",
"404 486 OFFCURVE",
"327 493 OFFCURVE",
"242 460 CURVE",
"251 403 LINE",
"294 399 LINE",
"331 357 OFFCURVE",
"403 124 OFFCURVE",
"426 0 CURVE",
"440 0 OFFCURVE",
"474 0 OFFCURVE",
"492 0 CURVE",
"514 17 OFFCURVE",
"536 84 OFFCURVE",
"562 86 CURVE"
);
}
);
width = 722;
},
{
anchors = (
{
name = bottom;
position = "{314, 0}";
},
{
name = top;
position = "{325, 480}";
}
);
background = {
components = (
{
name = y;
transform = "{1, 0, 0, 1, 209, 0}";
}
);
};
guideLines = (
{
position = "{101, 419}";
},
{
position = "{79, 457}";
},
{
position = "{232, 21}";
},
{
position = "{210, 59}";
},
{
angle = 98;
position = "{465, 183}";
},
{
angle = 85;
position = "{462, 202}";
}
);
layerId = "0B1F8F77-7348-4C28-A663-EA76351238C4";
paths = (
{
closed = 1;
nodes = (
"247 68 OFFCURVE",
"221 114 OFFCURVE",
"176 267 CURVE SMOOTH",
"156 335 OFFCURVE",
"131 439 OFFCURVE",
"117 476 CURVE",
"109 480 LINE",
"68 476 OFFCURVE",
"30 470 OFFCURVE",
"-12 460 CURVE",
"-7 420 LINE",
"32 417 LINE",
"70 375 OFFCURVE",
"153 124 OFFCURVE",
"175 0 CURVE",
"205 0 LINE",
"227 17 OFFCURVE",
"238 43 OFFCURVE",
"264 45 CURVE"
);
},
{
closed = 1;
nodes = (
"308 115 OFFCURVE",
"380 248 OFFCURVE",
"392 312 CURVE",
"353 398 LINE",
"352 341 OFFCURVE",
"303 163 OFFCURVE",
"204 50 CURVE",
"188 0 LINE",
"239 0 LINE"
);
},
{
closed = 1;
nodes = (
"575 130 OFFCURVE",
"684 383 OFFCURVE",
"659 477 CURVE",
"652 480 LINE",
"606 476 OFFCURVE",
"547 470 OFFCURVE",
"501 460 CURVE",
"506 420 LINE",
"568 417 LINE",
"598 367 OFFCURVE",
"551 163 OFFCURVE",
"455 50 CURVE",
"437 0 LINE",
"489 0 LINE"
);
},
{
closed = 1;
nodes = (
"491 82 OFFCURVE",
"474 115 OFFCURVE",
"427 267 CURVE SMOOTH",
"406 335 OFFCURVE",
"382 439 OFFCURVE",
"368 476 CURVE",
"360 481 LINE",
"320 476 OFFCURVE",
"296 472 OFFCURVE",
"258 460 CURVE",
"264 420 LINE",
"288 417 LINE",
"326 375 OFFCURVE",
"407 124 OFFCURVE",
"429 0 CURVE",
"451 0 LINE",
"473 17 OFFCURVE",
"482 57 OFFCURVE",
"508 59 CURVE"
);
}
);
width = 681;
},
{
anchors = (
{
name = bottom;
position = "{306, 0}";
},
{
name = top;
position = "{351, 508}";
}
);
associatedMasterId = "0B1F8F77-7348-4C28-A663-EA76351238C4";
background = {
components = (
{
name = y;
transform = "{1, 0, 0, 1, 16, 0}";
}
);
};
guideLines = (
{
angle = -12;
position = "{718, 437}";
},
{
angle = -96;
position = "{368, 480}";
}
);
layerId = "99B1D419-4EF9-4109-9285-0A128B1B9370";
name = "Apr 18 17, 19:48";
paths = (
{
closed = 1;
nodes = (
"318 480 LINE",
"302 293 OFFCURVE",
"287 179 OFFCURVE",
"220 77 CURVE",
"169 85 LINE",
"178 285 OFFCURVE",
"187 468 OFFCURVE",
"181 480 CURVE",
"139 485 OFFCURVE",
"46 482 OFFCURVE",
"33 477 CURVE",
"29 441 LINE",
"97 421 LINE",
"106 364 OFFCURVE",
"107 178 OFFCURVE",
"119 28 CURVE",
"131 9 OFFCURVE",
"169 0 OFFCURVE",
"216 -1 CURVE",
"308 103 OFFCURVE",
"342 302 OFFCURVE",
"361 472 CURVE"
);
},
{
closed = 1;
nodes = (
"583 485 OFFCURVE",
"519 480 OFFCURVE",
"480 473 CURVE",
"474 446 OFFCURVE",
"474 424 OFFCURVE",
"476 397 CURVE",
"564 408 LINE",
"568 352 OFFCURVE",
"518 181 OFFCURVE",
"438 79 CURVE",
"387 87 LINE",
"389 287 OFFCURVE",
"391 374 OFFCURVE",
"392 468 CURVE",
"368 480 OFFCURVE",
"349 481 OFFCURVE",
"321 480 CURVE",
"321 326 OFFCURVE",
"326 177 OFFCURVE",
"338 27 CURVE",
"350 8 OFFCURVE",
"387 0 OFFCURVE",
"434 -1 CURVE",
"526 103 OFFCURVE",
"663 365 OFFCURVE",
"621 474 CURVE"
);
},
{
closed = 1;
nodes = (
"305 211 LINE",
"342 211 LINE",
"343 308 LINE",
"316 308 LINE"
);
}
);
width = 641;
}
);
leftKerningGroup = v;
leftMetricsKey = v;
note = "compare with v";
rightKerningGroup = g;
unicode = 0077;
},
{
glyphname = x;
lastChange = "2017-07-21 19:39:25 +0000";
layers = (
{
anchors = (
{
name = bottom;
position = "{238, 0}";
},
{
name = top;
position = "{238, 480}";
}
);
background = {
paths = (
{
closed = 1;
nodes = (
"333 351 OFFCURVE",
"297 295 OFFCURVE",
"199 282 CURVE",
"199 235 LINE",
"381 256 OFFCURVE",
"463 351 OFFCURVE",
"455 480 CURVE",
"392 481 OFFCURVE",
"337 475 OFFCURVE",
"273 462 CURVE",
"286 403 LINE",
"334 399 LINE"
);
}
);
};
guideLines = (
{
position = "{158, 71}";
},
{
position = "{140, 407}";
},
{
position = "{236, 464}";
}
);
layerId = "11343128-4963-4E5D-BE9C-B74F53B36FA5";
paths = (
{
closed = 1;
nodes = (
"282 264 LINE",
"250 336 OFFCURVE",
"211 449 OFFCURVE",
"195 480 CURVE",
"145 483 OFFCURVE",
"65 477 OFFCURVE",
"1 464 CURVE",
"10 403 LINE",
"53 399 LINE",
"79 374 OFFCURVE",
"132 286 OFFCURVE",
"180 183 CURVE"
);
},
{
closed = 1;
nodes = (
"188 215 LINE",
"220 143 OFFCURVE",
"259 31 OFFCURVE",
"279 0 CURVE",
"301 -5 OFFCURVE",
"392 -2 OFFCURVE",
"467 21 CURVE",
"472 78 LINE",
"421 82 LINE",
"393 107 OFFCURVE",
"335 193 OFFCURVE",
"287 296 CURVE"
);
},
{
closed = 1;
nodes = (
"358 271 OFFCURVE",
"472 382 OFFCURVE",
"458 480 CURVE",
"401 482 OFFCURVE",
"328 476 OFFCURVE",
"272 464 CURVE",
"285 403 LINE",
"331 399 LINE",
"345 360 OFFCURVE",
"295 300 OFFCURVE",
"217 245 CURVE",
"230 239 OFFCURVE",
"262 217 OFFCURVE",
"276 212 CURVE"
);
},
{
closed = 1;
nodes = (
"106 210 OFFCURVE",
"-11 95 OFFCURVE",
"6 1 CURVE",
"27 -6 OFFCURVE",
"124 -6 OFFCURVE",
"194 16 CURVE",
"199 78 LINE",
"137 82 LINE",
"112 125 OFFCURVE",
"174 166 OFFCURVE",
"247 234 CURVE",
"234 240 OFFCURVE",
"202 264 OFFCURVE",
"188 269 CURVE"
);
}
);
width = 473;
},
{
anchors = (
{
name = bottom;
position = "{219, 0}";
},
{
name = top;
position = "{219, 480}";
}
);
background = {
components = (
{
name = n;
transform = "{1, 0, 0, 1, -25, 0}";
}
);
};
guideLines = (
{
position = "{121, 21}";
},
{
position = "{264, 21}";
},
{
position = "{242, 59}";
},
{
angle = 98;
position = "{216, 220}";
},
{
angle = 85;
position = "{446, 202}";
},
{
position = "{-250, 420}";
},
{
position = "{-249, 462}";
}
);
layerId = "0B1F8F77-7348-4C28-A663-EA76351238C4";
paths = (
{
closed = 1;
nodes = (
"246 244 LINE",
"215 313 OFFCURVE",
"158 439 OFFCURVE",
"139 476 CURVE",
"132 480 LINE",
"93 477 OFFCURVE",
"48 471 OFFCURVE",
"10 463 CURVE",
"16 421 LINE",
"55 417 LINE",
"81 392 OFFCURVE",
"140 311 OFFCURVE",
"188 208 CURVE"
);
},
{
closed = 1;
nodes = (
"201 225 LINE",
"231 156 OFFCURVE",
"286 37 OFFCURVE",
"308 2 CURVE",
"314 -2 LINE",
"356 1 OFFCURVE",
"391 6 OFFCURVE",
"433 15 CURVE",
"437 57 LINE",
"393 60 LINE",
"367 85 OFFCURVE",
"303 154 OFFCURVE",
"253 257 CURVE"
);
},
{
closed = 1;
nodes = (
"334 281 OFFCURVE",
"435 375 OFFCURVE",
"423 473 CURVE",
"414 480 LINE",
"371 476 OFFCURVE",
"308 471 OFFCURVE",
"265 463 CURVE",
"270 421 LINE",
"335 417 LINE",
"360 374 OFFCURVE",
"288 301 OFFCURVE",
"216 247 CURVE",
"229 241 OFFCURVE",
"240 228 OFFCURVE",
"254 223 CURVE"
);
},
{
closed = 1;
nodes = (
"103 194 OFFCURVE",
"8 101 OFFCURVE",
"20 3 CURVE",
"28 -3 LINE",
"72 0 OFFCURVE",
"138 6 OFFCURVE",
"182 15 CURVE",
"185 57 LINE",
"111 60 LINE",
"86 103 OFFCURVE",
"147 164 OFFCURVE",
"220 231 CURVE",
"207 237 OFFCURVE",
"197 247 OFFCURVE",
"183 252 CURVE"
);
}
);
width = 462;
}
);
leftKerningGroup = z;
rightKerningGroup = z;
unicode = 0078;
},
{
glyphname = y;
lastChange = "2017-07-21 19:40:03 +0000";
layers = (
{
anchors = (
{
name = bottom;
position = "{234, 0}";
},
{
name = top;
position = "{256, 480}";
}
);
background = {
components = (
{
name = v;
transform = "{1, 0, 0, 1, -6, 0}";
}
);
paths = (
{
closed = 1;
nodes = (
"123 -272 OFFCURVE",
"232 -130 OFFCURVE",
"318 40 CURVE SMOOTH",
"399 199 OFFCURVE",
"461 384 OFFCURVE",
"451 480 CURVE",
"430 487 OFFCURVE",
"358 491 OFFCURVE",
"298 457 CURVE",
"303 419 LINE",
"363 419 LINE",
"388 331 OFFCURVE",
"337 193 OFFCURVE",
"272 68 CURVE",
"199 -107 OFFCURVE",
"109 -153 OFFCURVE",
"21 -159 CURVE",
"10 -176 LINE",
"53 -249 LINE"
);
}
);
};
layerId = "11343128-4963-4E5D-BE9C-B74F53B36FA5";
paths = (
{
closed = 1;
nodes = (
"298 111 OFFCURVE",
"291 115 OFFCURVE",
"244 267 CURVE SMOOTH",
"222 339 OFFCURVE",
"197 449 OFFCURVE",
"184 480 CURVE",
"164 486 OFFCURVE",
"83 490 OFFCURVE",
"1 460 CURVE",
"9 403 LINE",
"46 399 LINE",
"84 357 OFFCURVE",
"182 66 OFFCURVE",
"191 -34 CURVE",
"223 -38 OFFCURVE",
"271 82 OFFCURVE",
"315 88 CURVE"
);
},
{
closed = 1;
nodes = (
"135 -245 OFFCURVE",
"238 -124 OFFCURVE",
"321 34 CURVE SMOOTH",
"411 205 OFFCURVE",
"491 402 OFFCURVE",
"466 480 CURVE",
"445 487 OFFCURVE",
"362 490 OFFCURVE",
"295 461 CURVE",
"304 403 LINE",
"346 399 LINE",
"375 352 OFFCURVE",
"342 219 OFFCURVE",
"260 97 CURVE",
"206 -85 OFFCURVE",
"72 -98 OFFCURVE",
"-3 -110 CURVE",
"-20 -132 LINE",
"43 -239 LINE"
);
}
);
width = 491;
},
{
anchors = (
{
name = bottom;
position = "{204, 0}";
},
{
name = top;
position = "{226, 480}";
}
);
background = {
components = (
{
name = v;
transform = "{1, 0, 0, 1, -8, 0}";
}
);
};
guideLines = (
{
position = "{105, 21}";
},
{
position = "{117, 419}";
},
{
position = "{135, 457}";
},
{
angle = 98;
position = "{11, 238}";
}
);
layerId = "0B1F8F77-7348-4C28-A663-EA76351238C4";
paths = (
{
closed = 1;
nodes = (
"255 50 OFFCURVE",
"236 115 OFFCURVE",
"188 267 CURVE SMOOTH",
"166 336 OFFCURVE",
"143 439 OFFCURVE",
"130 475 CURVE",
"123 480 LINE",
"77 477 OFFCURVE",
"37 472 OFFCURVE",
"-8 460 CURVE",
"-4 420 LINE",
"39 417 LINE",
"71 382 OFFCURVE",
"148 163 OFFCURVE",
"187 34 CURVE SMOOTH",
"195 8 OFFCURVE",
"201 -14 OFFCURVE",
"205 -30 CURVE",
"237 -34 OFFCURVE",
"254 -8 OFFCURVE",
"272 27 CURVE"
);
},
{
closed = 1;
nodes = (
"93 -257 OFFCURVE",
"202 -130 OFFCURVE",
"288 40 CURVE SMOOTH",
"367 195 OFFCURVE",
"429 376 OFFCURVE",
"423 473 CURVE",
"414 481 LINE",
"367 479 OFFCURVE",
"307 473 OFFCURVE",
"257 461 CURVE",
"263 419 LINE",
"333 416 LINE",
"358 328 OFFCURVE",
"309 191 OFFCURVE",
"244 66 CURVE",
"171 -109 OFFCURVE",
"79 -138 OFFCURVE",
"-9 -144 CURVE",
"-20 -161 LINE",
"23 -234 LINE"
);
}
);
width = 455;
},
{
anchors = (
{
name = bottom;
position = "{187, 0}";
},
{
name = top;
position = "{230, 508}";
}
);
associatedMasterId = "0B1F8F77-7348-4C28-A663-EA76351238C4";
background = {
components = (
{
name = v;
transform = "{1, 0, 0, 1, -15, 0}";
}
);
};
guideLines = (
{
angle = 84;
position = "{247, 314}";
}
);
layerId = "25B77620-421F-47A0-81E8-EF607939610F";
name = "Apr 18 17, 19:50";
paths = (
{
closed = 1;
nodes = (
"160 201 OFFCURVE",
"168 424 OFFCURVE",
"163 480 CURVE",
"131 489 OFFCURVE",
"37 483 OFFCURVE",
"19 477 CURVE",
"15 441 LINE",
"83 424 LINE",
"90 357 OFFCURVE",
"95 124 OFFCURVE",
"99 22 CURVE",
"123 12 OFFCURVE",
"172 -3 OFFCURVE",
"200 13 CURVE",
"237 72 LINE",
"154 89 LINE"
);
},
{
closed = 1;
nodes = (
"6 -288 OFFCURVE",
"206 -47 OFFCURVE",
"292 102 CURVE SMOOTH",
"369 235 OFFCURVE",
"433 404 OFFCURVE",
"408 474 CURVE",
"372 487 OFFCURVE",
"306 482 OFFCURVE",
"260 472 CURVE",
"256 448 OFFCURVE",
"254 424 OFFCURVE",
"255 396 CURVE",
"289 401 OFFCURVE",
"328 404 OFFCURVE",
"350 408 CURVE",
"336 293 OFFCURVE",
"284 163 OFFCURVE",
"212 57 CURVE SMOOTH",
"126 -71 OFFCURVE",
"10 -169 OFFCURVE",
"-104 -144 CURVE",
"-122 -150 LINE",
"-126 -172 OFFCURVE",
"-128 -192 OFFCURVE",
"-130 -215 CURVE"
);
}
);
width = 433;
}
);
leftKerningGroup = v;
note = " ";
rightMetricsKey = v;
unicode = 0079;
},
{
glyphname = z;
lastChange = "2017-07-21 20:37:13 +0000";
layers = (
{
anchors = (
{
name = bottom;
position = "{225, 0}";
},
{
name = top;
position = "{225, 480}";
}
);
background = {
paths = (
{
closed = 1;
nodes = (
"142 -3 OFFCURVE",
"183 21 OFFCURVE",
"188 27 CURVE",
"203 42 OFFCURVE",
"226 58 OFFCURVE",
"243 83 CURVE SMOOTH",
"260 108 OFFCURVE",
"387 335 OFFCURVE",
"438 453 CURVE",
"423 465 OFFCURVE",
"407 477 OFFCURVE",
"391 480 CURVE SMOOTH",
"369 484 OFFCURVE",
"365 469 OFFCURVE",
"357 448 CURVE SMOOTH",
"325 370 OFFCURVE",
"269 262 OFFCURVE",
"211 163 CURVE SMOOTH",
"199 143 OFFCURVE",
"181 129 OFFCURVE",
"169 127 CURVE",
"144 137 OFFCURVE",
"117 152 OFFCURVE",
"94 167 CURVE",
"78 131 OFFCURVE",
"55 51 OFFCURVE",
"56 39 CURVE",
"67 14 OFFCURVE",
"96 -3 OFFCURVE",
"125 -3 CURVE SMOOTH"
);
},
{
closed = 1;
nodes = (
"441 62 OFFCURVE",
"463 112 OFFCURVE",
"468 146 CURVE",
"425 163 LINE",
"420 143 OFFCURVE",
"412 128 OFFCURVE",
"403 116 CURVE",
"358 110 OFFCURVE",
"306 103 OFFCURVE",
"234 150 CURVE",
"173 74 LINE",
"244 10 OFFCURVE",
"324 -34 OFFCURVE",
"410 17 CURVE"
);
},
{
closed = 1;
nodes = (
"122 332 OFFCURVE",
"281 347 OFFCURVE",
"327 344 CURVE",
"365 380 LINE",
"352 403 OFFCURVE",
"398 444 OFFCURVE",
"375 444 CURVE",
"294 435 OFFCURVE",
"166 472 OFFCURVE",
"89 478 CURVE",
"82 468 OFFCURVE",
"66 345 OFFCURVE",
"76 317 CURVE"
);
}
);
};
layerId = "11343128-4963-4E5D-BE9C-B74F53B36FA5";
paths = (
{
closed = 1;
nodes = (
"353 161 OFFCURVE",
"347 147 OFFCURVE",
"338 124 CURVE",
"319 115 OFFCURVE",
"277 114 OFFCURVE",
"210 119 CURVE",
"236 164 OFFCURVE",
"336 323 OFFCURVE",
"413 415 CURVE",
"399 475 LINE",
"290 473 OFFCURVE",
"149 474 OFFCURVE",
"45 479 CURVE",
"39 389 OFFCURVE",
"33 317 OFFCURVE",
"33 279 CURVE",
"46 278 OFFCURVE",
"91 284 OFFCURVE",
"110 290 CURVE",
"121 345 LINE",
"152 353 OFFCURVE",
"214 353 OFFCURVE",
"257 354 CURVE",
"238 312 OFFCURVE",
"129 147 OFFCURVE",
"20 60 CURVE",
"36 1 LINE",
"158 1 OFFCURVE",
"286 3 OFFCURVE",
"408 -2 CURVE",
"416 51 OFFCURVE",
"426 120 OFFCURVE",
"435 175 CURVE",
"360 184 LINE"
);
}
);
width = 450;
},
{
anchors = (
{
name = bottom;
position = "{204, 0}";
},
{
name = top;
position = "{204, 480}";
}
);
background = {
paths = (
{
closed = 1;
nodes = (
"93 372 OFFCURVE",
"97 382 OFFCURVE",
"104 403 CURVE",
"133 406 OFFCURVE",
"193 415 OFFCURVE",
"283 411 CURVE",
"257 366 OFFCURVE",
"123 132 OFFCURVE",
"44 41 CURVE",
"54 1 LINE",
"163 5 OFFCURVE",
"270 6 OFFCURVE",
"374 -1 CURVE",
"381 48 OFFCURVE",
"385 92 OFFCURVE",
"386 130 CURVE",
"372 133 OFFCURVE",
"353 137 OFFCURVE",
"334 135 CURVE",
"318 79 LINE",
"287 70 OFFCURVE",
"188 71 OFFCURVE",
"145 70 CURVE",
"164 112 OFFCURVE",
"299 359 OFFCURVE",
"398 441 CURVE",
"391 477 LINE",
"269 477 OFFCURVE",
"172 476 OFFCURVE",
"50 481 CURVE",
"42 428 OFFCURVE",
"36 397 OFFCURVE",
"27 342 CURVE",
"45 338 OFFCURVE",
"65 337 OFFCURVE",
"81 336 CURVE"
);
}
);
};
layerId = "0B1F8F77-7348-4C28-A663-EA76351238C4";
paths = (
{
closed = 1;
nodes = (
"335 106 OFFCURVE",
"331 96 OFFCURVE",
"324 75 CURVE",
"295 72 OFFCURVE",
"227 60 OFFCURVE",
"131 64 CURVE",
"157 109 OFFCURVE",
"317 342 OFFCURVE",
"396 433 CURVE",
"386 478 LINE",
"276 470 OFFCURVE",
"142 473 OFFCURVE",
"41 479 CURVE",
"36 428 OFFCURVE",
"32 367 OFFCURVE",
"29 329 CURVE",
"46 329 OFFCURVE",
"63 330 OFFCURVE",
"80 332 CURVE",
"97 402 LINE",
"128 406 OFFCURVE",
"252 415 OFFCURVE",
"295 413 CURVE",
"274 371 OFFCURVE",
"109 121 OFFCURVE",
"13 39 CURVE",
"22 2 LINE",
"144 2 OFFCURVE",
"252 3 OFFCURVE",
"374 -2 CURVE",
"382 46 OFFCURVE",
"389 80 OFFCURVE",
"398 135 CURVE",
"381 138 OFFCURVE",
"364 141 OFFCURVE",
"347 142 CURVE"
);
}
);
width = 419;
}
);
leftKerningGroup = z;
rightKerningGroup = z;
unicode = 007A;
},
{
glyphname = T_h.dlig;
lastChange = "2017-05-20 10:40:11 +0000";
layers = (
{
anchors = (
{
name = bottom;
position = "{300, 0}";
},
{
name = center;
position = "{300, 350}";
},
{
name = top;
position = "{300, 700}";
}
);
background = {
paths = (
{
closed = 1;
nodes = (
"682 469 OFFCURVE",
"684 605 OFFCURVE",
"681 682 CURVE",
"654 702 LINE",
"501 667 OFFCURVE",
"252 673 OFFCURVE",
"40 680 CURVE",
"18 517 LINE",
"70 506 LINE",
"88 584 OFFCURVE",
"135 589 OFFCURVE",
"241 588 CURVE SMOOTH",
"374 587 LINE",
"409 588 OFFCURVE",
"518 586 OFFCURVE",
"558 579 CURVE",
"564 555 OFFCURVE",
"567 532 OFFCURVE",
"568 508 CURVE SMOOTH",
"575 343 OFFCURVE",
"560 117 OFFCURVE",
"559 101 CURVE",
"556 73 OFFCURVE",
"599 59 OFFCURVE",
"620 57 CURVE SMOOTH",
"647 54 OFFCURVE",
"661 40 OFFCURVE",
"696 40 CURVE",
"688 63 OFFCURVE",
"682 157 OFFCURVE",
"682 347 CURVE SMOOTH"
);
}
);
};
components = (
{
name = _part.stem.cap;
transform = "{1, 0, 0, 1, -82, 0}";
},
{
name = _part.bow;
transform = "{1, 0, 0, 1, 274, 0}";
}
);
layerId = "11343128-4963-4E5D-BE9C-B74F53B36FA5";
paths = (
{
closed = 1;
nodes = (
"503 65 LINE",
"498 0 LINE",
"765 0 LINE",
"770 66 LINE",
"703 76 LINE",
"643 76 LINE"
);
},
{
closed = 1;
nodes = (
"702 90 OFFCURVE",
"702 182 OFFCURVE",
"702 329 CURVE SMOOTH",
"702 482 OFFCURVE",
"706 630 OFFCURVE",
"698 679 CURVE",
"548 611 LINE",
"572 530 OFFCURVE",
"561 147 OFFCURVE",
"561 125 CURVE SMOOTH",
"561 67 OFFCURVE",
"624 66 OFFCURVE",
"708 49 CURVE"
);
},
{
closed = 1;
nodes = (
"410 595 OFFCURVE",
"542 592 OFFCURVE",
"582 585 CURVE",
"698 679 LINE",
"670 715 LINE",
"500 680 OFFCURVE",
"195 678 OFFCURVE",
"10 688 CURVE",
"10 509 LINE",
"79 499 LINE",
"87 535 OFFCURVE",
"90 559 OFFCURVE",
"98 589 CURVE",
"133 594 OFFCURVE",
"185 596 OFFCURVE",
"242 595 CURVE",
"375 594 LINE"
);
}
);
width = 1069;
},
{
anchors = (
{
name = bottom;
position = "{297, 0}";
},
{
name = center;
position = "{297, 350}";
},
{
name = top;
position = "{297, 700}";
}
);
background = {
components = (
{
name = h;
transform = "{1, 0, 0, 1, 453, 0}";
},
{
name = T;
}
);
};
components = (
{
name = _part.stem.cap;
transform = "{1, 0, 0, 1, -13, 0}";
},
{
alignment = -1;
name = _part.bow;
transform = "{1, 0, 0, 1, 232, 0}";
}
);
layerId = "0B1F8F77-7348-4C28-A663-EA76351238C4";
paths = (
{
closed = 1;
nodes = (
"625 63 OFFCURVE",
"627 157 OFFCURVE",
"627 347 CURVE SMOOTH",
"627 509 OFFCURVE",
"629 612 OFFCURVE",
"629 680 CURVE",
"610 685 OFFCURVE",
"606 676 OFFCURVE",
"537 649 CURVE",
"548 577 OFFCURVE",
"544 517 OFFCURVE",
"544 91 CURVE SMOOTH",
"544 69 OFFCURVE",
"588 40 OFFCURVE",
"632 40 CURVE"
);
},
{
closed = 1;
nodes = (
"483 45 LINE",
"480 0 LINE",
"703 0 LINE",
"707 46 LINE",
"629 55 LINE",
"601 55 LINE"
);
},
{
closed = 1;
nodes = (
"376 625 OFFCURVE",
"507 621 OFFCURVE",
"566 613 CURVE",
"629 680 LINE",
"608 708 LINE",
"470 675 OFFCURVE",
"182 677 OFFCURVE",
"10 687 CURVE",
"10 538 LINE",
"59 529 LINE",
"66 572 OFFCURVE",
"68 586 OFFCURVE",
"74 612 CURVE",
"95 620 OFFCURVE",
"156 621 OFFCURVE",
"221 624 CURVE",
"341 624 LINE"
);
}
);
width = 1010;
}
);
leftKerningGroup = T;
leftMetricsKey = T;
rightKerningGroup = i;
rightMetricsKey = h;
},
{
color = 5;
glyphname = fi;
lastChange = "2017-05-20 10:40:11 +0000";
layers = (
{
anchors = (
{
name = bottom;
position = "{679, 0}";
},
{
name = ogonek;
position = "{790, 10}";
},
{
name = top;
position = "{675, 480}";
}
);
background = {
components = (
{
name = fj;
transform = "{1, 0, 0, 1, 272, 0}";
}
);
};
components = (
{
alignment = -1;
name = idotless;
transform = "{1, 0, 0, 1, 324, 0}";
}
);
layerId = "11343128-4963-4E5D-BE9C-B74F53B36FA5";
paths = (
{
closed = 1;
nodes = (
"194 395 LINE",
"244 394 OFFCURVE",
"469 386 OFFCURVE",
"478 386 CURVE SMOOTH",
"489 386 OFFCURVE",
"487 425 OFFCURVE",
"479 480 CURVE",
"443 478 OFFCURVE",
"253 474 OFFCURVE",
"236 473 CURVE",
"105 492 LINE",
"104 471 OFFCURVE",
"93 469 OFFCURVE",
"63 467 CURVE SMOOTH",
"46 466 LINE",
"46 397 LINE",
"50 397 OFFCURVE",
"96 397 OFFCURVE",
"111 397 CURVE"
);
},
{
closed = 1;
nodes = (
"45 65 LINE",
"42 0 LINE",
"320 0 LINE",
"324 65 LINE",
"238 75 LINE",
"175 75 LINE"
);
},
{
closed = 1;
nodes = (
"101 296 OFFCURVE",
"95 170 OFFCURVE",
"95 110 CURVE SMOOTH",
"95 82 OFFCURVE",
"138 68 OFFCURVE",
"163 66 CURVE SMOOTH",
"190 64 OFFCURVE",
"206 57 OFFCURVE",
"241 57 CURVE",
"237 135 OFFCURVE",
"237 191 OFFCURVE",
"237 394 CURVE",
"234 564 OFFCURVE",
"247 618 OFFCURVE",
"289 650 CURVE",
"367 660 OFFCURVE",
"437 617 OFFCURVE",
"470 585 CURVE",
"506 598 LINE",
"511 614 OFFCURVE",
"530 674 OFFCURVE",
"535 708 CURVE",
"499 757 OFFCURVE",
"300 766 OFFCURVE",
"204 697 CURVE SMOOTH",
"134 647 OFFCURVE",
"101 559 OFFCURVE",
"101 421 CURVE SMOOTH"
);
}
);
width = 652;
},
{
anchors = (
{
name = bottom;
position = "{385, 0}";
},
{
name = ogonek;
position = "{496, 10}";
},
{
name = top;
position = "{381, 480}";
}
);
background = {
components = (
{
name = f;
transform = "{1, 0, 0, 1, 1, 0}";
},
{
name = i;
transform = "{1, 0, 0, 1, 306, 0}";
}
);
};
components = (
{
name = idotless;
transform = "{1, 0, 0, 1, 307, 0}";
}
);
layerId = "0B1F8F77-7348-4C28-A663-EA76351238C4";
paths = (
{
closed = 1;
nodes = (
"44 45 LINE",
"40 0 LINE",
"283 0 LINE",
"287 46 LINE",
"189 55 LINE",
"159 55 LINE"
);
},
{
closed = 1;
nodes = (
"486 480 LINE",
"483 480 OFFCURVE",
"466 481 OFFCURVE",
"407 476 CURVE SMOOTH",
"332 470 OFFCURVE",
"209 465 OFFCURVE",
"185 465 CURVE",
"187 574 OFFCURVE",
"192 650 OFFCURVE",
"252 678 CURVE",
"343 684 OFFCURVE",
"412 639 OFFCURVE",
"438 599 CURVE",
"458 603 LINE",
"465 623 OFFCURVE",
"478 654 OFFCURVE",
"481 669 CURVE",
"439 747 OFFCURVE",
"252 786 OFFCURVE",
"156 656 CURVE SMOOTH",
"130 621 OFFCURVE",
"115 562 OFFCURVE",
"111 471 CURVE",
"106 461 OFFCURVE",
"91 460 OFFCURVE",
"61 458 CURVE SMOOTH",
"42 457 LINE",
"44 415 LINE",
"110 415 LINE",
"110 290 OFFCURVE",
"106 114 OFFCURVE",
"106 91 CURVE SMOOTH",
"106 64 OFFCURVE",
"155 37 OFFCURVE",
"194 37 CURVE",
"186 117 OFFCURVE",
"186 201 OFFCURVE",
"186 414 CURVE",
"217 413 OFFCURVE",
"386 413 OFFCURVE",
"407 413 CURVE SMOOTH",
"425 413 LINE"
);
}
);
width = 613;
}
);
leftKerningGroup = f;
leftMetricsKey = f;
rightKerningGroup = i;
rightMetricsKey = i;
unicode = FB01;
},
